<?xml version="1.0" encoding="UTF-8"?>
<svg width="115px" height="32px" viewBox="0 0 115 32" version="1.1" xmlns="http://www.w3.org/2000/svg" xmlns:xlink="http://www.w3.org/1999/xlink">
    <title>04 Honeycomb Foundation/logo*/CBA/CBAlockup64</title>
    <defs>
        <linearGradient x1="20.65625%" y1="25.375%" x2="79.34375%" y2="74.609375%" id="linearGradient-1">
            <stop stop-color="#FFFF00" offset="0%"></stop>
            <stop stop-color="#FEF10C" offset="27%"></stop>
            <stop stop-color="#FDE516" offset="45%"></stop>
            <stop stop-color="#FDE113" offset="64%"></stop>
            <stop stop-color="#FED508" offset="82%"></stop>
            <stop stop-color="#FFCC00" offset="92%"></stop>
        </linearGradient>
        <linearGradient x1="32.1467939%" y1="42.3611111%" x2="55.1177879%" y2="60.4662698%" id="linearGradient-2">
            <stop stop-color="#874400" offset="10%"></stop>
            <stop stop-color="#D88A00" offset="26%"></stop>
            <stop stop-color="#E79D00" offset="37%"></stop>
            <stop stop-color="#F2B400" offset="52%"></stop>
            <stop stop-color="#FAD202" offset="70%"></stop>
            <stop stop-color="#FEDF03" offset="90%"></stop>
        </linearGradient>
    </defs>
    <g id="Navigation" stroke="none" stroke-width="1" fill="none" fill-rule="evenodd">
        <g id="xs---Logo-update" transform="translate(-68.000000, -77.000000)">
            <g id="04-Honeycomb-Foundation/logo*/CBA/CBAlockup64" transform="translate(68.000000, 77.000000)">
                <rect id="bounding-box" fill="#D8D8D8" opacity="0" x="0" y="0" width="120" height="32"></rect>
                <g id="CommBank">
                    <g id="Commonwealth" transform="translate(38.160000, 5.900000)" fill="#1E1E1E" fill-rule="nonzero">
                        <path d="M-4.36539693e-13,4.19 C-4.36539693e-13,1.425 1.5,8.8817842e-16 3.56,8.8817842e-16 C5.06,8.8817842e-16 6.365,0.815 6.56,2.43 L5.31,2.43 C5.17411961,1.59560053 4.41081458,1.01215473 3.57,1.1 C2.235,1.1 1.245,2 1.245,4.21 C1.245,6.42 2.245,7.32 3.57,7.32 C4.41653444,7.40974985 5.18357247,6.81683827 5.31,5.975 L6.585,5.975 C6.365,7.585 5.055,8.4 3.585,8.4 C1.52,8.38 -4.36539693e-13,6.955 -4.36539693e-13,4.19 Z" id="Path"></path>
                        <path d="M7.105,5.31 C7.105,3.42 8.27,2.22 9.87,2.22 C11.47,2.22 12.645,3.42 12.645,5.31 C12.645,7.2 11.48,8.395 9.87,8.395 C8.26,8.395 7.105,7.195 7.105,5.31 Z M11.425,5.31 C11.425,3.88 10.79,3.19 9.87,3.19 C8.95,3.19 8.305,3.88 8.305,5.31 C8.305,6.74 8.95,7.425 9.87,7.425 C10.79,7.425 11.425,6.735 11.425,5.31 Z" id="Shape"></path>
                        <path d="M21.88,4.385 L21.88,8.245 L20.685,8.245 L20.685,4.57 C20.685,3.625 20.26,3.28 19.6,3.28 C18.84,3.28 18.23,3.905 18.23,4.915 L18.23,8.245 L17.035,8.245 L17.035,4.57 C17.035,3.625 16.61,3.28 15.95,3.28 C15.19,3.28 14.58,3.905 14.58,4.915 L14.58,8.245 L13.385,8.245 L13.385,2.37 L14.58,2.37 L14.58,3.27 C14.918998,2.61831906 15.5954589,2.21244252 16.33,2.22 C17.0989811,2.18964536 17.7989853,2.6610355 18.06,3.385 C18.3961163,2.65225522 19.1392972,2.19294182 19.945,2.22 C21.005,2.22 21.88,2.925 21.88,4.385 Z" id="Path"></path>
                        <path d="M31.34,4.385 L31.34,8.245 L30.14,8.245 L30.14,4.57 C30.14,3.625 29.715,3.28 29.06,3.28 C28.3,3.28 27.69,3.905 27.69,4.915 L27.69,8.245 L26.49,8.245 L26.49,4.57 C26.49,3.625 26.065,3.28 25.41,3.28 C24.65,3.28 24.04,3.905 24.04,4.915 L24.04,8.245 L22.84,8.245 L22.84,2.37 L24.04,2.37 L24.04,3.27 C24.3772342,2.61666187 25.0548267,2.21010633 25.79,2.22 C26.5576302,2.19025279 27.25587,2.66181763 27.515,3.385 C27.8518228,2.65053247 28.5975071,2.19089108 29.405,2.22 C30.455,2.22 31.34,2.925 31.34,4.385 Z" id="Path"></path>
                        <path d="M32.11,5.31 C32.11,3.42 33.27,2.22 34.87,2.22 C36.47,2.22 37.645,3.42 37.645,5.31 C37.645,7.2 36.485,8.395 34.87,8.395 C33.255,8.395 32.11,7.195 32.11,5.31 Z M36.425,5.31 C36.425,3.88 35.795,3.19 34.87,3.19 C33.945,3.19 33.305,3.88 33.305,5.31 C33.305,6.74 33.95,7.425 34.87,7.425 C35.79,7.425 36.425,6.735 36.425,5.31 Z" id="Shape"></path>
                        <path d="M43.455,4.385 L43.455,8.245 L42.255,8.245 L42.255,4.685 C42.255,3.66 41.755,3.28 41.08,3.28 C40.405,3.28 39.61,3.78 39.61,4.95 L39.61,8.245 L38.41,8.245 L38.41,2.37 L39.61,2.37 L39.61,3.305 C39.9642272,2.61531534 40.6851544,2.19250128 41.46,2.22 C42.535,2.22 43.455,2.925 43.455,4.385 Z" id="Path"></path>
                        <polygon id="Path" points="50.865 2.37 52.04 2.37 50.54 8.245 49.09 8.245 47.985 3.79 46.84 8.245 45.365 8.245 43.865 2.37 45.075 2.37 46.195 7.16 47.38 2.37 48.6 2.37 49.765 7.07"></polygon>
                        <path d="M57.56,5.6 L53.425,5.6 C53.515,6.785 54.115,7.42 55.14,7.42 C55.6742312,7.48156581 56.1837793,7.17870185 56.385,6.68 L57.56,6.68 C57.225,7.8 56.28,8.375 55.06,8.375 C53.39,8.375 52.25,7.175 52.25,5.29 C52.25,3.405 53.4,2.2 55.08,2.2 C56.58,2.2 57.58,3.17 57.58,5.01 C57.595,5.215 57.58,5.41 57.56,5.6 Z M53.45,4.665 L56.45,4.665 C56.405,3.535 55.78,3.165 55.045,3.165 C54.21,3.175 53.61,3.675 53.45,4.685 L53.45,4.665 Z" id="Shape"></path>
                        <path d="M63.785,7.345 L63.785,8.265 C63.6031818,8.30780833 63.4167663,8.32796135 63.23,8.325 C62.7010871,8.38230056 62.2075193,8.05114608 62.06,7.54 C61.6172774,8.10942324 60.9255133,8.42826869 60.205,8.395 C58.89,8.395 58.155,7.555 58.155,6.495 C58.155,5.435 59.04,4.755 60.155,4.71 L61.985,4.64 L61.985,4.35 C62.0215348,4.03524806 61.9132837,3.72091916 61.690689,3.49540831 C61.4680942,3.26989745 61.1552008,3.15756468 60.84,3.19 C60.035,3.19 59.69,3.535 59.56,4.04 L58.285,4.04 C58.525,2.855 59.455,2.22 60.85,2.22 C62.325,2.22 63.155,3.015 63.155,4.27 L63.155,6.85 C63.155,7.195 63.34,7.35 63.615,7.35 C63.6717058,7.35316385 63.7285781,7.35149114 63.785,7.345 L63.785,7.345 Z M61.99,6.17 L61.99,5.515 L60.365,5.595 C59.695,5.63 59.34,5.905 59.34,6.435 C59.34,7.045 59.73,7.435 60.505,7.435 C61.28,7.435 61.99,6.99 61.99,6.17 L61.99,6.17 Z" id="Shape"></path>
                        <polygon id="Path" points="64.47 8.245 64.47 0.135 65.665 0.135 65.665 8.245"></polygon>
                        <path d="M67.34,6.745 L67.34,3.375 L66.34,3.375 L66.34,2.375 L67.34,2.375 L67.34,1.025 L68.515,0.285 L68.515,2.37 L69.815,2.37 L69.815,3.37 L68.515,3.37 L68.515,6.43 C68.515,7.02 68.765,7.235 69.24,7.235 C69.4628116,7.23521989 69.685252,7.21682256 69.905,7.18 L69.905,8.18 C69.5902925,8.28257483 69.2609863,8.33323732 68.93,8.33 C68.4980766,8.37038557 68.0705623,8.21660559 67.7633315,7.91034094 C67.4561007,7.60407629 67.300975,7.17704842 67.34,6.745 L67.34,6.745 Z" id="Path"></path>
                        <path d="M70.63,8.245 L70.63,0.135 L71.84,0.135 L71.84,3.305 C72.279811,2.60240902 73.0617002,2.18857984 73.89,2.22 C74.96,2.22 75.89,2.925 75.89,4.385 L75.89,8.245 L74.69,8.245 L74.69,4.685 C74.7260655,4.30955905 74.5953656,3.93723059 74.3325453,3.66670863 C74.0697251,3.39618667 73.7013258,3.25479037 73.325,3.28 C72.585,3.28 71.825,3.78 71.825,4.95 L71.825,8.245 L70.63,8.245 Z" id="Path"></path>
                    </g>
                    <g id="Bank" transform="translate(38.625000, 16.830000)" fill="#1E1E1E" fill-rule="nonzero">
                        <path d="M6.095,5.795 C6.095,7.295 5.095,8.11 3.375,8.11 L1.21680443e-13,8.11 L1.21680443e-13,8.8817842e-16 L3.5,8.8817842e-16 C4.95,8.8817842e-16 5.875,0.795 5.875,2.1 C5.91025273,2.86990406 5.46954713,3.58257664 4.765,3.895 C5.57977592,4.1644536 6.12070516,4.93720965 6.095,5.795 L6.095,5.795 Z M1.2,1.06 L1.2,3.455 L3.26,3.455 C4.16,3.455 4.655,3.055 4.655,2.26 C4.655,1.465 4.155,1.06 3.26,1.06 L1.2,1.06 Z M3.42,7.06 C4.365,7.06 4.885,6.62 4.885,5.795 C4.885,4.97 4.385,4.525 3.42,4.525 L1.2,4.525 L1.2,7.06 L3.42,7.06 Z" id="Shape"></path>
                        <path d="M12.255,7.21 L12.255,8.13 C12.0731818,8.17280833 11.8867663,8.19296135 11.7,8.19 C11.1698241,8.24776954 10.6745837,7.91690678 10.525,7.405 C10.0839085,7.97647449 9.39101333,8.29584125 8.67,8.26 C8.1388501,8.31165252 7.6110181,8.13329582 7.22006098,7.77005937 C6.82910385,7.40682292 6.61247941,6.8935086 6.625,6.36 C6.625,5.23 7.51,4.62 8.625,4.575 L10.455,4.505 L10.455,4.215 C10.4950751,3.89492344 10.3843574,3.57436985 10.1552851,3.3472555 C9.92621291,3.12014115 9.60472079,3.01217901 9.285,3.055 C8.475,3.055 8.13,3.4 8.005,3.905 L6.725,3.905 C6.97,2.72 7.9,2.085 9.295,2.085 C10.795,2.085 11.595,2.88 11.595,4.135 L11.595,6.715 C11.595,7.06 11.78,7.215 12.06,7.215 C12.1250407,7.21738975 12.1901672,7.21571984 12.255,7.21 Z M10.455,6.035 L10.455,5.38 L8.835,5.46 C8.165,5.495 7.835,5.77 7.835,6.3 C7.835,6.91 8.225,7.3 8.995,7.3 C9.765,7.3 10.455,6.855 10.455,6.035 L10.455,6.035 Z" id="Shape"></path>
                        <path d="M17.915,4.25 L17.915,8.11 L16.72,8.11 L16.72,4.55 C16.72,3.55 16.22,3.145 15.545,3.145 C14.87,3.145 14.045,3.645 14.045,4.815 L14.045,8.11 L12.875,8.11 L12.875,2.235 L14.07,2.235 L14.07,3.17 C14.4250019,2.47863475 15.1483767,2.05552871 15.925,2.085 C16.995,2.085 17.915,2.79 17.915,4.25 Z" id="Path"></path>
                        <polygon id="Path" points="23.875 2.235 21.375 5.08 23.875 8.11 22.375 8.11 20.06 5.255 20.06 8.11 18.86 8.11 18.86 8.8817842e-16 20.06 8.8817842e-16 20.06 5 22.445 2.225"></polygon>
                    </g>
                    <g id="04-Honeycomb-Foundation/logo*/CBA/CBAdiamond64">
                        <rect id="bounding-box" fill="#D8D8D8" opacity="0" x="0" y="0" width="32" height="32"></rect>
                        <g id="CommBank-Logo" fill-rule="nonzero">
                            <polyline id="Path" fill="url(#linearGradient-1)" points="16 0 32 16 16 32 0 16 16 0"></polyline>
                            <polygon id="Path" fill="url(#linearGradient-2)" points="22.075 17.62 16 32 16 32 32 16 27.845 11.84"></polygon>
                        </g>
                    </g>
                </g>
            </g>
        </g>
    </g>
</svg>