<?xml version="1.0" standalone="no"?>
<!DOCTYPE svg PUBLIC "-//W3C//DTD SVG 1.1//EN" "http://www.w3.org/Graphics/SVG/1.1/DTD/svg11.dtd" >
<svg xmlns="http://www.w3.org/2000/svg">
<metadata>
CBA Sans is a licensed version of FS Silas Sans Copyright (c) 2015 by Fontsmith Ltd for Commonwealth Bank of Australia. All rights reserved. This font may not be altered in any way without prior permission of Fontsmith Ltd.
</metadata>
<defs>
<font id="CBASansWeb-Light" horiz-adv-x="0" >
  <font-face 
    font-family="CBA Sans Web Light"
    font-weight="300"
    font-stretch="normal"
    units-per-em="1000"
    panose-1="2 6 5 3 6 4 2 3 4 3"
    ascent="800"
    descent="-200"
    x-height="522"
    cap-height="744"
    bbox="-385 -280 1087 1184"
    underline-thickness="55"
    underline-position="-54"
    unicode-range="U+000D-FB04"
  />
<missing-glyph horiz-adv-x="584" 
d="M25 748h534v-748h-534v748zM474 696h-364l182 -274zM260 375l-181 272v-545zM506 647l-182 -272l182 -273v545zM474 54l-182 272l-182 -272h364z" />
    <glyph glyph-name="f_f.liga" unicode="ff" horiz-adv-x="617" 
d="M110 470h-92v52h92v80q0 177 162 177q23 0 42 -4l11 -55q-20 5 -52 5q-100 0 -100 -128v-75h237v80q0 177 159 177q29 0 69 -10l8 -55q-41 11 -74 11q-50 0 -74.5 -31.5t-24.5 -96.5v-75h143l-8 -52h-135v-470h-63v470h-237v-470h-63v470z" />
    <glyph glyph-name="f_f_i.liga" unicode="ffi" horiz-adv-x="862" 
d="M110 470h-92v52h92v80q0 177 162 177q23 0 42 -4l11 -55q-23 5 -52 5q-100 0 -100 -128v-75h237v71q0 186 201 186q44 0 117 -13l8 -56q-77 15 -125 15q-138 0 -138 -135v-68h300v-522h-63v470h-237v-470h-63v470h-237v-470h-63v470z" />
    <glyph glyph-name="f_f_l.liga" unicode="ffl" horiz-adv-x="861" 
d="M110 470h-92v52h92v80q0 177 162 177q23 0 42 -4l11 -55q-20 5 -52 5q-100 0 -100 -128v-75h237v68q0 189 183 189q72 0 127 -21l53 12v-770h-63v703q-55 22 -115 22q-122 0 -122 -144v-59h143l-8 -52h-135v-470h-63v470h-237v-470h-63v470z" />
    <glyph glyph-name="f_f_t.liga" unicode="fft" horiz-adv-x="922" 
d="M717.5 21q-28.5 32 -28.5 108v341h-216v-470h-63v470h-237v-470h-63v470h-92v52h92v80q0 177 162 177q23 0 42 -4l11 -55q-23 5 -52 5q-100 0 -100 -128v-75h237v80q0 177 159 177q27 0 48 -5l7 -55q-28 6 -52 6q-50 0 -74.5 -31.5t-24.5 -96.5v-75h217l12 128l50 4v-132
h142l-7 -52h-135v-340q0 -47 15.5 -67t52.5 -20q44 0 77 8l-8 -54q-35 -8 -75 -8q-68 0 -96.5 32z" />
    <glyph glyph-name="f_imacron.liga" unicode="f&#x12b;" horiz-adv-x="600" 
d="M110 470h-92v52h92v90q0 86 38.5 126.5t120.5 40.5q29 0 69 -10l7 -55q-42 11 -73 11q-51 0 -75 -28.5t-24 -88.5v-86h142l-7 -52h-135v-470h-63v470zM388 698h193l-10 -55h-183v55zM448 522h63v-522h-63v522z" />
    <glyph glyph-name="f_lcaron.liga" unicode="f&#x13e;" horiz-adv-x="640" 
d="M110 470h-92v52h92v68q0 189 183 189q72 0 127 -21l53 12v-770h-63v703q-55 22 -115 22q-122 0 -122 -144v-59h132l-7 -52h-125v-470h-63v470zM545 566q32 47 33 108h-34v90h86v-49q0 -54 -12.5 -96.5t-39.5 -78.5z" />
    <glyph glyph-name="f_t.liga" unicode="ft" horiz-adv-x="622" 
d="M417.5 21q-28.5 32 -28.5 108v341h-216v-470h-63v470h-92v52h92v80q0 177 159 177q27 0 47 -5l8 -55q-30 6 -52 6q-50 0 -74.5 -31.5t-24.5 -96.5v-75h217l12 128l49 4v-132h143l-7 -52h-136v-340q0 -47 15.5 -67t52.5 -20q45 0 78 8l-9 -54q-33 -8 -74 -8
q-68 0 -96.5 32z" />
    <glyph glyph-name="fi" unicode="fi" horiz-adv-x="562" 
d="M110 470h-92v52h92v60q0 99 50 148t151 49q46 0 117 -13l8 -56q-78 15 -125 15q-70 0 -104 -36t-34 -110v-57h300v-522h-63v470h-237v-470h-63v470z" />
    <glyph glyph-name="fl" unicode="fl" horiz-adv-x="561" 
d="M110 470h-92v52h92v68q0 189 183 189q72 0 127 -21l53 12v-770h-63v703q-55 22 -115 22q-122 0 -122 -144v-59h132l-7 -52h-125v-470h-63v470z" />
    <glyph glyph-name="t_t.liga" unicode="tt" horiz-adv-x="641" 
d="M131.5 21q-28.5 32 -28.5 108v341h-89v52h90l12 128l50 4v-132h243l12 128l49 4v-132h143l-7 -52h-136v-340q0 -47 15.5 -67t52.5 -20q45 0 78 8l-9 -54q-33 -8 -74 -8q-68 0 -96.5 32t-28.5 108v341h-242v-340q0 -47 15.5 -67t52.5 -20q45 0 78 8l-9 -54q-35 -8 -75 -8
q-68 0 -96.5 32z" />
    <glyph glyph-name=".notdef" horiz-adv-x="584" 
d="M25 748h534v-748h-534v748zM474 696h-364l182 -274zM260 375l-181 272v-545zM506 647l-182 -272l182 -273v545zM474 54l-182 272l-182 -272h364z" />
    <glyph glyph-name=".null" 
 />
    <glyph glyph-name="nonmarkingreturn" unicode="&#xd;" horiz-adv-x="260" 
 />
    <glyph glyph-name="space" unicode=" " horiz-adv-x="260" 
 />
    <glyph glyph-name="A" unicode="A" horiz-adv-x="633" 
d="M35 11l236 733h86l241 -733v-11h-66l-58 181h-318l-56 -181h-65v11zM456 238l-66 212q-56 179 -73 243h-4q-21 -73 -73 -243l-65 -212h281z" />
    <glyph glyph-name="Aacute" unicode="&#xc1;" horiz-adv-x="633" 
d="M35 11l236 733h86l241 -733v-11h-66l-58 181h-318l-56 -181h-65v11zM456 238l-66 212q-56 179 -73 243h-4q-21 -73 -73 -243l-65 -212h281zM228 845l198 135l38 -56l-213 -118z" />
    <glyph glyph-name="Abreve" unicode="&#x102;" horiz-adv-x="633" 
d="M35 11l236 733h86l241 -733v-11h-66l-58 181h-318l-56 -181h-65v11zM456 238l-66 212q-56 179 -73 243h-4q-21 -73 -73 -243l-65 -212h281zM223.5 859.5q-34.5 31.5 -42.5 83.5l49 10q9 -33 29.5 -50t54.5 -17q35 0 55.5 17t29.5 50l49 -10q-8 -52 -43 -83.5t-91 -31.5
t-90.5 31.5z" />
    <glyph glyph-name="uni01CD" unicode="&#x1cd;" horiz-adv-x="633" 
d="M35 11l236 733h86l241 -733v-11h-66l-58 181h-318l-56 -181h-65v11zM456 238l-66 212q-56 179 -73 243h-4q-21 -73 -73 -243l-65 -212h281zM161 956l39 31l114 -119l115 119l39 -31l-133 -150h-41z" />
    <glyph glyph-name="Acircumflex" unicode="&#xc2;" horiz-adv-x="633" 
d="M35 11l236 733h86l241 -733v-11h-66l-58 181h-318l-56 -181h-65v11zM456 238l-66 212q-56 179 -73 243h-4q-21 -73 -73 -243l-65 -212h281zM161 829l133 151h41l133 -151l-39 -31l-115 119l-114 -119z" />
    <glyph glyph-name="Adieresis" unicode="&#xc4;" horiz-adv-x="633" 
d="M35 11l236 733h86l241 -733v-11h-66l-58 181h-318l-56 -181h-65v11zM456 238l-66 212q-56 179 -73 243h-4q-21 -73 -73 -243l-65 -212h281zM170 923h75v-91h-75v91zM383 923h75v-91h-75v91z" />
    <glyph glyph-name="Agrave" unicode="&#xc0;" horiz-adv-x="633" 
d="M35 11l236 733h86l241 -733v-11h-66l-58 181h-318l-56 -181h-65v11zM456 238l-66 212q-56 179 -73 243h-4q-21 -73 -73 -243l-65 -212h281zM172 924l38 56l198 -134l-23 -40z" />
    <glyph glyph-name="Amacron" unicode="&#x100;" horiz-adv-x="633" 
d="M35 11l236 733h86l241 -733v-11h-66l-58 181h-318l-56 -181h-65v11zM456 238l-66 212q-56 179 -73 243h-4q-21 -73 -73 -243l-65 -212h281zM175 923h287l-10 -55h-277v55z" />
    <glyph glyph-name="Aogonek" unicode="&#x104;" horiz-adv-x="633" 
d="M494.5 -195.5q-27.5 25.5 -27.5 68.5q0 38 16.5 67t48.5 60l-58 181h-318l-56 -181h-65v11l236 733h86l241 -733v-11q-37 -27 -56 -58t-19 -61t16.5 -45t47.5 -15q28 0 67 12l-6 -40q-16 -6 -37.5 -10t-40.5 -4q-48 0 -75.5 25.5zM456 238l-66 212q-56 179 -73 243h-4
q-21 -73 -73 -243l-65 -212h281z" />
    <glyph glyph-name="Aring" unicode="&#xc5;" horiz-adv-x="633" 
d="M35 11l236 733h86l241 -733v-11h-66l-58 181h-318l-56 -181h-65v11zM456 238l-66 212q-56 179 -73 243h-4q-21 -73 -73 -243l-65 -212h281zM243 827q-27 27 -27 67q0 41 27 68t71 27t71 -27t27 -68q0 -40 -27 -67t-71 -27t-71 27zM350 855.5q14 15.5 14 38.5q0 25 -14 40
t-36 15t-36 -15t-14 -40q0 -23 14 -38.5t36 -15.5t36 15.5z" />
    <glyph glyph-name="Aringacute" unicode="&#x1fa;" horiz-adv-x="633" 
d="M35 11l236 733h86l241 -733v-11h-66l-58 181h-318l-56 -181h-65v11zM456 238l-66 212q-56 179 -73 243h-4q-21 -73 -73 -243l-65 -212h281zM243 827q-27 27 -27 67q0 41 27 68t71 27t71 -27t27 -68q0 -40 -27 -67t-71 -27t-71 27zM350 855.5q14 15.5 14 38.5q0 25 -14 40
t-36 15t-36 -15t-14 -40q0 -23 14 -38.5t36 -15.5t36 15.5zM233 1049l198 135l38 -55l-213 -119z" />
    <glyph glyph-name="Atilde" unicode="&#xc3;" horiz-adv-x="633" 
d="M35 11l236 733h86l241 -733v-11h-66l-58 181h-318l-56 -181h-65v11zM456 238l-66 212q-56 179 -73 243h-4q-21 -73 -73 -243l-65 -212h281zM346 842.5q-19 8.5 -43 24.5q-21 13 -35.5 20t-28.5 7q-19 0 -32.5 -11t-28.5 -37l-32 20q19 45 41 66.5t56 21.5q22 0 41 -9
t42 -25q21 -13 35.5 -20t28.5 -7q19 0 32.5 11.5t28.5 37.5l32 -21q-19 -43 -41.5 -65t-55.5 -22q-21 0 -40 8.5z" />
    <glyph glyph-name="AE" unicode="&#xc6;" horiz-adv-x="955" 
d="M15 11l460 733h418l-10 -58h-314v-279h247v-56h-247v-293h328l-9 -58h-385v176h-311l-109 -176h-68v11zM503 230v444l-277 -444h277z" />
    <glyph glyph-name="AEacute" unicode="&#x1fc;" horiz-adv-x="955" 
d="M15 11l460 733h418l-10 -58h-314v-279h247v-56h-247v-293h328l-9 -58h-385v176h-311l-109 -176h-68v11zM503 230v444l-277 -444h277zM617 845l198 135l38 -56l-213 -118z" />
    <glyph glyph-name="B" unicode="B" horiz-adv-x="633" 
d="M97 744h197q69 0 117 -11.5t78 -38.5q25 -22 37 -54t12 -83q0 -63 -21.5 -99.5t-73.5 -58.5v-5q71 -13 103.5 -57t32.5 -125q0 -54 -13 -91.5t-40 -62.5q-32 -30 -89 -44t-142 -14h-198v744zM298 416q52 0 84 10t54 31q19 19 26.5 41.5t7.5 58.5q0 31 -6 52.5t-22 37.5
q-21 21 -57 30t-97 9h-125v-270h135zM289 58q69 0 115 10t71 35q36 34 36 109q0 72 -31 104q-22 23 -64.5 32t-114.5 9h-138v-299h126z" />
    <glyph glyph-name="C" unicode="C" horiz-adv-x="621" 
d="M206.5 29.5q-66.5 40.5 -98 125t-31.5 220.5q0 135 31.5 219t97.5 123.5t172 39.5q78 0 158 -19l10 -61q-100 22 -170 22q-83 0 -133 -33t-73.5 -103.5t-23.5 -187.5q0 -118 23.5 -189.5t75 -104.5t135.5 -33q44 0 84 6t90 21l-8 -61q-91 -25 -167 -25
q-106 0 -172.5 40.5z" />
    <glyph glyph-name="Cacute" unicode="&#x106;" horiz-adv-x="621" 
d="M206.5 29.5q-66.5 40.5 -98 125t-31.5 220.5q0 135 31.5 219t97.5 123.5t172 39.5q78 0 158 -19l10 -61q-100 22 -170 22q-83 0 -133 -33t-73.5 -103.5t-23.5 -187.5q0 -118 23.5 -189.5t75 -104.5t135.5 -33q44 0 84 6t90 21l-8 -61q-91 -25 -167 -25
q-106 0 -172.5 40.5zM292 845l198 135l38 -56l-213 -118z" />
    <glyph glyph-name="Cacute.loclPLK" horiz-adv-x="621" 
d="M206.5 29.5q-66.5 40.5 -98 125t-31.5 220.5q0 135 31.5 219t97.5 123.5t172 39.5q78 0 158 -19l10 -61q-100 22 -170 22q-83 0 -133 -33t-73.5 -103.5t-23.5 -187.5q0 -118 23.5 -189.5t75 -104.5t135.5 -33q44 0 84 6t90 21l-8 -61q-91 -25 -167 -25
q-106 0 -172.5 40.5zM336 822l88 185l61 -29l-109 -178z" />
    <glyph glyph-name="Ccaron" unicode="&#x10c;" horiz-adv-x="621" 
d="M206.5 29.5q-66.5 40.5 -98 125t-31.5 220.5q0 135 31.5 219t97.5 123.5t172 39.5q78 0 158 -19l10 -61q-100 22 -170 22q-83 0 -133 -33t-73.5 -103.5t-23.5 -187.5q0 -118 23.5 -189.5t75 -104.5t135.5 -33q44 0 84 6t90 21l-8 -61q-91 -25 -167 -25
q-106 0 -172.5 40.5zM225 956l39 31l114 -119l115 119l39 -31l-133 -150h-41z" />
    <glyph glyph-name="Ccedilla" unicode="&#xc7;" horiz-adv-x="621" 
d="M352 -10l-7 -45q22 2 32 2q46 0 70.5 -20t24.5 -61q0 -44 -29 -68t-81 -24q-33 0 -73 11l-4 39q37 -8 71 -8q33 0 49.5 11.5t16.5 37.5q0 23 -15.5 33.5t-50.5 10.5q-31 0 -61 -4l13 89q-120 19 -175.5 111t-55.5 270q0 135 31.5 219t97.5 123.5t172 39.5q78 0 158 -19
l10 -61q-100 22 -170 22q-83 0 -133 -33t-73.5 -103.5t-23.5 -187.5q0 -118 23.5 -189.5t75 -104.5t135.5 -33q44 0 84 6t90 21l-8 -61q-91 -25 -167 -25q-18 0 -27 1z" />
    <glyph glyph-name="Ccircumflex" unicode="&#x108;" horiz-adv-x="621" 
d="M206.5 29.5q-66.5 40.5 -98 125t-31.5 220.5q0 135 31.5 219t97.5 123.5t172 39.5q78 0 158 -19l10 -61q-100 22 -170 22q-83 0 -133 -33t-73.5 -103.5t-23.5 -187.5q0 -118 23.5 -189.5t75 -104.5t135.5 -33q44 0 84 6t90 21l-8 -61q-91 -25 -167 -25
q-106 0 -172.5 40.5zM225 829l133 151h41l133 -151l-39 -31l-115 119l-114 -119z" />
    <glyph glyph-name="Cdotaccent" unicode="&#x10a;" horiz-adv-x="621" 
d="M206.5 29.5q-66.5 40.5 -98 125t-31.5 220.5q0 135 31.5 219t97.5 123.5t172 39.5q78 0 158 -19l10 -61q-100 22 -170 22q-83 0 -133 -33t-73.5 -103.5t-23.5 -187.5q0 -118 23.5 -189.5t75 -104.5t135.5 -33q44 0 84 6t90 21l-8 -61q-91 -25 -167 -25
q-106 0 -172.5 40.5zM340 923h75v-91h-75v91z" />
    <glyph glyph-name="D" unicode="D" horiz-adv-x="719" 
d="M97 744h194q81 0 137 -13.5t99 -44.5q60 -43 87.5 -118t27.5 -198q0 -109 -20.5 -178.5t-65.5 -113.5q-41 -41 -106 -59.5t-167 -18.5h-186v744zM286 58q86 0 139 16t85 49q33 36 47.5 94t14.5 151q0 101 -17.5 163t-56.5 98q-33 30 -82 43.5t-124 13.5h-129v-628h123z
" />
    <glyph glyph-name="Eth" unicode="&#xd0;" horiz-adv-x="755" 
d="M133 348h-90v55h90v341h194q81 0 137 -13.5t99 -44.5q60 -43 87.5 -118t27.5 -198q0 -109 -20.5 -178.5t-65.5 -113.5q-41 -41 -106 -59.5t-167 -18.5h-186v348zM322 58q86 0 139 16t85 49q33 36 48 94t15 151q0 101 -18 163t-57 98q-33 30 -82 43.5t-124 13.5h-129v-283
h167v-55h-167v-290h123z" />
    <glyph glyph-name="Dcaron" unicode="&#x10e;" horiz-adv-x="719" 
d="M97 744h194q81 0 137 -13.5t99 -44.5q60 -43 87.5 -118t27.5 -198q0 -109 -20.5 -178.5t-65.5 -113.5q-41 -41 -106 -59.5t-167 -18.5h-186v744zM286 58q86 0 139 16t85 49q33 36 47.5 94t14.5 151q0 101 -17.5 163t-56.5 98q-33 30 -82 43.5t-124 13.5h-129v-628h123z
M197 956l39 31l114 -119l115 119l39 -31l-133 -150h-41z" />
    <glyph glyph-name="Dcroat" unicode="&#x110;" horiz-adv-x="755" 
d="M133 348h-90v55h90v341h194q81 0 137 -13.5t99 -44.5q60 -43 87.5 -118t27.5 -198q0 -109 -20.5 -178.5t-65.5 -113.5q-41 -41 -106 -59.5t-167 -18.5h-186v348zM322 58q86 0 139 16t85 49q33 36 48 94t15 151q0 101 -18 163t-57 98q-33 30 -82 43.5t-124 13.5h-129v-283
h167v-55h-167v-290h123z" />
    <glyph glyph-name="E" unicode="E" horiz-adv-x="549" 
d="M97 744h390l-10 -58h-314v-279h247v-56h-247v-293h328l-9 -58h-385v744z" />
    <glyph glyph-name="Eacute" unicode="&#xc9;" horiz-adv-x="549" 
d="M97 744h390l-10 -58h-314v-279h247v-56h-247v-293h328l-9 -58h-385v744zM209 845l198 135l38 -56l-213 -118z" />
    <glyph glyph-name="Ebreve" unicode="&#x114;" horiz-adv-x="549" 
d="M97 744h390l-10 -58h-314v-279h247v-56h-247v-293h328l-9 -58h-385v744zM204.5 859.5q-34.5 31.5 -42.5 83.5l49 10q9 -33 29.5 -50t54.5 -17q35 0 55.5 17t29.5 50l49 -10q-8 -52 -43 -83.5t-91 -31.5t-90.5 31.5z" />
    <glyph glyph-name="Ecaron" unicode="&#x11a;" horiz-adv-x="549" 
d="M97 744h390l-10 -58h-314v-279h247v-56h-247v-293h328l-9 -58h-385v744zM142 956l39 31l114 -119l115 119l39 -31l-133 -150h-41z" />
    <glyph glyph-name="Ecircumflex" unicode="&#xca;" horiz-adv-x="549" 
d="M97 744h390l-10 -58h-314v-279h247v-56h-247v-293h328l-9 -58h-385v744zM142 829l133 151h41l133 -151l-39 -31l-115 119l-114 -119z" />
    <glyph glyph-name="Edieresis" unicode="&#xcb;" horiz-adv-x="549" 
d="M97 744h390l-10 -58h-314v-279h247v-56h-247v-293h328l-9 -58h-385v744zM151 923h75v-91h-75v91zM364 923h75v-91h-75v91z" />
    <glyph glyph-name="Edotaccent" unicode="&#x116;" horiz-adv-x="549" 
d="M97 744h390l-10 -58h-314v-279h247v-56h-247v-293h328l-9 -58h-385v744zM257 923h75v-91h-75v91z" />
    <glyph glyph-name="Egrave" unicode="&#xc8;" horiz-adv-x="549" 
d="M97 744h390l-10 -58h-314v-279h247v-56h-247v-293h328l-9 -58h-385v744zM153 924l38 56l198 -134l-23 -40z" />
    <glyph glyph-name="Emacron" unicode="&#x112;" horiz-adv-x="549" 
d="M97 744h390l-10 -58h-314v-279h247v-56h-247v-293h328l-9 -58h-385v744zM156 923h287l-10 -55h-277v55z" />
    <glyph glyph-name="Eogonek" unicode="&#x118;" horiz-adv-x="549" 
d="M378.5 -195.5q-27.5 25.5 -27.5 68.5q0 39 23.5 72t60.5 55h-338v744h390l-10 -58h-314v-279h247v-56h-247v-293h328l-9 -58q-37 -27 -56 -58t-19 -61t16.5 -45t47.5 -15q28 0 67 12l-7 -40q-15 -6 -37 -10t-40 -4q-48 0 -75.5 25.5z" />
    <glyph glyph-name="F" unicode="F" horiz-adv-x="534" 
d="M97 744h390l-10 -58h-314v-279h252v-56h-252v-351h-66v744z" />
    <glyph glyph-name="G" unicode="G" horiz-adv-x="716" 
d="M149 80.5q-72 91.5 -72 285.5q0 201 78.5 296t244.5 95q97 0 191 -27l9 -63q-99 33 -197 33q-132 0 -194.5 -81t-62.5 -253q0 -164 55 -242t171 -78q111 0 188 57v230h-143l-8 58h216v-391h-43l-18 41q-42 -27 -88 -39.5t-102 -12.5q-153 0 -225 91.5z" />
    <glyph glyph-name="Gbreve" unicode="&#x11e;" horiz-adv-x="716" 
d="M149 80.5q-72 91.5 -72 285.5q0 201 78.5 296t244.5 95q97 0 191 -27l9 -63q-99 33 -197 33q-132 0 -194.5 -81t-62.5 -253q0 -164 55 -242t171 -78q111 0 188 57v230h-143l-8 58h216v-391h-43l-18 41q-42 -27 -88 -39.5t-102 -12.5q-153 0 -225 91.5zM309.5 859.5
q-34.5 31.5 -42.5 83.5l49 10q9 -33 29.5 -50t54.5 -17q35 0 55.5 17t29.5 50l49 -10q-8 -52 -43 -83.5t-91 -31.5t-90.5 31.5z" />
    <glyph glyph-name="Gcircumflex" unicode="&#x11c;" horiz-adv-x="716" 
d="M149 80.5q-72 91.5 -72 285.5q0 201 78.5 296t244.5 95q97 0 191 -27l9 -63q-99 33 -197 33q-132 0 -194.5 -81t-62.5 -253q0 -164 55 -242t171 -78q111 0 188 57v230h-143l-8 58h216v-391h-43l-18 41q-42 -27 -88 -39.5t-102 -12.5q-153 0 -225 91.5zM247 829l133 151
h41l133 -151l-39 -31l-115 119l-114 -119z" />
    <glyph glyph-name="Gcommaaccent" unicode="&#x122;" horiz-adv-x="716" 
d="M149 80.5q-72 91.5 -72 285.5q0 201 78.5 296t244.5 95q97 0 191 -27l9 -63q-99 33 -197 33q-132 0 -194.5 -81t-62.5 -253q0 -164 55 -242t171 -78q111 0 188 57v230h-143l-8 58h216v-391h-43l-18 41q-42 -27 -88 -39.5t-102 -12.5q-153 0 -225 91.5zM344 -254
q31 46 32 108h-33v90h85v-49q0 -54 -12.5 -96.5t-39.5 -78.5z" />
    <glyph glyph-name="Gdotaccent" unicode="&#x120;" horiz-adv-x="716" 
d="M149 80.5q-72 91.5 -72 285.5q0 201 78.5 296t244.5 95q97 0 191 -27l9 -63q-99 33 -197 33q-132 0 -194.5 -81t-62.5 -253q0 -164 55 -242t171 -78q111 0 188 57v230h-143l-8 58h216v-391h-43l-18 41q-42 -27 -88 -39.5t-102 -12.5q-153 0 -225 91.5zM362 923h75v-91
h-75v91z" />
    <glyph glyph-name="H" unicode="H" horiz-adv-x="712" 
d="M97 744h66v-336h386v336h66v-744h-66v350h-386v-350h-66v744z" />
    <glyph glyph-name="Hbar" unicode="&#x126;" horiz-adv-x="768" 
d="M125 550h-100v55h100v139h66v-139h386v139h66v-139h100v-55h-100v-550h-66v350h-386v-350h-66v550zM577 408v142h-386v-142h386z" />
    <glyph glyph-name="Hcircumflex" unicode="&#x124;" horiz-adv-x="712" 
d="M97 744h66v-336h386v336h66v-744h-66v350h-386v-350h-66v744zM203 829l133 151h41l133 -151l-39 -31l-115 119l-114 -119z" />
    <glyph glyph-name="I" unicode="I" horiz-adv-x="290" 
d="M112 744h66v-744h-66v744z" />
    <glyph glyph-name="IJ" unicode="&#x132;" horiz-adv-x="702" 
d="M112 744h66v-744h-66v744zM384 -6q-33 5 -56 12l-10 59q66 -20 124 -20q56 0 81.5 31.5t25.5 101.5v566h66v-569q0 -98 -40 -142t-132 -44q-26 0 -59 5z" />
    <glyph glyph-name="Iacute" unicode="&#xcd;" horiz-adv-x="290" 
d="M112 744h66v-744h-66v744zM59 845l198 135l38 -56l-213 -118z" />
    <glyph glyph-name="Ibreve" unicode="&#x12c;" horiz-adv-x="290" 
d="M112 744h66v-744h-66v744zM54.5 859.5q-34.5 31.5 -42.5 83.5l49 10q9 -33 29.5 -50t54.5 -17q35 0 55.5 17t29.5 50l49 -10q-8 -52 -43 -83.5t-91 -31.5t-90.5 31.5z" />
    <glyph glyph-name="Icircumflex" unicode="&#xce;" horiz-adv-x="290" 
d="M112 744h66v-744h-66v744zM-8 829l133 151h41l133 -151l-39 -31l-115 119l-114 -119z" />
    <glyph glyph-name="Idieresis" unicode="&#xcf;" horiz-adv-x="290" 
d="M112 744h66v-744h-66v744zM1 923h75v-91h-75v91zM214 923h75v-91h-75v91z" />
    <glyph glyph-name="Idotaccent" unicode="&#x130;" horiz-adv-x="290" 
d="M112 744h66v-744h-66v744zM107 923h75v-91h-75v91z" />
    <glyph glyph-name="Igrave" unicode="&#xcc;" horiz-adv-x="290" 
d="M112 744h66v-744h-66v744zM3 924l38 56l198 -134l-23 -40z" />
    <glyph glyph-name="Imacron" unicode="&#x12a;" horiz-adv-x="290" 
d="M112 744h66v-744h-66v744zM6 923h287l-10 -55h-277v55z" />
    <glyph glyph-name="Iogonek" unicode="&#x12e;" horiz-adv-x="290" 
d="M74.5 -195.5q-27.5 25.5 -27.5 70.5q0 35 17.5 68t47.5 57v744h66v-744q-37 -27 -55.5 -58t-18.5 -62q0 -59 63 -59q29 0 67 12l-6 -40q-16 -6 -38 -10t-41 -4q-47 0 -74.5 25.5z" />
    <glyph glyph-name="Itilde" unicode="&#x128;" horiz-adv-x="290" 
d="M112 744h66v-744h-66v744zM177 842.5q-19 8.5 -43 24.5q-21 13 -35.5 20t-28.5 7q-19 0 -32.5 -11t-28.5 -37l-32 20q19 45 41 66.5t56 21.5q22 0 41 -9t42 -25q21 -13 35.5 -20t28.5 -7q19 0 32.5 11.5t28.5 37.5l32 -21q-19 -43 -41.5 -65t-55.5 -22q-21 0 -40 8.5z
" />
    <glyph glyph-name="J" unicode="J" horiz-adv-x="412" 
d="M94 -6q-33 5 -56 12l-10 59q66 -20 124 -20q56 0 81.5 31.5t25.5 101.5v566h66v-569q0 -98 -40 -142t-132 -44q-26 0 -59 5z" />
    <glyph glyph-name="Jacute" horiz-adv-x="412" 
d="M94 -6q-33 5 -56 12l-10 59q66 -20 124 -20q56 0 81.5 31.5t25.5 101.5v566h66v-569q0 -98 -40 -142t-132 -44q-26 0 -59 5zM207 845l198 135l38 -56l-213 -118z" />
    <glyph glyph-name="Jcircumflex" unicode="&#x134;" horiz-adv-x="412" 
d="M94 -6q-33 5 -56 12l-10 59q66 -20 124 -20q56 0 81.5 31.5t25.5 101.5v566h66v-569q0 -98 -40 -142t-132 -44q-26 0 -59 5zM140 829l133 151h41l133 -151l-39 -31l-115 119l-114 -119z" />
    <glyph glyph-name="K" unicode="K" horiz-adv-x="635" 
d="M97 744h66v-412l358 410l44 -40l-249 -283l266 -408v-11h-71l-238 369l-110 -125v-244h-66v744z" />
    <glyph glyph-name="Kcommaaccent" unicode="&#x136;" horiz-adv-x="635" 
d="M97 744h66v-412l358 410l44 -40l-249 -283l266 -408v-11h-71l-238 369l-110 -125v-244h-66v744zM294 -254q31 46 32 108h-33v90h85v-49q0 -54 -12.5 -96.5t-39.5 -78.5z" />
    <glyph glyph-name="L" unicode="L" horiz-adv-x="538" 
d="M97 744h66v-686h317l-10 -58h-373v744z" />
    <glyph glyph-name="Lacute" unicode="&#x139;" horiz-adv-x="538" 
d="M97 744h66v-686h317l-10 -58h-373v744zM44 845l198 135l38 -56l-213 -118z" />
    <glyph glyph-name="Lcaron" unicode="&#x13d;" horiz-adv-x="538" 
d="M97 744h66v-686h317l-10 -58h-373v744zM331 540q31 46 32 108h-33v90h85v-49q0 -54 -12.5 -96.5t-39.5 -78.5z" />
    <glyph glyph-name="Lcommaaccent" unicode="&#x13b;" horiz-adv-x="538" 
d="M97 744h66v-686h317l-10 -58h-373v744zM249 -254q31 46 32 108h-33v90h85v-49q0 -54 -12.5 -96.5t-39.5 -78.5z" />
    <glyph glyph-name="Ldot" unicode="&#x13f;" horiz-adv-x="538" 
d="M97 744h66v-686h317l-10 -58h-373v744zM341 465h75v-92h-75v92z" />
    <glyph glyph-name="Lslash" unicode="&#x141;" horiz-adv-x="571" 
d="M130 300l-99 -81v69l99 81v375h66v-336l146 119v-69l-146 -119v-281h317l-10 -58h-373v300z" />
    <glyph glyph-name="M" unicode="M" horiz-adv-x="883" 
d="M116 744h70l255 -612h4l249 612h69l33 -744h-65l-24 612h-5l-229 -558h-62l-236 559h-4l-22 -613h-62z" />
    <glyph glyph-name="N" unicode="N" horiz-adv-x="747" 
d="M97 744h66l423 -649h3v649h61v-744h-73l-416 635h-2v-635h-62v744z" />
    <glyph glyph-name="Nacute" unicode="&#x143;" horiz-adv-x="747" 
d="M97 744h66l423 -649h3v649h61v-744h-73l-416 635h-2v-635h-62v744zM288 845l198 135l38 -56l-213 -118z" />
    <glyph glyph-name="Nacute.loclPLK" horiz-adv-x="747" 
d="M97 744h66l423 -649h3v649h61v-744h-73l-416 635h-2v-635h-62v744zM332 822l88 185l61 -29l-109 -178z" />
    <glyph glyph-name="Ncaron" unicode="&#x147;" horiz-adv-x="747" 
d="M97 744h66l423 -649h3v649h61v-744h-73l-416 635h-2v-635h-62v744zM221 956l39 31l114 -119l115 119l39 -31l-133 -150h-41z" />
    <glyph glyph-name="Ncommaaccent" unicode="&#x145;" horiz-adv-x="747" 
d="M97 744h66l423 -649h3v649h61v-744h-73l-416 635h-2v-635h-62v744zM334 -254q31 46 32 108h-33v90h85v-49q0 -54 -12.5 -96.5t-39.5 -78.5z" />
    <glyph glyph-name="Eng" unicode="&#x14a;" horiz-adv-x="747" 
d="M387 -216l-15 59q51 -11 100 -11q63 0 87 32q26 33 26 105v39l-424 627h-2v-635h-62v744h65l424 -627h3v627h61v-774q0 -56 -10.5 -92.5t-32.5 -60.5q-41 -44 -124 -44q-55 0 -96 11z" />
    <glyph glyph-name="Ntilde" unicode="&#xd1;" horiz-adv-x="747" 
d="M97 744h66l423 -649h3v649h61v-744h-73l-416 635h-2v-635h-62v744zM406 842.5q-19 8.5 -43 24.5q-21 13 -35.5 20t-28.5 7q-19 0 -32.5 -11t-28.5 -37l-32 20q19 45 41 66.5t56 21.5q22 0 41 -9t42 -25q21 -13 35.5 -20t28.5 -7q19 0 32.5 11.5t28.5 37.5l32 -21
q-19 -43 -41.5 -65t-55.5 -22q-21 0 -40 8.5z" />
    <glyph glyph-name="O" unicode="O" horiz-adv-x="726" 
d="M145 81q-69 92 -69 292t69 292t218 92t218 -92t69 -292t-69 -292t-218 -92t-218 92zM528.5 126q52.5 78 52.5 247t-52.5 247.5t-165.5 78.5t-165.5 -78.5t-52.5 -247.5t52.5 -247t165.5 -78t165.5 78z" />
    <glyph glyph-name="Oacute" unicode="&#xd3;" horiz-adv-x="726" 
d="M145 81q-69 92 -69 292t69 292t218 92t218 -92t69 -292t-69 -292t-218 -92t-218 92zM528.5 126q52.5 78 52.5 247t-52.5 247.5t-165.5 78.5t-165.5 -78.5t-52.5 -247.5t52.5 -247t165.5 -78t165.5 78zM277 845l198 135l38 -56l-213 -118z" />
    <glyph glyph-name="Oacute.loclPLK" horiz-adv-x="726" 
d="M145 81q-69 92 -69 292t69 292t218 92t218 -92t69 -292t-69 -292t-218 -92t-218 92zM528.5 126q52.5 78 52.5 247t-52.5 247.5t-165.5 78.5t-165.5 -78.5t-52.5 -247.5t52.5 -247t165.5 -78t165.5 78zM321 822l88 185l61 -29l-109 -178z" />
    <glyph glyph-name="Obreve" unicode="&#x14e;" horiz-adv-x="726" 
d="M145 81q-69 92 -69 292t69 292t218 92t218 -92t69 -292t-69 -292t-218 -92t-218 92zM528.5 126q52.5 78 52.5 247t-52.5 247.5t-165.5 78.5t-165.5 -78.5t-52.5 -247.5t52.5 -247t165.5 -78t165.5 78zM272.5 859.5q-34.5 31.5 -42.5 83.5l49 10q9 -33 29.5 -50t54.5 -17
q35 0 55.5 17t29.5 50l49 -10q-8 -52 -43 -83.5t-91 -31.5t-90.5 31.5z" />
    <glyph glyph-name="Ocircumflex" unicode="&#xd4;" horiz-adv-x="726" 
d="M145 81q-69 92 -69 292t69 292t218 92t218 -92t69 -292t-69 -292t-218 -92t-218 92zM528.5 126q52.5 78 52.5 247t-52.5 247.5t-165.5 78.5t-165.5 -78.5t-52.5 -247.5t52.5 -247t165.5 -78t165.5 78zM210 829l133 151h41l133 -151l-39 -31l-115 119l-114 -119z" />
    <glyph glyph-name="Odieresis" unicode="&#xd6;" horiz-adv-x="726" 
d="M145 81q-69 92 -69 292t69 292t218 92t218 -92t69 -292t-69 -292t-218 -92t-218 92zM528.5 126q52.5 78 52.5 247t-52.5 247.5t-165.5 78.5t-165.5 -78.5t-52.5 -247.5t52.5 -247t165.5 -78t165.5 78zM219 923h75v-91h-75v91zM432 923h75v-91h-75v91z" />
    <glyph glyph-name="Ograve" unicode="&#xd2;" horiz-adv-x="726" 
d="M145 81q-69 92 -69 292t69 292t218 92t218 -92t69 -292t-69 -292t-218 -92t-218 92zM528.5 126q52.5 78 52.5 247t-52.5 247.5t-165.5 78.5t-165.5 -78.5t-52.5 -247.5t52.5 -247t165.5 -78t165.5 78zM221 924l38 56l198 -134l-23 -40z" />
    <glyph glyph-name="Ohungarumlaut" unicode="&#x150;" horiz-adv-x="726" 
d="M145 81q-69 92 -69 292t69 292t218 92t218 -92t69 -292t-69 -292t-218 -92t-218 92zM528.5 126q52.5 78 52.5 247t-52.5 247.5t-165.5 78.5t-165.5 -78.5t-52.5 -247.5t52.5 -247t165.5 -78t165.5 78zM193 841l166 144l41 -49l-176 -130zM396 841l165 144l41 -49
l-176 -130z" />
    <glyph glyph-name="Omacron" unicode="&#x14c;" horiz-adv-x="726" 
d="M145 81q-69 92 -69 292t69 292t218 92t218 -92t69 -292t-69 -292t-218 -92t-218 92zM528.5 126q52.5 78 52.5 247t-52.5 247.5t-165.5 78.5t-165.5 -78.5t-52.5 -247.5t52.5 -247t165.5 -78t165.5 78zM224 923h287l-10 -55h-277v55z" />
    <glyph glyph-name="Oslash" unicode="&#xd8;" horiz-adv-x="727" 
d="M77 -23l66 106q-67 94 -67 290q0 199 69.5 291.5t218.5 92.5q107 0 172 -47l51 79l50 -31l-57 -91q71 -92 71 -294q0 -199 -69 -291.5t-218 -92.5q-112 0 -179 51l-58 -94zM501 652q-50 47 -137 47q-114 0 -166.5 -78.5t-52.5 -247.5q0 -147 39 -225zM529.5 126
q52.5 78 52.5 247q0 152 -42 231l-319 -507q52 -49 143 -49q113 0 165.5 78z" />
    <glyph glyph-name="Oslashacute" unicode="&#x1fe;" horiz-adv-x="727" 
d="M77 -23l66 106q-67 94 -67 290q0 199 69.5 291.5t218.5 92.5q107 0 172 -47l51 79l50 -31l-57 -91q71 -92 71 -294q0 -199 -69 -291.5t-218 -92.5q-112 0 -179 51l-58 -94zM501 652q-50 47 -137 47q-114 0 -166.5 -78.5t-52.5 -247.5q0 -147 39 -225zM529.5 126
q52.5 78 52.5 247q0 152 -42 231l-319 -507q52 -49 143 -49q113 0 165.5 78zM279 845l198 135l38 -56l-213 -118z" />
    <glyph glyph-name="Otilde" unicode="&#xd5;" horiz-adv-x="726" 
d="M145 81q-69 92 -69 292t69 292t218 92t218 -92t69 -292t-69 -292t-218 -92t-218 92zM528.5 126q52.5 78 52.5 247t-52.5 247.5t-165.5 78.5t-165.5 -78.5t-52.5 -247.5t52.5 -247t165.5 -78t165.5 78zM395 842.5q-19 8.5 -43 24.5q-21 13 -35.5 20t-28.5 7
q-19 0 -32.5 -11t-28.5 -37l-32 20q19 45 41 66.5t56 21.5q22 0 41 -9t42 -25q21 -13 35.5 -20t28.5 -7q19 0 32.5 11.5t28.5 37.5l32 -21q-19 -43 -41.5 -65t-55.5 -22q-21 0 -40 8.5z" />
    <glyph glyph-name="OE" unicode="&#x152;" horiz-adv-x="964" 
d="M147.5 83.5q-71.5 94.5 -71.5 290.5q0 195 71 289t233 94q30 0 66.5 -3t46.5 -4q68 -6 97 -6h312l-10 -58h-314v-279h247v-56h-247v-293h328l-9 -58h-307q-21 0 -52.5 -2t-46.5 -3q-74 -6 -107 -6q-165 0 -236.5 94.5zM512 54v635q-82 10 -129 10q-86 0 -137.5 -32.5
t-76 -103.5t-24.5 -190q0 -122 25 -192.5t78.5 -101.5t141.5 -31q78 0 122 6z" />
    <glyph glyph-name="P" unicode="P" horiz-adv-x="603" 
d="M97 744h190q94 0 150.5 -24t82 -77t25.5 -141q0 -87 -25.5 -138t-81 -74.5t-149.5 -23.5h-126v-266h-66v744zM298 323q97 0 138 41t41 138q0 101 -42.5 143t-145.5 42h-126v-364h135z" />
    <glyph glyph-name="Thorn" unicode="&#xde;" horiz-adv-x="603" 
d="M97 744h66v-124h124q139 0 198.5 -57.5t59.5 -184.5q0 -84 -25.5 -135.5t-81.5 -76.5t-149 -25h-126v-141h-66v744zM289 199q70 0 110.5 17t59 56t18.5 106q0 70 -18.5 110t-61 57.5t-116.5 17.5h-118v-364h126z" />
    <glyph glyph-name="Q" unicode="Q" horiz-adv-x="726" 
d="M363 -11q-149 0 -218 92t-69 292t69 292t218 92t218 -92t69 -292q0 -168 -48 -259t-150 -115l173 -122l-38 -50zM528.5 126q52.5 78 52.5 247t-52.5 247.5t-165.5 78.5t-165.5 -78.5t-52.5 -247.5t52.5 -247t165.5 -78t165.5 78z" />
    <glyph glyph-name="R" unicode="R" horiz-adv-x="621" 
d="M97 744h200q90 0 143.5 -21.5t78 -68.5t24.5 -126q0 -106 -40 -155.5t-135 -61.5l182 -300v-11h-69l-184 307h-134v-307h-66v744zM289 364q101 0 143 37.5t42 128.5q0 86 -43.5 121.5t-146.5 35.5h-121v-323h126z" />
    <glyph glyph-name="Racute" unicode="&#x154;" horiz-adv-x="621" 
d="M97 744h200q90 0 143.5 -21.5t78 -68.5t24.5 -126q0 -106 -40 -155.5t-135 -61.5l182 -300v-11h-69l-184 307h-134v-307h-66v744zM289 364q101 0 143 37.5t42 128.5q0 86 -43.5 121.5t-146.5 35.5h-121v-323h126zM232 845l198 135l38 -56l-213 -118z" />
    <glyph glyph-name="Rcaron" unicode="&#x158;" horiz-adv-x="621" 
d="M97 744h200q90 0 143.5 -21.5t78 -68.5t24.5 -126q0 -106 -40 -155.5t-135 -61.5l182 -300v-11h-69l-184 307h-134v-307h-66v744zM289 364q101 0 143 37.5t42 128.5q0 86 -43.5 121.5t-146.5 35.5h-121v-323h126zM165 956l39 31l114 -119l115 119l39 -31l-133 -150h-41z
" />
    <glyph glyph-name="Rcommaaccent" unicode="&#x156;" horiz-adv-x="621" 
d="M97 744h200q90 0 143.5 -21.5t78 -68.5t24.5 -126q0 -106 -40 -155.5t-135 -61.5l182 -300v-11h-69l-184 307h-134v-307h-66v744zM289 364q101 0 143 37.5t42 128.5q0 86 -43.5 121.5t-146.5 35.5h-121v-323h126zM276 -254q31 46 32 108h-33v90h85v-49q0 -54 -12.5 -96.5
t-39.5 -78.5z" />
    <glyph glyph-name="S" unicode="S" horiz-adv-x="598" 
d="M185.5 -4q-42.5 7 -86.5 23l-7 64q48 -19 90.5 -27t90.5 -8q92 0 134 36.5t42 117.5q0 58 -30.5 93t-97.5 55l-68 20q-85 26 -123 71.5t-38 120.5q0 97 60 146t175 49q76 0 150 -23l9 -59q-94 24 -160 24q-165 0 -165 -130q0 -56 29.5 -88.5t97.5 -52.5l69 -21
q87 -26 124.5 -73t37.5 -127q0 -114 -57.5 -166t-183.5 -52q-50 0 -92.5 7z" />
    <glyph glyph-name="Sacute" unicode="&#x15a;" horiz-adv-x="598" 
d="M185.5 -4q-42.5 7 -86.5 23l-7 64q48 -19 90.5 -27t90.5 -8q92 0 134 36.5t42 117.5q0 58 -30.5 93t-97.5 55l-68 20q-85 26 -123 71.5t-38 120.5q0 97 60 146t175 49q76 0 150 -23l9 -59q-94 24 -160 24q-165 0 -165 -130q0 -56 29.5 -88.5t97.5 -52.5l69 -21
q87 -26 124.5 -73t37.5 -127q0 -114 -57.5 -166t-183.5 -52q-50 0 -92.5 7zM237 845l198 135l38 -56l-213 -118z" />
    <glyph glyph-name="Sacute.loclPLK" horiz-adv-x="598" 
d="M185.5 -4q-42.5 7 -86.5 23l-7 64q48 -19 90.5 -27t90.5 -8q92 0 134 36.5t42 117.5q0 58 -30.5 93t-97.5 55l-68 20q-85 26 -123 71.5t-38 120.5q0 97 60 146t175 49q76 0 150 -23l9 -59q-94 24 -160 24q-165 0 -165 -130q0 -56 29.5 -88.5t97.5 -52.5l69 -21
q87 -26 124.5 -73t37.5 -127q0 -114 -57.5 -166t-183.5 -52q-50 0 -92.5 7zM281 822l88 185l61 -29l-109 -178z" />
    <glyph glyph-name="Scaron" unicode="&#x160;" horiz-adv-x="598" 
d="M185.5 -4q-42.5 7 -86.5 23l-7 64q48 -19 90.5 -27t90.5 -8q92 0 134 36.5t42 117.5q0 58 -30.5 93t-97.5 55l-68 20q-85 26 -123 71.5t-38 120.5q0 97 60 146t175 49q76 0 150 -23l9 -59q-94 24 -160 24q-165 0 -165 -130q0 -56 29.5 -88.5t97.5 -52.5l69 -21
q87 -26 124.5 -73t37.5 -127q0 -114 -57.5 -166t-183.5 -52q-50 0 -92.5 7zM170 956l39 31l114 -119l115 119l39 -31l-133 -150h-41z" />
    <glyph glyph-name="Scedilla" unicode="&#x15e;" horiz-adv-x="598" 
d="M274 -11l-7 -44q22 2 32 2q46 0 70.5 -20t24.5 -61q0 -44 -29 -68t-81 -24q-33 0 -73 11l-4 39q37 -8 71 -8q33 0 49.5 11.5t16.5 37.5q0 23 -15.5 33.5t-50.5 10.5q-31 0 -61 -4l12 86q-65 4 -130 28l-7 64q48 -19 90.5 -27t90.5 -8q92 0 134 36.5t42 117.5
q0 58 -30.5 93t-97.5 55l-68 20q-85 26 -123 71.5t-38 120.5q0 97 60 146t175 49q76 0 150 -23l9 -59q-94 24 -160 24q-165 0 -165 -130q0 -56 29.5 -88.5t97.5 -52.5l69 -21q87 -26 124.5 -73t37.5 -127q0 -114 -57.5 -166t-183.5 -52h-4z" />
    <glyph glyph-name="Scircumflex" unicode="&#x15c;" horiz-adv-x="598" 
d="M185.5 -4q-42.5 7 -86.5 23l-7 64q48 -19 90.5 -27t90.5 -8q92 0 134 36.5t42 117.5q0 58 -30.5 93t-97.5 55l-68 20q-85 26 -123 71.5t-38 120.5q0 97 60 146t175 49q76 0 150 -23l9 -59q-94 24 -160 24q-165 0 -165 -130q0 -56 29.5 -88.5t97.5 -52.5l69 -21
q87 -26 124.5 -73t37.5 -127q0 -114 -57.5 -166t-183.5 -52q-50 0 -92.5 7zM170 829l133 151h41l133 -151l-39 -31l-115 119l-114 -119z" />
    <glyph glyph-name="Scommaaccent" unicode="&#x218;" horiz-adv-x="598" 
d="M185.5 -4q-42.5 7 -86.5 23l-7 64q48 -19 90.5 -27t90.5 -8q92 0 134 36.5t42 117.5q0 58 -30.5 93t-97.5 55l-68 20q-85 26 -123 71.5t-38 120.5q0 97 60 146t175 49q76 0 150 -23l9 -59q-94 24 -160 24q-165 0 -165 -130q0 -56 29.5 -88.5t97.5 -52.5l69 -21
q87 -26 124.5 -73t37.5 -127q0 -114 -57.5 -166t-183.5 -52q-50 0 -92.5 7zM259 -254q31 46 32 108h-33v90h85v-49q0 -54 -12.5 -96.5t-39.5 -78.5z" />
    <glyph glyph-name="T" unicode="T" horiz-adv-x="564" 
d="M249 686h-212v58h490v-58h-212v-686h-66v686z" />
    <glyph glyph-name="Tbar" unicode="&#x166;" horiz-adv-x="570" 
d="M252 348h-128v53h128v285h-212v58h490v-58h-212v-285h128v-53h-128v-348h-66v348z" />
    <glyph glyph-name="Tcaron" unicode="&#x164;" horiz-adv-x="564" 
d="M249 686h-212v58h490v-58h-212v-686h-66v686zM130 956l39 31l114 -119l115 119l39 -31l-133 -150h-41z" />
    <glyph glyph-name="uni0162" unicode="&#x162;" horiz-adv-x="564" 
d="M249 686h-212v58h490v-58h-212v-686h-66v686zM241 -254q31 46 32 108h-33v90h85v-49q0 -54 -12.5 -96.5t-39.5 -78.5z" />
    <glyph glyph-name="uni021A" unicode="&#x21a;" horiz-adv-x="564" 
d="M249 686h-212v58h490v-58h-212v-686h-66v686zM241 -254q31 46 32 108h-33v90h85v-49q0 -54 -12.5 -96.5t-39.5 -78.5z" />
    <glyph glyph-name="U" unicode="U" horiz-adv-x="698" 
d="M148 61q-64 72 -64 221v462h66v-440q0 -92 19 -147.5t62.5 -82t118.5 -26.5t118 26.5t62 82.5t19 147v440h65v-462q0 -149 -64 -221t-201 -72t-201 72z" />
    <glyph glyph-name="Uacute" unicode="&#xda;" horiz-adv-x="698" 
d="M148 61q-64 72 -64 221v462h66v-440q0 -92 19 -147.5t62.5 -82t118.5 -26.5t118 26.5t62 82.5t19 147v440h65v-462q0 -149 -64 -221t-201 -72t-201 72zM264 845l198 135l38 -56l-213 -118z" />
    <glyph glyph-name="Ubreve" unicode="&#x16c;" horiz-adv-x="698" 
d="M148 61q-64 72 -64 221v462h66v-440q0 -92 19 -147.5t62.5 -82t118.5 -26.5t118 26.5t62 82.5t19 147v440h65v-462q0 -149 -64 -221t-201 -72t-201 72zM259.5 859.5q-34.5 31.5 -42.5 83.5l49 10q9 -33 29.5 -50t54.5 -17q35 0 55.5 17t29.5 50l49 -10q-8 -52 -43 -83.5
t-91 -31.5t-90.5 31.5z" />
    <glyph glyph-name="Ucircumflex" unicode="&#xdb;" horiz-adv-x="698" 
d="M148 61q-64 72 -64 221v462h66v-440q0 -92 19 -147.5t62.5 -82t118.5 -26.5t118 26.5t62 82.5t19 147v440h65v-462q0 -149 -64 -221t-201 -72t-201 72zM197 829l133 151h41l133 -151l-39 -31l-115 119l-114 -119z" />
    <glyph glyph-name="Udieresis" unicode="&#xdc;" horiz-adv-x="698" 
d="M148 61q-64 72 -64 221v462h66v-440q0 -92 19 -147.5t62.5 -82t118.5 -26.5t118 26.5t62 82.5t19 147v440h65v-462q0 -149 -64 -221t-201 -72t-201 72zM206 923h75v-91h-75v91zM419 923h75v-91h-75v91z" />
    <glyph glyph-name="Ugrave" unicode="&#xd9;" horiz-adv-x="698" 
d="M148 61q-64 72 -64 221v462h66v-440q0 -92 19 -147.5t62.5 -82t118.5 -26.5t118 26.5t62 82.5t19 147v440h65v-462q0 -149 -64 -221t-201 -72t-201 72zM208 924l38 56l198 -134l-23 -40z" />
    <glyph glyph-name="Uhungarumlaut" unicode="&#x170;" horiz-adv-x="698" 
d="M148 61q-64 72 -64 221v462h66v-440q0 -92 19 -147.5t62.5 -82t118.5 -26.5t118 26.5t62 82.5t19 147v440h65v-462q0 -149 -64 -221t-201 -72t-201 72zM180 841l166 144l41 -49l-176 -130zM383 841l165 144l41 -49l-176 -130z" />
    <glyph glyph-name="Umacron" unicode="&#x16a;" horiz-adv-x="698" 
d="M148 61q-64 72 -64 221v462h66v-440q0 -92 19 -147.5t62.5 -82t118.5 -26.5t118 26.5t62 82.5t19 147v440h65v-462q0 -149 -64 -221t-201 -72t-201 72zM211 923h287l-10 -55h-277v55z" />
    <glyph glyph-name="Uogonek" unicode="&#x172;" horiz-adv-x="698" 
d="M365.5 -203q-29.5 25 -29.5 67q0 64 66 128q-24 -3 -51 -3q-138 0 -202.5 72t-64.5 221v462h66v-440q0 -92 19 -147.5t62.5 -82t118.5 -26.5t118 26.5t62 82.5t19 147v440h65v-468q0 -70 -13.5 -116t-39.5 -79t-73 -70q-96 -76 -96 -142q0 -26 16 -40.5t49 -14.5
q29 0 66 10l-7 -41q-38 -11 -67 -11q-54 0 -83.5 25z" />
    <glyph glyph-name="Uring" unicode="&#x16e;" horiz-adv-x="698" 
d="M148 61q-64 72 -64 221v462h66v-440q0 -92 19 -147.5t62.5 -82t118.5 -26.5t118 26.5t62 82.5t19 147v440h65v-462q0 -149 -64 -221t-201 -72t-201 72zM279 827q-27 27 -27 67q0 41 27 68t71 27t71 -27t27 -68q0 -40 -27 -67t-71 -27t-71 27zM386 855.5q14 15.5 14 38.5
q0 25 -14 40t-36 15t-36 -15t-14 -40q0 -23 14 -38.5t36 -15.5t36 15.5z" />
    <glyph glyph-name="Utilde" unicode="&#x168;" horiz-adv-x="698" 
d="M148 61q-64 72 -64 221v462h66v-440q0 -92 19 -147.5t62.5 -82t118.5 -26.5t118 26.5t62 82.5t19 147v440h65v-462q0 -149 -64 -221t-201 -72t-201 72zM382 842.5q-19 8.5 -43 24.5q-21 13 -35.5 20t-28.5 7q-19 0 -32.5 -11t-28.5 -37l-32 20q19 45 41 66.5t56 21.5
q22 0 41 -9t42 -25q21 -13 35.5 -20t28.5 -7q19 0 32.5 11.5t28.5 37.5l32 -21q-19 -43 -41.5 -65t-55.5 -22q-21 0 -40 8.5z" />
    <glyph glyph-name="V" unicode="V" horiz-adv-x="621" 
d="M20 733v11h69l136 -415q48 -147 84 -277h4q17 60 42 142.5t42 134.5l141 415h63v-11l-251 -733h-82z" />
    <glyph glyph-name="W" unicode="W" horiz-adv-x="901" 
d="M20 733v11h66l113 -436q35 -139 57 -256h4q34 173 52 256l96 436h76l102 -436q26 -111 55 -259h4q30 147 59 259l113 436h64v-11l-195 -733h-86l-104 433q-27 108 -46 222h-4q-10 -54 -47 -222l-97 -433h-86z" />
    <glyph glyph-name="Wacute" unicode="&#x1e82;" horiz-adv-x="901" 
d="M20 733v11h66l113 -436q35 -139 57 -256h4q34 173 52 256l96 436h76l102 -436q26 -111 55 -259h4q30 147 59 259l113 436h64v-11l-195 -733h-86l-104 433q-27 108 -46 222h-4q-10 -54 -47 -222l-97 -433h-86zM360 845l198 135l38 -56l-213 -118z" />
    <glyph glyph-name="Wcircumflex" unicode="&#x174;" horiz-adv-x="901" 
d="M20 733v11h66l113 -436q35 -139 57 -256h4q34 173 52 256l96 436h76l102 -436q26 -111 55 -259h4q30 147 59 259l113 436h64v-11l-195 -733h-86l-104 433q-27 108 -46 222h-4q-10 -54 -47 -222l-97 -433h-86zM293 829l133 151h41l133 -151l-39 -31l-115 119l-114 -119z
" />
    <glyph glyph-name="Wdieresis" unicode="&#x1e84;" horiz-adv-x="901" 
d="M20 733v11h66l113 -436q35 -139 57 -256h4q34 173 52 256l96 436h76l102 -436q26 -111 55 -259h4q30 147 59 259l113 436h64v-11l-195 -733h-86l-104 433q-27 108 -46 222h-4q-10 -54 -47 -222l-97 -433h-86zM302 923h75v-91h-75v91zM515 923h75v-91h-75v91z" />
    <glyph glyph-name="Wgrave" unicode="&#x1e80;" horiz-adv-x="901" 
d="M20 733v11h66l113 -436q35 -139 57 -256h4q34 173 52 256l96 436h76l102 -436q26 -111 55 -259h4q30 147 59 259l113 436h64v-11l-195 -733h-86l-104 433q-27 108 -46 222h-4q-10 -54 -47 -222l-97 -433h-86zM304 924l38 56l198 -134l-23 -40z" />
    <glyph glyph-name="X" unicode="X" horiz-adv-x="610" 
d="M40 11l225 377l-206 345v11h70l176 -302l176 302h62v-13l-203 -341l230 -379v-11h-70l-199 336l-200 -336h-61v11z" />
    <glyph glyph-name="Y" unicode="Y" horiz-adv-x="560" 
d="M251 274l-231 459v11h70l106 -222q58 -121 89 -199h3q35 94 84 199l103 222h65v-11l-223 -461v-272h-66v274z" />
    <glyph glyph-name="Yacute" unicode="&#xdd;" horiz-adv-x="560" 
d="M251 274l-231 459v11h70l106 -222q58 -121 89 -199h3q35 94 84 199l103 222h65v-11l-223 -461v-272h-66v274zM197 845l198 135l38 -56l-213 -118z" />
    <glyph glyph-name="Ycircumflex" unicode="&#x176;" horiz-adv-x="560" 
d="M251 274l-231 459v11h70l106 -222q58 -121 89 -199h3q35 94 84 199l103 222h65v-11l-223 -461v-272h-66v274zM130 829l133 151h41l133 -151l-39 -31l-115 119l-114 -119z" />
    <glyph glyph-name="Ydieresis" unicode="&#x178;" horiz-adv-x="560" 
d="M251 274l-231 459v11h70l106 -222q58 -121 89 -199h3q35 94 84 199l103 222h65v-11l-223 -461v-272h-66v274zM139 923h75v-91h-75v91zM352 923h75v-91h-75v91z" />
    <glyph glyph-name="Ygrave" unicode="&#x1ef2;" horiz-adv-x="560" 
d="M251 274l-231 459v11h70l106 -222q58 -121 89 -199h3q35 94 84 199l103 222h65v-11l-223 -461v-272h-66v274zM141 924l38 56l198 -134l-23 -40z" />
    <glyph glyph-name="Z" unicode="Z" horiz-adv-x="599" 
d="M57 45l407 641h-391l15 58h439l11 -52l-401 -634h403l-17 -58h-455z" />
    <glyph glyph-name="Zacute" unicode="&#x179;" horiz-adv-x="599" 
d="M57 45l407 641h-391l15 58h439l11 -52l-401 -634h403l-17 -58h-455zM218 845l198 135l38 -56l-213 -118z" />
    <glyph glyph-name="Zacute.loclPLK" horiz-adv-x="599" 
d="M57 45l407 641h-391l15 58h439l11 -52l-401 -634h403l-17 -58h-455zM262 822l88 185l61 -29l-109 -178z" />
    <glyph glyph-name="Zcaron" unicode="&#x17d;" horiz-adv-x="599" 
d="M57 45l407 641h-391l15 58h439l11 -52l-401 -634h403l-17 -58h-455zM151 956l39 31l114 -119l115 119l39 -31l-133 -150h-41z" />
    <glyph glyph-name="Zdotaccent" unicode="&#x17b;" horiz-adv-x="599" 
d="M57 45l407 641h-391l15 58h439l11 -52l-401 -634h403l-17 -58h-455zM266 923h75v-91h-75v91z" />
    <glyph glyph-name="a" unicode="a" horiz-adv-x="512" 
d="M441.5 49.5q11.5 -13.5 45.5 -10.5l-12 -47q-11 -3 -26 -3q-65 0 -79 66q-32 -30 -76 -48t-91 -18q-76 0 -121 44t-45 114q0 39 14.5 70t40.5 50q48 35 140 35h135v44q0 69 -30.5 100t-98.5 31q-72 0 -153 -28v57q77 28 158 28q98 0 142.5 -44t44.5 -141v-246
q0 -40 11.5 -53.5zM129.5 71.5q29.5 -30.5 80.5 -30.5q40 0 83 20t74 50v138h-130q-71 0 -102 -22q-35 -24 -35 -76q0 -49 29.5 -79.5z" />
    <glyph glyph-name="aacute" unicode="&#xe1;" horiz-adv-x="512" 
d="M441.5 49.5q11.5 -13.5 45.5 -10.5l-12 -47q-11 -3 -26 -3q-65 0 -79 66q-32 -30 -76 -48t-91 -18q-76 0 -121 44t-45 114q0 39 14.5 70t40.5 50q48 35 140 35h135v44q0 69 -30.5 100t-98.5 31q-72 0 -153 -28v57q77 28 158 28q98 0 142.5 -44t44.5 -141v-246
q0 -40 11.5 -53.5zM129.5 71.5q29.5 -30.5 80.5 -30.5q40 0 83 20t74 50v138h-130q-71 0 -102 -22q-35 -24 -35 -76q0 -49 29.5 -79.5zM150 639l198 135l38 -55l-213 -119z" />
    <glyph glyph-name="abreve" unicode="&#x103;" horiz-adv-x="512" 
d="M441.5 49.5q11.5 -13.5 45.5 -10.5l-12 -47q-11 -3 -26 -3q-65 0 -79 66q-32 -30 -76 -48t-91 -18q-76 0 -121 44t-45 114q0 39 14.5 70t40.5 50q48 35 140 35h135v44q0 69 -30.5 100t-98.5 31q-72 0 -153 -28v57q77 28 158 28q98 0 142.5 -44t44.5 -141v-246
q0 -40 11.5 -53.5zM129.5 71.5q29.5 -30.5 80.5 -30.5q40 0 83 20t74 50v138h-130q-71 0 -102 -22q-35 -24 -35 -76q0 -49 29.5 -79.5zM156.5 648q-34.5 31 -42.5 83l49 10q19 -67 84 -67q66 0 85 67l49 -10q-8 -52 -43 -83t-91 -31t-90.5 31z" />
    <glyph glyph-name="uni01CE" unicode="&#x1ce;" horiz-adv-x="512" 
d="M441.5 49.5q11.5 -13.5 45.5 -10.5l-12 -47q-11 -3 -26 -3q-65 0 -79 66q-32 -30 -76 -48t-91 -18q-76 0 -121 44t-45 114q0 39 14.5 70t40.5 50q48 35 140 35h135v44q0 69 -30.5 100t-98.5 31q-72 0 -153 -28v57q77 28 158 28q98 0 142.5 -44t44.5 -141v-246
q0 -40 11.5 -53.5zM129.5 71.5q29.5 -30.5 80.5 -30.5q40 0 83 20t74 50v138h-130q-71 0 -102 -22q-35 -24 -35 -76q0 -49 29.5 -79.5zM94 765l39 31l114 -119l115 119l39 -31l-133 -150h-41z" />
    <glyph glyph-name="acircumflex" unicode="&#xe2;" horiz-adv-x="512" 
d="M441.5 49.5q11.5 -13.5 45.5 -10.5l-12 -47q-11 -3 -26 -3q-65 0 -79 66q-32 -30 -76 -48t-91 -18q-76 0 -121 44t-45 114q0 39 14.5 70t40.5 50q48 35 140 35h135v44q0 69 -30.5 100t-98.5 31q-72 0 -153 -28v57q77 28 158 28q98 0 142.5 -44t44.5 -141v-246
q0 -40 11.5 -53.5zM129.5 71.5q29.5 -30.5 80.5 -30.5q40 0 83 20t74 50v138h-130q-71 0 -102 -22q-35 -24 -35 -76q0 -49 29.5 -79.5zM94 635l133 150h41l133 -150l-39 -31l-115 119l-114 -119z" />
    <glyph glyph-name="adieresis" unicode="&#xe4;" horiz-adv-x="512" 
d="M441.5 49.5q11.5 -13.5 45.5 -10.5l-12 -47q-11 -3 -26 -3q-65 0 -79 66q-32 -30 -76 -48t-91 -18q-76 0 -121 44t-45 114q0 39 14.5 70t40.5 50q48 35 140 35h135v44q0 69 -30.5 100t-98.5 31q-72 0 -153 -28v57q77 28 158 28q98 0 142.5 -44t44.5 -141v-246
q0 -40 11.5 -53.5zM129.5 71.5q29.5 -30.5 80.5 -30.5q40 0 83 20t74 50v138h-130q-71 0 -102 -22q-35 -24 -35 -76q0 -49 29.5 -79.5zM103 719h75v-92h-75v92zM315 719h76v-92h-76v92z" />
    <glyph glyph-name="agrave" unicode="&#xe0;" horiz-adv-x="512" 
d="M441.5 49.5q11.5 -13.5 45.5 -10.5l-12 -47q-11 -3 -26 -3q-65 0 -79 66q-32 -30 -76 -48t-91 -18q-76 0 -121 44t-45 114q0 39 14.5 70t40.5 50q48 35 140 35h135v44q0 69 -30.5 100t-98.5 31q-72 0 -153 -28v57q77 28 158 28q98 0 142.5 -44t44.5 -141v-246
q0 -40 11.5 -53.5zM129.5 71.5q29.5 -30.5 80.5 -30.5q40 0 83 20t74 50v138h-130q-71 0 -102 -22q-35 -24 -35 -76q0 -49 29.5 -79.5zM108 719l38 55l197 -134l-23 -40z" />
    <glyph glyph-name="amacron" unicode="&#x101;" horiz-adv-x="512" 
d="M441.5 49.5q11.5 -13.5 45.5 -10.5l-12 -47q-11 -3 -26 -3q-65 0 -79 66q-32 -30 -76 -48t-91 -18q-76 0 -121 44t-45 114q0 39 14.5 70t40.5 50q48 35 140 35h135v44q0 69 -30.5 100t-98.5 31q-72 0 -153 -28v57q77 28 158 28q98 0 142.5 -44t44.5 -141v-246
q0 -40 11.5 -53.5zM129.5 71.5q29.5 -30.5 80.5 -30.5q40 0 83 20t74 50v138h-130q-71 0 -102 -22q-35 -24 -35 -76q0 -49 29.5 -79.5zM108 698h287l-10 -55h-277v55z" />
    <glyph glyph-name="aogonek" unicode="&#x105;" horiz-adv-x="512" 
d="M369.5 -170.5q16.5 -15.5 47.5 -15.5q21 0 67 12l-7 -40q-16 -6 -38 -10t-40 -4q-47 0 -74.5 26t-27.5 68q0 43 29 77t81 56q-29 15 -37 56q-33 -31 -77 -48.5t-90 -17.5q-76 0 -121 44t-45 114q0 39 14.5 70t40.5 50q48 35 140 35h135v44q0 69 -30.5 100t-98.5 31
q-72 0 -153 -28v57q77 28 158 28q98 0 142.5 -44t44.5 -141v-246q0 -40 11.5 -53.5t45.5 -10.5l-12 -47q-63 -20 -92.5 -50.5t-29.5 -66.5q0 -30 16.5 -45.5zM129.5 71.5q29.5 -30.5 80.5 -30.5q40 0 83 20t74 50v138h-130q-71 0 -102 -22q-35 -24 -35 -76q0 -49 29.5 -79.5
z" />
    <glyph glyph-name="aring" unicode="&#xe5;" horiz-adv-x="512" 
d="M441.5 49.5q11.5 -13.5 45.5 -10.5l-12 -47q-11 -3 -26 -3q-65 0 -79 66q-32 -30 -76 -48t-91 -18q-76 0 -121 44t-45 114q0 39 14.5 70t40.5 50q48 35 140 35h135v44q0 69 -30.5 100t-98.5 31q-72 0 -153 -28v57q77 28 158 28q98 0 142.5 -44t44.5 -141v-246
q0 -40 11.5 -53.5zM129.5 71.5q29.5 -30.5 80.5 -30.5q40 0 83 20t74 50v138h-130q-71 0 -102 -22q-35 -24 -35 -76q0 -49 29.5 -79.5zM176 622q-27 27 -27 67q0 41 27 68t71 27t71 -27t27 -68q0 -40 -27 -67t-71 -27t-71 27zM283 650.5q14 15.5 14 38.5q0 25 -14 40t-36 15
t-36 -15t-14 -40q0 -23 14 -38.5t36 -15.5t36 15.5z" />
    <glyph glyph-name="aringacute" unicode="&#x1fb;" horiz-adv-x="512" 
d="M441.5 49.5q11.5 -13.5 45.5 -10.5l-12 -47q-11 -3 -26 -3q-65 0 -79 66q-32 -30 -76 -48t-91 -18q-76 0 -121 44t-45 114q0 39 14.5 70t40.5 50q48 35 140 35h135v44q0 69 -30.5 100t-98.5 31q-72 0 -153 -28v57q77 28 158 28q98 0 142.5 -44t44.5 -141v-246
q0 -40 11.5 -53.5zM129.5 71.5q29.5 -30.5 80.5 -30.5q40 0 83 20t74 50v138h-130q-71 0 -102 -22q-35 -24 -35 -76q0 -49 29.5 -79.5zM177 619q-27 27 -27 67q0 41 27 68t71 27t71 -27t27 -68q0 -40 -27 -67t-71 -27t-71 27zM284 647.5q14 15.5 14 38.5q0 25 -14 40t-36 15
t-36 -15t-14 -40q0 -23 14 -38.5t36 -15.5t36 15.5zM152 841l198 135l38 -55l-213 -119z" />
    <glyph glyph-name="atilde" unicode="&#xe3;" horiz-adv-x="512" 
d="M441.5 49.5q11.5 -13.5 45.5 -10.5l-12 -47q-11 -3 -26 -3q-65 0 -79 66q-32 -30 -76 -48t-91 -18q-76 0 -121 44t-45 114q0 39 14.5 70t40.5 50q48 35 140 35h135v44q0 69 -30.5 100t-98.5 31q-72 0 -153 -28v57q77 28 158 28q98 0 142.5 -44t44.5 -141v-246
q0 -40 11.5 -53.5zM129.5 71.5q29.5 -30.5 80.5 -30.5q40 0 83 20t74 50v138h-130q-71 0 -102 -22q-35 -24 -35 -76q0 -49 29.5 -79.5zM279 637.5q-19 8.5 -43 24.5q-21 13 -35.5 20t-28.5 7q-19 0 -32.5 -11.5t-28.5 -37.5l-32 21q19 45 41 66t56 21q21 0 40 -8.5t43 -24.5
q21 -13 35.5 -20t28.5 -7q19 0 32.5 11.5t28.5 37.5l32 -21q-19 -43 -41.5 -65t-55.5 -22q-21 0 -40 8.5z" />
    <glyph glyph-name="ae" unicode="&#xe6;" horiz-adv-x="837" 
d="M79 31.5q-42 42.5 -42 110.5q0 77 52.5 114.5t145.5 37.5h135v50q0 69 -32 101t-100 32q-72 0 -153 -28v57q77 28 158 28q65 0 105.5 -19t59.5 -59q24 40 65.5 59t104.5 19q71 0 114 -26.5t63 -83t20 -150.5v-33h-346q1 -107 42.5 -153t134.5 -46q37 0 72 5.5t78 18.5
l-9 -54q-42 -12 -77 -17.5t-74 -5.5q-73 0 -119.5 20.5t-71.5 65.5q-40 -39 -92 -62.5t-111 -23.5q-81 0 -123 42.5zM714 294q-2 98 -33 143t-102 45q-78 0 -112.5 -44t-36.5 -144h284zM303.5 64.5q47.5 23.5 81.5 60.5q-14 48 -15 116h-134q-67 0 -101.5 -21.5t-34.5 -73.5
q0 -47 27 -76t81 -29q48 0 95.5 23.5z" />
    <glyph glyph-name="aeacute" unicode="&#x1fd;" horiz-adv-x="837" 
d="M79 31.5q-42 42.5 -42 110.5q0 77 52.5 114.5t145.5 37.5h135v50q0 69 -32 101t-100 32q-72 0 -153 -28v57q77 28 158 28q65 0 105.5 -19t59.5 -59q24 40 65.5 59t104.5 19q71 0 114 -26.5t63 -83t20 -150.5v-33h-346q1 -107 42.5 -153t134.5 -46q37 0 72 5.5t78 18.5
l-9 -54q-42 -12 -77 -17.5t-74 -5.5q-73 0 -119.5 20.5t-71.5 65.5q-40 -39 -92 -62.5t-111 -23.5q-81 0 -123 42.5zM714 294q-2 98 -33 143t-102 45q-78 0 -112.5 -44t-36.5 -144h284zM303.5 64.5q47.5 23.5 81.5 60.5q-14 48 -15 116h-134q-67 0 -101.5 -21.5t-34.5 -73.5
q0 -47 27 -76t81 -29q48 0 95.5 23.5zM324 639l198 135l38 -55l-213 -119z" />
    <glyph glyph-name="b" unicode="b" horiz-adv-x="574" 
d="M219.5 1.5q-41.5 12.5 -81.5 39.5l-6 -41h-49v770h63v-274q42 20 81.5 29t81.5 9q106 0 155.5 -64t49.5 -201q0 -145 -49.5 -212.5t-155.5 -67.5q-48 0 -89.5 12.5zM415 95.5q33 52.5 33 173.5q0 113 -34 162t-112 49q-38 0 -74 -8t-82 -25v-357q37 -25 73.5 -36
t85.5 -11q77 0 110 52.5z" />
    <glyph glyph-name="c" unicode="c" horiz-adv-x="467" 
d="M158 17q-51 28 -74.5 88.5t-23.5 159.5q0 143 54 206t176 63q61 0 115 -20l8 -54q-61 20 -119 20q-91 0 -129.5 -49.5t-38.5 -165.5q0 -81 17.5 -129.5t55 -70.5t100.5 -22q36 0 64 5t59 17l-8 -55q-57 -21 -121 -21q-84 0 -135 28z" />
    <glyph glyph-name="cacute" unicode="&#x107;" horiz-adv-x="467" 
d="M158 17q-51 28 -74.5 88.5t-23.5 159.5q0 143 54 206t176 63q61 0 115 -20l8 -54q-61 20 -119 20q-91 0 -129.5 -49.5t-38.5 -165.5q0 -81 17.5 -129.5t55 -70.5t100.5 -22q36 0 64 5t59 17l-8 -55q-57 -21 -121 -21q-84 0 -135 28zM171 639l198 135l38 -55l-213 -119z
" />
    <glyph glyph-name="cacute.loclPLK" horiz-adv-x="467" 
d="M158 17q-51 28 -74.5 88.5t-23.5 159.5q0 143 54 206t176 63q61 0 115 -20l8 -54q-61 20 -119 20q-91 0 -129.5 -49.5t-38.5 -165.5q0 -81 17.5 -129.5t55 -70.5t100.5 -22q36 0 64 5t59 17l-8 -55q-57 -21 -121 -21q-84 0 -135 28zM226 604l88 184l61 -28l-109 -178z
" />
    <glyph glyph-name="ccaron" unicode="&#x10d;" horiz-adv-x="467" 
d="M158 17q-51 28 -74.5 88.5t-23.5 159.5q0 143 54 206t176 63q61 0 115 -20l8 -54q-61 20 -119 20q-91 0 -129.5 -49.5t-38.5 -165.5q0 -81 17.5 -129.5t55 -70.5t100.5 -22q36 0 64 5t59 17l-8 -55q-57 -21 -121 -21q-84 0 -135 28zM115 765l39 31l114 -119l115 119
l39 -31l-133 -150h-41z" />
    <glyph glyph-name="ccedilla" unicode="&#xe7;" horiz-adv-x="467" 
d="M260 -10l-7 -45q22 2 32 2q46 0 70.5 -20t24.5 -61q0 -44 -29 -68t-81 -24q-33 0 -73 11l-4 39q37 -8 71 -8q33 0 49.5 11.5t16.5 37.5q0 23 -15.5 33.5t-50.5 10.5q-31 0 -61 -4l13 91q-82 18 -119 82.5t-37 186.5q0 143 54 206t176 63q61 0 115 -20l8 -54
q-61 20 -119 20q-91 0 -129.5 -49.5t-38.5 -165.5q0 -81 17.5 -129.5t55 -70.5t100.5 -22q36 0 64 5t59 17l-8 -55q-57 -21 -121 -21q-22 0 -33 1z" />
    <glyph glyph-name="ccircumflex" unicode="&#x109;" horiz-adv-x="467" 
d="M158 17q-51 28 -74.5 88.5t-23.5 159.5q0 143 54 206t176 63q61 0 115 -20l8 -54q-61 20 -119 20q-91 0 -129.5 -49.5t-38.5 -165.5q0 -81 17.5 -129.5t55 -70.5t100.5 -22q36 0 64 5t59 17l-8 -55q-57 -21 -121 -21q-84 0 -135 28zM115 635l133 150h41l133 -150l-39 -31
l-115 119l-114 -119z" />
    <glyph glyph-name="cdotaccent" unicode="&#x10b;" horiz-adv-x="467" 
d="M158 17q-51 28 -74.5 88.5t-23.5 159.5q0 143 54 206t176 63q61 0 115 -20l8 -54q-61 20 -119 20q-91 0 -129.5 -49.5t-38.5 -165.5q0 -81 17.5 -129.5t55 -70.5t100.5 -22q36 0 64 5t59 17l-8 -55q-57 -21 -121 -21q-84 0 -135 28zM230 719h75v-92h-75v92z" />
    <glyph glyph-name="d" unicode="d" horiz-adv-x="576" 
d="M113 54.5q-53 65.5 -53 202.5q0 142 53.5 209.5t166.5 67.5q78 0 150 -31v267h63v-770h-53l-5 40q-71 -51 -157 -51q-112 0 -165 65.5zM362 54q35 11 68 36v361q-38 15 -71 21t-71 6q-86 0 -124 -51.5t-38 -169.5q0 -113 36.5 -163.5t118.5 -50.5q46 0 81 11z" />
    <glyph glyph-name="eth" unicode="&#xf0;" horiz-adv-x="561" 
d="M113.5 53.5q-54.5 64.5 -54.5 200.5q0 135 53 199.5t164 64.5q78 0 139 -34q-41 144 -150 205l-70 -85l-40 29l66 79q-34 15 -110 31l35 42q59 -10 111 -32l66 80l39 -31l-60 -72q54 -30 91 -71t62 -97q47 -109 47 -273q0 -154 -53.5 -227t-165.5 -73q-115 0 -169.5 64.5
zM399.5 99.5q37.5 56.5 37.5 175.5q0 59 -12 152q-65 35 -146 35q-79 0 -117 -51t-38 -158t38.5 -158.5t120.5 -51.5q79 0 116.5 56.5z" />
    <glyph glyph-name="dcaron" unicode="&#x10f;" horiz-adv-x="655" 
d="M113 54.5q-53 65.5 -53 202.5q0 142 53.5 209.5t166.5 67.5q78 0 150 -31v267h63v-770h-53l-5 40q-71 -51 -157 -51q-112 0 -165 65.5zM362 54q35 11 68 36v361q-38 15 -71 21t-71 6q-86 0 -124 -51.5t-38 -169.5q0 -113 36.5 -163.5t118.5 -50.5q46 0 81 11zM561 566
q31 46 32 108h-33v90h85v-49q0 -54 -12.5 -96.5t-39.5 -78.5z" />
    <glyph glyph-name="dcroat" unicode="&#x111;" horiz-adv-x="590" 
d="M113 54.5q-53 65.5 -53 202.5q0 142 53.5 209.5t166.5 67.5q78 0 150 -31v112h-181v50h181v105h63v-105h74v-50h-74v-615h-53l-5 40q-71 -51 -157 -51q-112 0 -165 65.5zM362 54q35 11 68 36v361q-38 15 -71 21t-71 6q-86 0 -124 -51.5t-38 -169.5q0 -113 36.5 -163.5
t118.5 -50.5q46 0 81 11z" />
    <glyph glyph-name="e" unicode="e" horiz-adv-x="534" 
d="M472 233h-348q3 -102 45.5 -146.5t133.5 -44.5q37 0 72 5.5t78 18.5l-9 -54q-42 -12 -77 -17.5t-74 -5.5q-123 0 -178 63t-55 207t50 209.5t165 65.5q71 0 114 -26.5t63 -83t20 -150.5v-41zM160.5 436q-35.5 -46 -35.5 -151h286q-1 103 -32 150t-103 47q-80 0 -115.5 -46
z" />
    <glyph glyph-name="eacute" unicode="&#xe9;" horiz-adv-x="534" 
d="M472 233h-348q3 -102 45.5 -146.5t133.5 -44.5q37 0 72 5.5t78 18.5l-9 -54q-42 -12 -77 -17.5t-74 -5.5q-123 0 -178 63t-55 207t50 209.5t165 65.5q71 0 114 -26.5t63 -83t20 -150.5v-41zM160.5 436q-35.5 -46 -35.5 -151h286q-1 103 -32 150t-103 47q-80 0 -115.5 -46
zM178 639l198 135l38 -55l-213 -119z" />
    <glyph glyph-name="ebreve" unicode="&#x115;" horiz-adv-x="534" 
d="M472 233h-348q3 -102 45.5 -146.5t133.5 -44.5q37 0 72 5.5t78 18.5l-9 -54q-42 -12 -77 -17.5t-74 -5.5q-123 0 -178 63t-55 207t50 209.5t165 65.5q71 0 114 -26.5t63 -83t20 -150.5v-41zM160.5 436q-35.5 -46 -35.5 -151h286q-1 103 -32 150t-103 47q-80 0 -115.5 -46
zM184.5 648q-34.5 31 -42.5 83l49 10q19 -67 84 -67q66 0 85 67l49 -10q-8 -52 -43 -83t-91 -31t-90.5 31z" />
    <glyph glyph-name="ecaron" unicode="&#x11b;" horiz-adv-x="534" 
d="M472 233h-348q3 -102 45.5 -146.5t133.5 -44.5q37 0 72 5.5t78 18.5l-9 -54q-42 -12 -77 -17.5t-74 -5.5q-123 0 -178 63t-55 207t50 209.5t165 65.5q71 0 114 -26.5t63 -83t20 -150.5v-41zM160.5 436q-35.5 -46 -35.5 -151h286q-1 103 -32 150t-103 47q-80 0 -115.5 -46
zM122 765l39 31l114 -119l115 119l39 -31l-133 -150h-41z" />
    <glyph glyph-name="ecircumflex" unicode="&#xea;" horiz-adv-x="534" 
d="M472 233h-348q3 -102 45.5 -146.5t133.5 -44.5q37 0 72 5.5t78 18.5l-9 -54q-42 -12 -77 -17.5t-74 -5.5q-123 0 -178 63t-55 207t50 209.5t165 65.5q71 0 114 -26.5t63 -83t20 -150.5v-41zM160.5 436q-35.5 -46 -35.5 -151h286q-1 103 -32 150t-103 47q-80 0 -115.5 -46
zM122 635l133 150h41l133 -150l-39 -31l-115 119l-114 -119z" />
    <glyph glyph-name="edieresis" unicode="&#xeb;" horiz-adv-x="534" 
d="M472 233h-348q3 -102 45.5 -146.5t133.5 -44.5q37 0 72 5.5t78 18.5l-9 -54q-42 -12 -77 -17.5t-74 -5.5q-123 0 -178 63t-55 207t50 209.5t165 65.5q71 0 114 -26.5t63 -83t20 -150.5v-41zM160.5 436q-35.5 -46 -35.5 -151h286q-1 103 -32 150t-103 47q-80 0 -115.5 -46
zM131 719h75v-92h-75v92zM343 719h76v-92h-76v92z" />
    <glyph glyph-name="edotaccent" unicode="&#x117;" horiz-adv-x="534" 
d="M472 233h-348q3 -102 45.5 -146.5t133.5 -44.5q37 0 72 5.5t78 18.5l-9 -54q-42 -12 -77 -17.5t-74 -5.5q-123 0 -178 63t-55 207t50 209.5t165 65.5q71 0 114 -26.5t63 -83t20 -150.5v-41zM160.5 436q-35.5 -46 -35.5 -151h286q-1 103 -32 150t-103 47q-80 0 -115.5 -46
zM237 719h75v-92h-75v92z" />
    <glyph glyph-name="egrave" unicode="&#xe8;" horiz-adv-x="534" 
d="M472 233h-348q3 -102 45.5 -146.5t133.5 -44.5q37 0 72 5.5t78 18.5l-9 -54q-42 -12 -77 -17.5t-74 -5.5q-123 0 -178 63t-55 207t50 209.5t165 65.5q71 0 114 -26.5t63 -83t20 -150.5v-41zM160.5 436q-35.5 -46 -35.5 -151h286q-1 103 -32 150t-103 47q-80 0 -115.5 -46
zM136 719l38 55l197 -134l-23 -40z" />
    <glyph glyph-name="emacron" unicode="&#x113;" horiz-adv-x="534" 
d="M472 233h-348q3 -102 45.5 -146.5t133.5 -44.5q37 0 72 5.5t78 18.5l-9 -54q-42 -12 -77 -17.5t-74 -5.5q-123 0 -178 63t-55 207t50 209.5t165 65.5q71 0 114 -26.5t63 -83t20 -150.5v-41zM160.5 436q-35.5 -46 -35.5 -151h286q-1 103 -32 150t-103 47q-80 0 -115.5 -46
zM136 698h287l-10 -55h-277v55z" />
    <glyph glyph-name="eogonek" unicode="&#x119;" horiz-adv-x="534" 
d="M472 233h-348q3 -102 45.5 -146.5t133.5 -44.5q37 0 72 5.5t78 18.5l-9 -54q-65 -30 -99 -64t-34 -75q0 -29 16.5 -44t46.5 -15q22 0 68 12l-6 -40q-42 -14 -75 -14q-47 0 -76.5 24t-29.5 69q0 41 26 74t66 53q-25 -3 -54 -3q-123 0 -178 63t-55 207t50 209.5t165 65.5
q71 0 114 -26.5t63 -83t20 -150.5v-41zM160.5 436q-35.5 -46 -35.5 -151h286q-1 103 -32 150t-103 47q-80 0 -115.5 -46z" />
    <glyph glyph-name="f" unicode="f" horiz-adv-x="316" 
d="M110 470h-92v52h92v90q0 86 38.5 126.5t120.5 40.5q29 0 69 -10l7 -55q-42 11 -73 11q-51 0 -75 -28.5t-24 -88.5v-86h142l-7 -52h-135v-470h-63v470z" />
    <glyph glyph-name="g" unicode="g" horiz-adv-x="572" 
d="M169 -212l-9 56q26 -8 60 -13t59 -5q78 0 112 35q18 19 26.5 48.5t8.5 75.5v53q-32 -24 -66.5 -35t-76.5 -11q-115 0 -169 64t-54 201q0 143 53 210t166 67q39 0 75 -11.5t75 -35.5l12 35h48v-532q0 -112 -48 -164q-25 -28 -63 -40.5t-92 -12.5t-117 15zM358 56
q35 10 68 33v347q-38 23 -73.5 33.5t-76.5 10.5q-79 0 -114.5 -53t-35.5 -171q0 -110 36.5 -160t117.5 -50q43 0 78 10z" />
    <glyph glyph-name="gbreve" unicode="&#x11f;" horiz-adv-x="572" 
d="M169 -212l-9 56q26 -8 60 -13t59 -5q78 0 112 35q18 19 26.5 48.5t8.5 75.5v53q-32 -24 -66.5 -35t-76.5 -11q-115 0 -169 64t-54 201q0 143 53 210t166 67q39 0 75 -11.5t75 -35.5l12 35h48v-532q0 -112 -48 -164q-25 -28 -63 -40.5t-92 -12.5t-117 15zM358 56
q35 10 68 33v347q-38 23 -73.5 33.5t-76.5 10.5q-79 0 -114.5 -53t-35.5 -171q0 -110 36.5 -160t117.5 -50q43 0 78 10zM196.5 648q-34.5 31 -42.5 83l49 10q19 -67 84 -67q66 0 85 67l49 -10q-8 -52 -43 -83t-91 -31t-90.5 31z" />
    <glyph glyph-name="gcircumflex" unicode="&#x11d;" horiz-adv-x="572" 
d="M169 -212l-9 56q26 -8 60 -13t59 -5q78 0 112 35q18 19 26.5 48.5t8.5 75.5v53q-32 -24 -66.5 -35t-76.5 -11q-115 0 -169 64t-54 201q0 143 53 210t166 67q39 0 75 -11.5t75 -35.5l12 35h48v-532q0 -112 -48 -164q-25 -28 -63 -40.5t-92 -12.5t-117 15zM358 56
q35 10 68 33v347q-38 23 -73.5 33.5t-76.5 10.5q-79 0 -114.5 -53t-35.5 -171q0 -110 36.5 -160t117.5 -50q43 0 78 10zM134 635l133 150h41l133 -150l-39 -31l-115 119l-114 -119z" />
    <glyph glyph-name="gcommaaccent" unicode="&#x123;" horiz-adv-x="572" 
d="M232 667q0 55 12.5 97.5t39.5 77.5l32 -26q-31 -48 -32 -108h34v-90h-86v49zM169 -212l-9 56q26 -8 60 -13t59 -5q78 0 112 35q18 19 26.5 48.5t8.5 75.5v53q-32 -24 -66.5 -35t-76.5 -11q-115 0 -169 64t-54 201q0 143 53 210t166 67q39 0 75 -11.5t75 -35.5l12 35h48
v-532q0 -112 -48 -164q-25 -28 -63 -40.5t-92 -12.5t-117 15zM358 56q35 10 68 33v347q-38 23 -73.5 33.5t-76.5 10.5q-79 0 -114.5 -53t-35.5 -171q0 -110 36.5 -160t117.5 -50q43 0 78 10z" />
    <glyph glyph-name="gdotaccent" unicode="&#x121;" horiz-adv-x="572" 
d="M169 -212l-9 56q26 -8 60 -13t59 -5q78 0 112 35q18 19 26.5 48.5t8.5 75.5v53q-32 -24 -66.5 -35t-76.5 -11q-115 0 -169 64t-54 201q0 143 53 210t166 67q39 0 75 -11.5t75 -35.5l12 35h48v-532q0 -112 -48 -164q-25 -28 -63 -40.5t-92 -12.5t-117 15zM358 56
q35 10 68 33v347q-38 23 -73.5 33.5t-76.5 10.5q-79 0 -114.5 -53t-35.5 -171q0 -110 36.5 -160t117.5 -50q43 0 78 10zM249 719h75v-92h-75v92z" />
    <glyph glyph-name="h" unicode="h" horiz-adv-x="578" 
d="M83 770h63v-293q80 57 175 57q90 0 133 -48t43 -148v-338h-63v322q0 83 -27.5 118t-94.5 35q-45 0 -83 -11.5t-83 -37.5v-426h-63v770z" />
    <glyph glyph-name="hbar" unicode="&#x127;" horiz-adv-x="592" 
d="M97 615h-72v50h72v105h63v-105h178v-50h-178v-138q79 57 175 57q89 0 132.5 -48t43.5 -148v-338h-63v322q0 83 -28 118t-94 35q-45 0 -83 -11t-83 -38v-426h-63v615z" />
    <glyph glyph-name="hcircumflex" unicode="&#x125;" horiz-adv-x="578" 
d="M83 770h63v-293q80 57 175 57q90 0 133 -48t43 -148v-338h-63v322q0 83 -27.5 118t-94.5 35q-45 0 -83 -11.5t-83 -37.5v-426h-63v770zM-38 829l133 151h41l133 -151l-39 -31l-115 119l-114 -119z" />
    <glyph glyph-name="i" unicode="i" horiz-adv-x="241" 
d="M83 719h75v-92h-75v92zM89 522h63v-522h-63v522z" />
    <glyph glyph-name="dotlessi" unicode="&#x131;" horiz-adv-x="241" 
d="M89 522h63v-522h-63v522z" />
    <glyph glyph-name="iacute" unicode="&#xed;" horiz-adv-x="241" 
d="M89 522h63v-522h-63v522zM24 639l198 135l38 -55l-213 -119z" />
    <glyph glyph-name="ibreve" unicode="&#x12d;" horiz-adv-x="241" 
d="M89 522h63v-522h-63v522zM30.5 648q-34.5 31 -42.5 83l49 10q19 -67 84 -67q66 0 85 67l49 -10q-8 -52 -43 -83t-91 -31t-90.5 31z" />
    <glyph glyph-name="icircumflex" unicode="&#xee;" horiz-adv-x="241" 
d="M89 522h63v-522h-63v522zM-32 635l133 150h41l133 -150l-39 -31l-115 119l-114 -119z" />
    <glyph glyph-name="idieresis" unicode="&#xef;" horiz-adv-x="241" 
d="M89 522h63v-522h-63v522zM-23 719h75v-92h-75v92zM189 719h76v-92h-76v92z" />
    <glyph glyph-name="i.loclTRK" horiz-adv-x="241" 
d="M89 522h63v-522h-63v522zM83 719h75v-92h-75v92z" />
    <glyph glyph-name="igrave" unicode="&#xec;" horiz-adv-x="241" 
d="M89 522h63v-522h-63v522zM-18 719l38 55l197 -134l-23 -40z" />
    <glyph glyph-name="ij" unicode="&#x133;" horiz-adv-x="482" 
d="M83 719h75v-92h-75v92zM89 522h63v-522h-63v522zM324 719h75v-92h-75v92zM191 -220l-9 52q19 -6 53 -6q52 0 73.5 34t21.5 116v546h63v-541q0 -76 -14.5 -121.5t-47 -66t-86.5 -20.5q-29 0 -54 7z" />
    <glyph glyph-name="imacron" unicode="&#x12b;" horiz-adv-x="241" 
d="M89 522h63v-522h-63v522zM-18 698h287l-10 -55h-277v55z" />
    <glyph glyph-name="iogonek" unicode="&#x12f;" horiz-adv-x="240" 
d="M83 719h75v-92h-75v92zM39.5 -202q-28.5 26 -28.5 70q0 71 78 132v522h62v-522q-41 -24 -62.5 -56.5t-21.5 -66.5q0 -31 18 -47t49 -16q19 0 39 5.5t25 6.5l-7 -40q-40 -14 -73 -14q-50 0 -78.5 26z" />
    <glyph glyph-name="itilde" unicode="&#x129;" horiz-adv-x="241" 
d="M89 522h63v-522h-63v522zM153 637.5q-19 8.5 -43 24.5q-21 13 -35.5 20t-28.5 7q-19 0 -32.5 -11.5t-28.5 -37.5l-32 21q19 45 41 66t56 21q21 0 40 -8.5t43 -24.5q21 -13 35.5 -20t28.5 -7q19 0 32.5 11.5t28.5 37.5l32 -21q-19 -43 -41.5 -65t-55.5 -22q-21 0 -40 8.5z
" />
    <glyph glyph-name="j" unicode="j" horiz-adv-x="241" 
d="M83 719h75v-92h-75v92zM-50 -220l-9 52q19 -6 53 -6q52 0 73.5 34t21.5 116v546h63v-541q0 -76 -14.5 -121.5t-47 -66t-86.5 -20.5q-29 0 -54 7z" />
    <glyph glyph-name="uni0237" unicode="&#x237;" horiz-adv-x="241" 
d="M-50 -220l-9 52q19 -6 53 -6q52 0 73.5 34t21.5 116v546h63v-541q0 -76 -14.5 -121.5t-47 -66t-86.5 -20.5q-29 0 -54 7z" />
    <glyph glyph-name="jacute" horiz-adv-x="241" 
d="M-50 -220l-9 52q19 -6 53 -6q52 0 73.5 34t21.5 116v546h63v-541q0 -76 -14.5 -121.5t-47 -66t-86.5 -20.5q-29 0 -54 7zM24 639l198 135l38 -55l-213 -119z" />
    <glyph glyph-name="jcircumflex" unicode="&#x135;" horiz-adv-x="241" 
d="M-50 -220l-9 52q19 -6 53 -6q52 0 73.5 34t21.5 116v546h63v-541q0 -76 -14.5 -121.5t-47 -66t-86.5 -20.5q-29 0 -54 7zM-32 635l133 150h41l133 -150l-39 -31l-115 119l-114 -119z" />
    <glyph glyph-name="k" unicode="k" horiz-adv-x="511" 
d="M83 770h63v-530l272 298l42 -37l-190 -206l196 -282v-13h-65l-172 251l-83 -90v-161h-63v770z" />
    <glyph glyph-name="kcommaaccent" unicode="&#x137;" horiz-adv-x="511" 
d="M83 770h63v-530l272 298l42 -37l-190 -206l196 -282v-13h-65l-172 251l-83 -90v-161h-63v770zM233 -254q31 46 32 108h-33v90h85v-49q0 -54 -12.5 -96.5t-39.5 -78.5z" />
    <glyph glyph-name="kgreenlandic" unicode="&#x138;" horiz-adv-x="511" 
d="M83 522h63v-282l272 298l42 -37l-190 -206l196 -282v-13h-65l-172 251l-83 -90v-161h-63v522z" />
    <glyph glyph-name="l" unicode="l" horiz-adv-x="239" 
d="M88 770h63v-770h-63v770z" />
    <glyph glyph-name="lacute" unicode="&#x13a;" horiz-adv-x="239" 
d="M88 770h63v-770h-63v770zM34 845l198 135l38 -56l-213 -118z" />
    <glyph glyph-name="lcaron" unicode="&#x13e;" horiz-adv-x="311" 
d="M88 770h63v-770h-63v770zM217 566q31 46 32 108h-33v90h85v-49q0 -54 -12.5 -96.5t-39.5 -78.5z" />
    <glyph glyph-name="lcommaaccent" unicode="&#x13c;" horiz-adv-x="239" 
d="M88 770h63v-770h-63v770zM78 -254q31 46 32 108h-33v90h85v-49q0 -54 -12.5 -96.5t-39.5 -78.5z" />
    <glyph glyph-name="ldot" unicode="&#x140;" horiz-adv-x="352" 
d="M88 770h63v-770h-63v770zM238 451h75v-92h-75v92z" />
    <glyph glyph-name="lslash" unicode="&#x142;" horiz-adv-x="319" 
d="M125 311l-105 -91v63l105 91v396h63v-355l111 96v-63l-111 -96v-352h-63v311z" />
    <glyph glyph-name="m" unicode="m" horiz-adv-x="899" 
d="M83 522h56l5 -46q82 58 168 58q108 0 146 -75q93 75 190 75q87 0 128.5 -48t41.5 -148v-338h-63v322q0 83 -26 118t-89 35q-44 0 -80.5 -13t-86.5 -43q9 -34 9 -81v-338h-63v322q0 83 -26 118t-89 35q-42 0 -78 -11.5t-80 -37.5v-426h-63v522z" />
    <glyph glyph-name="n" unicode="n" horiz-adv-x="578" 
d="M83 522h56l5 -47q82 59 177 59q90 0 133 -48t43 -148v-338h-63v322q0 83 -27.5 118t-94.5 35q-45 0 -83 -11.5t-83 -37.5v-426h-63v522z" />
    <glyph glyph-name="nacute" unicode="&#x144;" horiz-adv-x="578" 
d="M83 522h56l5 -47q82 59 177 59q90 0 133 -48t43 -148v-338h-63v322q0 83 -27.5 118t-94.5 35q-45 0 -83 -11.5t-83 -37.5v-426h-63v522zM208 639l198 135l38 -55l-213 -119z" />
    <glyph glyph-name="nacute.loclPLK" horiz-adv-x="578" 
d="M83 522h56l5 -47q82 59 177 59q90 0 133 -48t43 -148v-338h-63v322q0 83 -27.5 118t-94.5 35q-45 0 -83 -11.5t-83 -37.5v-426h-63v522zM263 604l88 184l61 -28l-109 -178z" />
    <glyph glyph-name="napostrophe" unicode="&#x149;" horiz-adv-x="702" 
d="M207 522h56l5 -47q82 59 177 59q90 0 133 -48t43 -148v-338h-63v322q0 83 -27.5 118t-94.5 35q-45 0 -83 -11.5t-83 -37.5v-426h-63v522zM67 413q31 46 32 108h-33v90h85v-49q0 -54 -12.5 -96.5t-39.5 -78.5z" />
    <glyph glyph-name="ncaron" unicode="&#x148;" horiz-adv-x="578" 
d="M83 522h56l5 -47q82 59 177 59q90 0 133 -48t43 -148v-338h-63v322q0 83 -27.5 118t-94.5 35q-45 0 -83 -11.5t-83 -37.5v-426h-63v522zM152 765l39 31l114 -119l115 119l39 -31l-133 -150h-41z" />
    <glyph glyph-name="ncommaaccent" unicode="&#x146;" horiz-adv-x="578" 
d="M83 522h56l5 -47q82 59 177 59q90 0 133 -48t43 -148v-338h-63v322q0 83 -27.5 118t-94.5 35q-45 0 -83 -11.5t-83 -37.5v-426h-63v522zM249 -254q31 46 32 108h-33v90h85v-49q0 -54 -12.5 -96.5t-39.5 -78.5z" />
    <glyph glyph-name="eng" unicode="&#x14b;" horiz-adv-x="578" 
d="M296 -220l-12 55q25 -9 56 -9q20 0 38 6t29 19q15 16 21 47t6 85v339q0 83 -27.5 118t-94.5 35q-45 0 -83 -11.5t-83 -37.5v-426h-63v522h56l5 -47q82 59 177 59q90 0 133 -48t43 -148v-357q0 -67 -11 -108.5t-35 -64.5q-18 -18 -46 -26.5t-59 -8.5q-32 0 -50 7z" />
    <glyph glyph-name="ntilde" unicode="&#xf1;" horiz-adv-x="578" 
d="M83 522h56l5 -47q82 59 177 59q90 0 133 -48t43 -148v-338h-63v322q0 83 -27.5 118t-94.5 35q-45 0 -83 -11.5t-83 -37.5v-426h-63v522zM337 637.5q-19 8.5 -43 24.5q-21 13 -35.5 20t-28.5 7q-19 0 -32.5 -11.5t-28.5 -37.5l-32 21q19 45 41 66t56 21q21 0 40 -8.5
t43 -24.5q21 -13 35.5 -20t28.5 -7q19 0 32.5 11.5t28.5 37.5l32 -21q-19 -43 -41.5 -65t-55.5 -22q-21 0 -40 8.5z" />
    <glyph glyph-name="o" unicode="o" horiz-adv-x="565" 
d="M114.5 55.5q-54.5 66.5 -54.5 205.5t54.5 206t167.5 67q114 0 168.5 -66.5t54.5 -206.5q0 -139 -54.5 -205.5t-168.5 -66.5q-113 0 -167.5 66.5zM403 93.5q36 51.5 36 167.5q0 117 -36 168.5t-121 51.5q-84 0 -120 -51.5t-36 -168.5q0 -116 36 -167.5t120 -51.5
q85 0 121 51.5z" />
    <glyph glyph-name="oacute" unicode="&#xf3;" horiz-adv-x="565" 
d="M114.5 55.5q-54.5 66.5 -54.5 205.5t54.5 206t167.5 67q114 0 168.5 -66.5t54.5 -206.5q0 -139 -54.5 -205.5t-168.5 -66.5q-113 0 -167.5 66.5zM403 93.5q36 51.5 36 167.5q0 117 -36 168.5t-121 51.5q-84 0 -120 -51.5t-36 -168.5q0 -116 36 -167.5t120 -51.5
q85 0 121 51.5zM185 639l198 135l38 -55l-213 -119z" />
    <glyph glyph-name="oacute.loclPLK" horiz-adv-x="565" 
d="M114.5 55.5q-54.5 66.5 -54.5 205.5t54.5 206t167.5 67q114 0 168.5 -66.5t54.5 -206.5q0 -139 -54.5 -205.5t-168.5 -66.5q-113 0 -167.5 66.5zM403 93.5q36 51.5 36 167.5q0 117 -36 168.5t-121 51.5q-84 0 -120 -51.5t-36 -168.5q0 -116 36 -167.5t120 -51.5
q85 0 121 51.5zM240 604l88 184l61 -28l-109 -178z" />
    <glyph glyph-name="obreve" unicode="&#x14f;" horiz-adv-x="565" 
d="M114.5 55.5q-54.5 66.5 -54.5 205.5t54.5 206t167.5 67q114 0 168.5 -66.5t54.5 -206.5q0 -139 -54.5 -205.5t-168.5 -66.5q-113 0 -167.5 66.5zM403 93.5q36 51.5 36 167.5q0 117 -36 168.5t-121 51.5q-84 0 -120 -51.5t-36 -168.5q0 -116 36 -167.5t120 -51.5
q85 0 121 51.5zM191.5 648q-34.5 31 -42.5 83l49 10q19 -67 84 -67q66 0 85 67l49 -10q-8 -52 -43 -83t-91 -31t-90.5 31z" />
    <glyph glyph-name="ocircumflex" unicode="&#xf4;" horiz-adv-x="565" 
d="M114.5 55.5q-54.5 66.5 -54.5 205.5t54.5 206t167.5 67q114 0 168.5 -66.5t54.5 -206.5q0 -139 -54.5 -205.5t-168.5 -66.5q-113 0 -167.5 66.5zM403 93.5q36 51.5 36 167.5q0 117 -36 168.5t-121 51.5q-84 0 -120 -51.5t-36 -168.5q0 -116 36 -167.5t120 -51.5
q85 0 121 51.5zM129 635l133 150h41l133 -150l-39 -31l-115 119l-114 -119z" />
    <glyph glyph-name="odieresis" unicode="&#xf6;" horiz-adv-x="565" 
d="M114.5 55.5q-54.5 66.5 -54.5 205.5t54.5 206t167.5 67q114 0 168.5 -66.5t54.5 -206.5q0 -139 -54.5 -205.5t-168.5 -66.5q-113 0 -167.5 66.5zM403 93.5q36 51.5 36 167.5q0 117 -36 168.5t-121 51.5q-84 0 -120 -51.5t-36 -168.5q0 -116 36 -167.5t120 -51.5
q85 0 121 51.5zM138 719h75v-92h-75v92zM350 719h76v-92h-76v92z" />
    <glyph glyph-name="ograve" unicode="&#xf2;" horiz-adv-x="565" 
d="M114.5 55.5q-54.5 66.5 -54.5 205.5t54.5 206t167.5 67q114 0 168.5 -66.5t54.5 -206.5q0 -139 -54.5 -205.5t-168.5 -66.5q-113 0 -167.5 66.5zM403 93.5q36 51.5 36 167.5q0 117 -36 168.5t-121 51.5q-84 0 -120 -51.5t-36 -168.5q0 -116 36 -167.5t120 -51.5
q85 0 121 51.5zM143 719l38 55l197 -134l-23 -40z" />
    <glyph glyph-name="ohungarumlaut" unicode="&#x151;" horiz-adv-x="565" 
d="M114.5 55.5q-54.5 66.5 -54.5 205.5t54.5 206t167.5 67q114 0 168.5 -66.5t54.5 -206.5q0 -139 -54.5 -205.5t-168.5 -66.5q-113 0 -167.5 66.5zM403 93.5q36 51.5 36 167.5q0 117 -36 168.5t-121 51.5q-84 0 -120 -51.5t-36 -168.5q0 -116 36 -167.5t120 -51.5
q85 0 121 51.5zM103 636l165 144l41 -49l-176 -131zM305 636l165 144l41 -49l-176 -131z" />
    <glyph glyph-name="omacron" unicode="&#x14d;" horiz-adv-x="565" 
d="M114.5 55.5q-54.5 66.5 -54.5 205.5t54.5 206t167.5 67q114 0 168.5 -66.5t54.5 -206.5q0 -139 -54.5 -205.5t-168.5 -66.5q-113 0 -167.5 66.5zM403 93.5q36 51.5 36 167.5q0 117 -36 168.5t-121 51.5q-84 0 -120 -51.5t-36 -168.5q0 -116 36 -167.5t120 -51.5
q85 0 121 51.5zM143 698h287l-10 -55h-277v55z" />
    <glyph glyph-name="oslash" unicode="&#xf8;" horiz-adv-x="565" 
d="M83 -23l41 68q-64 65 -64 216q0 139 54.5 206t167.5 67q73 0 122 -27l39 65l45 -24l-44 -73q61 -67 61 -214q0 -139 -54.5 -205.5t-168.5 -66.5q-71 0 -117 25l-39 -64zM374 458q-33 23 -92 23q-84 0 -120 -51.5t-36 -168.5q0 -109 32 -161zM403 93.5q36 51.5 36 167.5
q0 106 -29 158l-216 -356q34 -21 88 -21q85 0 121 51.5z" />
    <glyph glyph-name="oslashacute" unicode="&#x1ff;" horiz-adv-x="565" 
d="M83 -23l41 68q-64 65 -64 216q0 139 54.5 206t167.5 67q73 0 122 -27l39 65l45 -24l-44 -73q61 -67 61 -214q0 -139 -54.5 -205.5t-168.5 -66.5q-71 0 -117 25l-39 -64zM374 458q-33 23 -92 23q-84 0 -120 -51.5t-36 -168.5q0 -109 32 -161zM403 93.5q36 51.5 36 167.5
q0 106 -29 158l-216 -356q34 -21 88 -21q85 0 121 51.5zM186 639l198 135l38 -55l-213 -119z" />
    <glyph glyph-name="otilde" unicode="&#xf5;" horiz-adv-x="565" 
d="M114.5 55.5q-54.5 66.5 -54.5 205.5t54.5 206t167.5 67q114 0 168.5 -66.5t54.5 -206.5q0 -139 -54.5 -205.5t-168.5 -66.5q-113 0 -167.5 66.5zM403 93.5q36 51.5 36 167.5q0 117 -36 168.5t-121 51.5q-84 0 -120 -51.5t-36 -168.5q0 -116 36 -167.5t120 -51.5
q85 0 121 51.5zM314 637.5q-19 8.5 -43 24.5q-21 13 -35.5 20t-28.5 7q-19 0 -32.5 -11.5t-28.5 -37.5l-32 21q19 45 41 66t56 21q21 0 40 -8.5t43 -24.5q21 -13 35.5 -20t28.5 -7q19 0 32.5 11.5t28.5 37.5l32 -21q-19 -43 -41.5 -65t-55.5 -22q-21 0 -40 8.5z" />
    <glyph glyph-name="oe" unicode="&#x153;" horiz-adv-x="913" 
d="M114.5 55.5q-54.5 66.5 -54.5 205.5t54.5 206t167.5 67q136 0 188 -96q24 49 69 72.5t115 23.5q71 0 114 -26.5t63 -83t20 -150.5v-41h-348q3 -102 45.5 -146.5t133.5 -44.5q37 0 72 5.5t78 18.5l-9 -54q-42 -12 -77 -17.5t-74 -5.5q-77 0 -126.5 23.5t-75.5 73.5
q-51 -97 -188 -97q-113 0 -167.5 66.5zM790 285q-1 103 -32 150t-103 47q-80 0 -115.5 -46t-35.5 -151h286zM403 93.5q36 51.5 36 167.5q0 117 -36 168.5t-121 51.5q-84 0 -120 -51.5t-36 -168.5q0 -116 36 -167.5t120 -51.5q85 0 121 51.5z" />
    <glyph glyph-name="p" unicode="p" horiz-adv-x="573" 
d="M83 522h54l6 -48q44 32 85 46t88 14q103 0 150 -62.5t47 -203.5q0 -148 -50.5 -213.5t-160.5 -65.5q-43 0 -79 9t-77 29v-246h-63v741zM386 65q32 22 46.5 70t14.5 129q0 117 -32.5 166.5t-108.5 49.5q-42 0 -78.5 -13t-81.5 -43v-346q44 -19 79 -27t74 -8q55 0 87 22z
" />
    <glyph glyph-name="thorn" unicode="&#xfe;" horiz-adv-x="573" 
d="M83 770h63v-294q43 31 83 44.5t87 13.5q103 0 150 -62.5t47 -203.5q0 -148 -50.5 -213.5t-160.5 -65.5q-43 0 -79 9t-77 29v-246h-63v989zM386 65q32 22 46.5 70t14.5 129q0 117 -32.5 166.5t-108.5 49.5q-42 0 -78.5 -13t-81.5 -43v-346q44 -19 79 -27t74 -8q55 0 87 22
z" />
    <glyph glyph-name="q" unicode="q" horiz-adv-x="575" 
d="M429 35q-64 -46 -156 -46q-109 0 -161 66t-52 202q0 141 53 209t163 68q79 0 156 -47l9 35h51v-741h-63v254zM361 53q35 10 68 32v351q-39 23 -73.5 33.5t-72.5 10.5q-83 0 -120 -52.5t-37 -171.5q0 -113 36 -163t118 -50q46 0 81 10z" />
    <glyph glyph-name="r" unicode="r" horiz-adv-x="339" 
d="M83 522h56l6 -55q57 67 135 67q14 0 29 -3v-61h-17q-82 0 -146 -55v-415h-63v522z" />
    <glyph glyph-name="racute" unicode="&#x155;" horiz-adv-x="339" 
d="M83 522h56l6 -55q57 67 135 67q14 0 29 -3v-61h-17q-82 0 -146 -55v-415h-63v522zM114 639l198 135l38 -55l-213 -119z" />
    <glyph glyph-name="rcaron" unicode="&#x159;" horiz-adv-x="339" 
d="M83 522h56l6 -55q57 67 135 67q14 0 29 -3v-61h-17q-82 0 -146 -55v-415h-63v522zM58 765l39 31l114 -119l115 119l39 -31l-133 -150h-41z" />
    <glyph glyph-name="rcommaaccent" unicode="&#x157;" horiz-adv-x="339" 
d="M83 522h56l6 -55q57 67 135 67q14 0 29 -3v-61h-17q-82 0 -146 -55v-415h-63v522zM73 -254q31 46 32 108h-33v90h85v-49q0 -54 -12.5 -96.5t-39.5 -78.5z" />
    <glyph glyph-name="s" unicode="s" horiz-adv-x="430" 
d="M54 14l-6 58q72 -30 149 -30q65 0 94.5 24t29.5 77q0 37 -20.5 57.5t-73.5 34.5l-47 13q-69 19 -100 52.5t-31 88.5q0 71 47 108t138 37q59 0 121 -18l4 -55q-60 20 -122 20q-66 0 -96 -21t-30 -67q0 -38 19.5 -57.5t66.5 -32.5l48 -12q75 -20 106.5 -53.5t31.5 -92.5
q0 -79 -46.5 -117.5t-141.5 -38.5q-81 0 -141 25z" />
    <glyph glyph-name="sacute" unicode="&#x15b;" horiz-adv-x="430" 
d="M54 14l-6 58q72 -30 149 -30q65 0 94.5 24t29.5 77q0 37 -20.5 57.5t-73.5 34.5l-47 13q-69 19 -100 52.5t-31 88.5q0 71 47 108t138 37q59 0 121 -18l4 -55q-60 20 -122 20q-66 0 -96 -21t-30 -67q0 -38 19.5 -57.5t66.5 -32.5l48 -12q75 -20 106.5 -53.5t31.5 -92.5
q0 -79 -46.5 -117.5t-141.5 -38.5q-81 0 -141 25zM121 639l198 135l38 -55l-213 -119z" />
    <glyph glyph-name="sacute.loclPLK" horiz-adv-x="430" 
d="M54 14l-6 58q72 -30 149 -30q65 0 94.5 24t29.5 77q0 37 -20.5 57.5t-73.5 34.5l-47 13q-69 19 -100 52.5t-31 88.5q0 71 47 108t138 37q59 0 121 -18l4 -55q-60 20 -122 20q-66 0 -96 -21t-30 -67q0 -38 19.5 -57.5t66.5 -32.5l48 -12q75 -20 106.5 -53.5t31.5 -92.5
q0 -79 -46.5 -117.5t-141.5 -38.5q-81 0 -141 25zM176 604l88 184l61 -28l-109 -178z" />
    <glyph glyph-name="scaron" unicode="&#x161;" horiz-adv-x="430" 
d="M54 14l-6 58q72 -30 149 -30q65 0 94.5 24t29.5 77q0 37 -20.5 57.5t-73.5 34.5l-47 13q-69 19 -100 52.5t-31 88.5q0 71 47 108t138 37q59 0 121 -18l4 -55q-60 20 -122 20q-66 0 -96 -21t-30 -67q0 -38 19.5 -57.5t66.5 -32.5l48 -12q75 -20 106.5 -53.5t31.5 -92.5
q0 -79 -46.5 -117.5t-141.5 -38.5q-81 0 -141 25zM65 765l39 31l114 -119l115 119l39 -31l-133 -150h-41z" />
    <glyph glyph-name="scedilla" unicode="&#x15f;" horiz-adv-x="430" 
d="M191 -11l-7 -44q22 2 32 2q46 0 70.5 -20t24.5 -61q0 -44 -29 -68t-81 -24q-33 0 -73 11l-4 39q37 -8 71 -8q33 0 49.5 11.5t16.5 37.5q0 23 -15.5 33.5t-50.5 10.5q-31 0 -61 -4l12 86q-53 6 -92 23l-6 58q72 -30 149 -30q65 0 94.5 24t29.5 77q0 37 -20.5 57.5
t-73.5 34.5l-47 13q-69 19 -100 52.5t-31 88.5q0 71 47 108t138 37q59 0 121 -18l4 -55q-60 20 -122 20q-66 0 -96 -21t-30 -67q0 -38 19.5 -57.5t66.5 -32.5l48 -12q75 -20 106.5 -53.5t31.5 -92.5q0 -79 -46.5 -117.5t-141.5 -38.5h-4z" />
    <glyph glyph-name="scircumflex" unicode="&#x15d;" horiz-adv-x="430" 
d="M54 14l-6 58q72 -30 149 -30q65 0 94.5 24t29.5 77q0 37 -20.5 57.5t-73.5 34.5l-47 13q-69 19 -100 52.5t-31 88.5q0 71 47 108t138 37q59 0 121 -18l4 -55q-60 20 -122 20q-66 0 -96 -21t-30 -67q0 -38 19.5 -57.5t66.5 -32.5l48 -12q75 -20 106.5 -53.5t31.5 -92.5
q0 -79 -46.5 -117.5t-141.5 -38.5q-81 0 -141 25zM65 635l133 150h41l133 -150l-39 -31l-115 119l-114 -119z" />
    <glyph glyph-name="scommaaccent" unicode="&#x219;" horiz-adv-x="430" 
d="M54 14l-6 58q72 -30 149 -30q65 0 94.5 24t29.5 77q0 37 -20.5 57.5t-73.5 34.5l-47 13q-69 19 -100 52.5t-31 88.5q0 71 47 108t138 37q59 0 121 -18l4 -55q-60 20 -122 20q-66 0 -96 -21t-30 -67q0 -38 19.5 -57.5t66.5 -32.5l48 -12q75 -20 106.5 -53.5t31.5 -92.5
q0 -79 -46.5 -117.5t-141.5 -38.5q-81 0 -141 25zM176 -254q31 46 32 108h-33v90h85v-49q0 -54 -12.5 -96.5t-39.5 -78.5z" />
    <glyph glyph-name="germandbls" unicode="&#xdf;" horiz-adv-x="639" 
d="M110 470h-92v52h92v45q0 109 62 160.5t154 51.5q91 0 140.5 -46t49.5 -118q0 -48 -15.5 -78.5t-55.5 -56.5l-30 -20q-37 -23 -50.5 -40t-13.5 -37q0 -25 18 -39.5t64 -33.5l38 -15q69 -28 95 -62t26 -85q0 -81 -50 -120t-133 -39q-34 0 -70 6.5t-65 17.5l-6 58
q72 -29 135 -29q61 0 94 27t33 78q0 34 -21 57t-79 47l-38 15q-56 22 -79.5 47.5t-23.5 66.5q0 38 18.5 62t62.5 53l31 19q28 19 41 41t13 61q0 50 -33 79.5t-97 29.5q-71 0 -111.5 -42.5t-40.5 -131.5v-650h-63v569z" />
    <glyph glyph-name="longs" unicode="&#x17f;" horiz-adv-x="316" 
d="M110 470h-92v52h92v90q0 86 38.5 126.5t120.5 40.5q29 0 69 -10l7 -55q-42 11 -73 11q-51 0 -75 -28.5t-24 -88.5v-608h-63v470z" />
    <glyph glyph-name="t" unicode="t" horiz-adv-x="337" 
d="M131.5 21q-28.5 32 -28.5 108v341h-89v52h90l12 128l50 4v-132h143l-8 -52h-135v-340q0 -47 15.5 -67t52.5 -20q45 0 78 8l-9 -54q-35 -8 -75 -8q-68 0 -96.5 32z" />
    <glyph glyph-name="tbar" unicode="&#x167;" horiz-adv-x="337" 
d="M131.5 21q-28.5 32 -28.5 108v122h-68v50h68v169h-89v52h90l12 128l50 4v-132h142l-7 -52h-135v-169h122v-50h-122v-121q0 -47 15.5 -67t52.5 -20q45 0 77 8l-8 -54q-35 -8 -75 -8q-68 0 -96.5 32z" />
    <glyph glyph-name="tcaron" unicode="&#x165;" horiz-adv-x="332" 
d="M131.5 21q-28.5 32 -28.5 108v341h-89v52h90l12 128l50 4v-132h143l-8 -52h-135v-340q0 -47 15.5 -67t52.5 -20q45 0 78 8l-9 -54q-35 -8 -75 -8q-68 0 -96.5 32zM242 595q31 46 32 108h-33v90h85v-49q0 -54 -12.5 -96.5t-39.5 -78.5z" />
    <glyph glyph-name="uni0163" unicode="&#x163;" horiz-adv-x="337" 
d="M131.5 21q-28.5 32 -28.5 108v341h-89v52h90l12 128l50 4v-132h143l-8 -52h-135v-340q0 -47 15.5 -67t52.5 -20q45 0 78 8l-9 -54q-35 -8 -75 -8q-68 0 -96.5 32zM171 -254q31 46 32 108h-33v90h85v-49q0 -54 -12.5 -96.5t-39.5 -78.5z" />
    <glyph glyph-name="uni021B" unicode="&#x21b;" horiz-adv-x="337" 
d="M131.5 21q-28.5 32 -28.5 108v341h-89v52h90l12 128l50 4v-132h143l-8 -52h-135v-340q0 -47 15.5 -67t52.5 -20q45 0 78 8l-9 -54q-35 -8 -75 -8q-68 0 -96.5 32zM171 -254q31 46 32 108h-33v90h85v-49q0 -54 -12.5 -96.5t-39.5 -78.5z" />
    <glyph glyph-name="u" unicode="u" horiz-adv-x="572" 
d="M130 40q-48 51 -48 166v316h63v-319q0 -87 32 -123t109 -36t109.5 36t32.5 123v319h62v-316q0 -115 -47.5 -166t-156.5 -51q-108 0 -156 51z" />
    <glyph glyph-name="uacute" unicode="&#xfa;" horiz-adv-x="572" 
d="M130 40q-48 51 -48 166v316h63v-319q0 -87 32 -123t109 -36t109.5 36t32.5 123v319h62v-316q0 -115 -47.5 -166t-156.5 -51q-108 0 -156 51zM189 639l198 135l38 -55l-213 -119z" />
    <glyph glyph-name="ubreve" unicode="&#x16d;" horiz-adv-x="572" 
d="M130 40q-48 51 -48 166v316h63v-319q0 -87 32 -123t109 -36t109.5 36t32.5 123v319h62v-316q0 -115 -47.5 -166t-156.5 -51q-108 0 -156 51zM195.5 648q-34.5 31 -42.5 83l49 10q19 -67 84 -67q66 0 85 67l49 -10q-8 -52 -43 -83t-91 -31t-90.5 31z" />
    <glyph glyph-name="ucircumflex" unicode="&#xfb;" horiz-adv-x="572" 
d="M130 40q-48 51 -48 166v316h63v-319q0 -87 32 -123t109 -36t109.5 36t32.5 123v319h62v-316q0 -115 -47.5 -166t-156.5 -51q-108 0 -156 51zM133 635l133 150h41l133 -150l-39 -31l-115 119l-114 -119z" />
    <glyph glyph-name="udieresis" unicode="&#xfc;" horiz-adv-x="572" 
d="M130 40q-48 51 -48 166v316h63v-319q0 -87 32 -123t109 -36t109.5 36t32.5 123v319h62v-316q0 -115 -47.5 -166t-156.5 -51q-108 0 -156 51zM142 719h75v-92h-75v92zM354 719h76v-92h-76v92z" />
    <glyph glyph-name="ugrave" unicode="&#xf9;" horiz-adv-x="572" 
d="M130 40q-48 51 -48 166v316h63v-319q0 -87 32 -123t109 -36t109.5 36t32.5 123v319h62v-316q0 -115 -47.5 -166t-156.5 -51q-108 0 -156 51zM147 719l38 55l197 -134l-23 -40z" />
    <glyph glyph-name="uhungarumlaut" unicode="&#x171;" horiz-adv-x="572" 
d="M130 40q-48 51 -48 166v316h63v-319q0 -87 32 -123t109 -36t109.5 36t32.5 123v319h62v-316q0 -115 -47.5 -166t-156.5 -51q-108 0 -156 51zM107 636l165 144l41 -49l-176 -131zM309 636l165 144l41 -49l-176 -131z" />
    <glyph glyph-name="umacron" unicode="&#x16b;" horiz-adv-x="572" 
d="M130 40q-48 51 -48 166v316h63v-319q0 -87 32 -123t109 -36t109.5 36t32.5 123v319h62v-316q0 -115 -47.5 -166t-156.5 -51q-108 0 -156 51zM147 698h287l-10 -55h-277v55z" />
    <glyph glyph-name="uogonek" unicode="&#x173;" horiz-adv-x="572" 
d="M304.5 -198.5q-25.5 22.5 -25.5 69.5q0 68 75 125q-28 -7 -68 -7q-108 0 -156 51t-48 166v316h63v-319q0 -87 32 -123t109 -36t109.5 36t32.5 123v319h62v-316q0 -65 -15 -109t-46 -69q-94 -82 -94 -148q0 -30 15.5 -44.5t48.5 -14.5q31 0 67 12l-7 -40q-32 -14 -75 -14
q-54 0 -79.5 22.5z" />
    <glyph glyph-name="uring" unicode="&#x16f;" horiz-adv-x="572" 
d="M130 40q-48 51 -48 166v316h63v-319q0 -87 32 -123t109 -36t109.5 36t32.5 123v319h62v-316q0 -115 -47.5 -166t-156.5 -51q-108 0 -156 51zM215 622q-27 27 -27 67q0 41 27 68t71 27t71 -27t27 -68q0 -40 -27 -67t-71 -27t-71 27zM322 650.5q14 15.5 14 38.5
q0 25 -14 40t-36 15t-36 -15t-14 -40q0 -23 14 -38.5t36 -15.5t36 15.5z" />
    <glyph glyph-name="utilde" unicode="&#x169;" horiz-adv-x="572" 
d="M130 40q-48 51 -48 166v316h63v-319q0 -87 32 -123t109 -36t109.5 36t32.5 123v319h62v-316q0 -115 -47.5 -166t-156.5 -51q-108 0 -156 51zM318 637.5q-19 8.5 -43 24.5q-21 13 -35.5 20t-28.5 7q-19 0 -32.5 -11.5t-28.5 -37.5l-32 21q19 45 41 66t56 21q21 0 40 -8.5
t43 -24.5q21 -13 35.5 -20t28.5 -7q19 0 32.5 11.5t28.5 37.5l32 -21q-19 -43 -41.5 -65t-55.5 -22q-21 0 -40 8.5z" />
    <glyph glyph-name="v" unicode="v" horiz-adv-x="476" 
d="M21 504v18h62l85 -239q46 -131 68 -201h4q29 94 68 201l89 239h57v-18l-192 -504h-52z" />
    <glyph glyph-name="w" unicode="w" horiz-adv-x="718" 
d="M21 504v18h64l69 -254q14 -49 28.5 -110.5t19.5 -92.5h2q6 35 20.5 95.5t28.5 107.5l74 254h68l77 -254q16 -53 31 -112t21 -91h2q9 52 47 203l64 254h59v-18l-144 -504h-58l-83 273q-26 86 -47 172h-3q-28 -102 -49 -173l-81 -272h-60z" />
    <glyph glyph-name="wacute" unicode="&#x1e83;" horiz-adv-x="718" 
d="M21 504v18h64l69 -254q14 -49 28.5 -110.5t19.5 -92.5h2q6 35 20.5 95.5t28.5 107.5l74 254h68l77 -254q16 -53 31 -112t21 -91h2q9 52 47 203l64 254h59v-18l-144 -504h-58l-83 273q-26 86 -47 172h-3q-28 -102 -49 -173l-81 -272h-60zM264 639l198 135l38 -55
l-213 -119z" />
    <glyph glyph-name="wcircumflex" unicode="&#x175;" horiz-adv-x="718" 
d="M21 504v18h64l69 -254q14 -49 28.5 -110.5t19.5 -92.5h2q6 35 20.5 95.5t28.5 107.5l74 254h68l77 -254q16 -53 31 -112t21 -91h2q9 52 47 203l64 254h59v-18l-144 -504h-58l-83 273q-26 86 -47 172h-3q-28 -102 -49 -173l-81 -272h-60zM208 635l133 150h41l133 -150
l-39 -31l-115 119l-114 -119z" />
    <glyph glyph-name="wdieresis" unicode="&#x1e85;" horiz-adv-x="718" 
d="M21 504v18h64l69 -254q14 -49 28.5 -110.5t19.5 -92.5h2q6 35 20.5 95.5t28.5 107.5l74 254h68l77 -254q16 -53 31 -112t21 -91h2q9 52 47 203l64 254h59v-18l-144 -504h-58l-83 273q-26 86 -47 172h-3q-28 -102 -49 -173l-81 -272h-60zM217 719h75v-92h-75v92zM429 719
h76v-92h-76v92z" />
    <glyph glyph-name="wgrave" unicode="&#x1e81;" horiz-adv-x="718" 
d="M21 504v18h64l69 -254q14 -49 28.5 -110.5t19.5 -92.5h2q6 35 20.5 95.5t28.5 107.5l74 254h68l77 -254q16 -53 31 -112t21 -91h2q9 52 47 203l64 254h59v-18l-144 -504h-58l-83 273q-26 86 -47 172h-3q-28 -102 -49 -173l-81 -272h-60zM222 719l38 55l197 -134l-23 -40z
" />
    <glyph glyph-name="x" unicode="x" horiz-adv-x="480" 
d="M30 17l173 249l-167 238v18h60l142 -213l139 213h55v-18l-160 -238l178 -249v-17h-58l-157 225l-148 -225h-57v17z" />
    <glyph glyph-name="y" unicode="y" horiz-adv-x="481" 
d="M130 -201l80 192l-189 513v18h62l87 -246q47 -135 70 -213h3q10 34 30.5 98t39.5 115l90 246h57v-18l-270 -723h-60v18z" />
    <glyph glyph-name="yacute" unicode="&#xfd;" horiz-adv-x="481" 
d="M130 -201l80 192l-189 513v18h62l87 -246q47 -135 70 -213h3q10 34 30.5 98t39.5 115l90 246h57v-18l-270 -723h-60v18zM144 639l198 135l38 -55l-213 -119z" />
    <glyph glyph-name="ycircumflex" unicode="&#x177;" horiz-adv-x="481" 
d="M130 -201l80 192l-189 513v18h62l87 -246q47 -135 70 -213h3q10 34 30.5 98t39.5 115l90 246h57v-18l-270 -723h-60v18zM88 635l133 150h41l133 -150l-39 -31l-115 119l-114 -119z" />
    <glyph glyph-name="ydieresis" unicode="&#xff;" horiz-adv-x="481" 
d="M130 -201l80 192l-189 513v18h62l87 -246q47 -135 70 -213h3q10 34 30.5 98t39.5 115l90 246h57v-18l-270 -723h-60v18zM97 719h75v-92h-75v92zM309 719h76v-92h-76v92z" />
    <glyph glyph-name="ygrave" unicode="&#x1ef3;" horiz-adv-x="481" 
d="M130 -201l80 192l-189 513v18h62l87 -246q47 -135 70 -213h3q10 34 30.5 98t39.5 115l90 246h57v-18l-270 -723h-60v18zM102 719l38 55l197 -134l-23 -40z" />
    <glyph glyph-name="z" unicode="z" horiz-adv-x="449" 
d="M47 38l274 432h-265l13 52h328v-38l-274 -432h279l-10 -52h-332z" />
    <glyph glyph-name="zacute" unicode="&#x17a;" horiz-adv-x="449" 
d="M47 38l274 432h-265l13 52h328v-38l-274 -432h279l-10 -52h-332zM136 639l198 135l38 -55l-213 -119z" />
    <glyph glyph-name="zacute.loclPLK" horiz-adv-x="449" 
d="M47 38l274 432h-265l13 52h328v-38l-274 -432h279l-10 -52h-332zM191 604l88 184l61 -28l-109 -178z" />
    <glyph glyph-name="zcaron" unicode="&#x17e;" horiz-adv-x="449" 
d="M47 38l274 432h-265l13 52h328v-38l-274 -432h279l-10 -52h-332zM80 765l39 31l114 -119l115 119l39 -31l-133 -150h-41z" />
    <glyph glyph-name="zdotaccent" unicode="&#x17c;" horiz-adv-x="449" 
d="M47 38l274 432h-265l13 52h328v-38l-274 -432h279l-10 -52h-332zM195 719h75v-92h-75v92z" />
    <glyph glyph-name="ordfeminine" unicode="&#xaa;" horiz-adv-x="339" 
d="M57 447q-27 28 -27 72q0 52 37 76.5t100 24.5h66v23q0 41 -16 57q-19 19 -66 19q-49 0 -95 -16v45q45 16 100 16q63 0 97 -29q17 -14 24.5 -34t7.5 -50v-160q0 -20 7.5 -27t29.5 -8l-6 -35q-12 -2 -23 -2q-22 0 -37 11.5t-18 31.5q-41 -43 -103 -43q-51 0 -78 28z
M192.5 471.5q24.5 10.5 40.5 28.5v78h-70q-41 0 -60.5 -14.5t-19.5 -43.5q0 -27 16 -43t46 -16q23 0 47.5 10.5z" />
    <glyph glyph-name="ordmasculine" unicode="&#xba;" horiz-adv-x="377" 
d="M82 462.5q-38 43.5 -38 129.5t38 129t107 43q68 0 106 -43t38 -129t-38 -129.5t-106 -43.5q-69 0 -107 43.5zM255.5 493.5q22.5 29.5 22.5 98.5t-22.5 97.5t-66.5 28.5q-45 0 -67.5 -28.5t-22.5 -97.5t22.5 -98.5t67.5 -29.5q44 0 66.5 29.5z" />
    <glyph glyph-name="uni0394" unicode="&#x394;" horiz-adv-x="651" 
d="M39 47l243 697h79l251 -699v-45h-573v47zM542 57l-218 619h-4l-211 -619h433z" />
    <glyph glyph-name="uni03A9" unicode="&#x3a9;" horiz-adv-x="750" 
d="M68 54h157q-149 113 -149 342q0 117 37.5 198t105 122t156.5 41t156.5 -41t105 -122t37.5 -198q0 -229 -149 -342h157l-8 -54h-233l-13 46q84 42 130.5 131t46.5 222q0 145 -58 222.5t-172 77.5t-172 -77.5t-58 -222.5q0 -133 46.5 -222t130.5 -131l-13 -46h-233z" />
    <glyph glyph-name="uni03BC" unicode="&#x3bc;" horiz-adv-x="573" 
d="M83 522h63v-319q0 -48 8.5 -77t26.5 -48q31 -34 106 -34q76 0 107 34q18 19 26.5 48t8.5 77v319h63v-316q0 -58 -11.5 -99t-37.5 -68q-47 -50 -156 -50q-94 0 -141 41v-249h-63v741z" />
    <glyph glyph-name="pi" unicode="&#x3c0;" horiz-adv-x="641" 
d="M446 16q-16 16 -23 41t-7 64v349h-235v-470h-62v470h-102v52h575l-11 -52h-103v-340q0 -35 4.5 -53t18 -26t40.5 -8q30 0 49 6l-8 -51q-36 -9 -58 -9q-51 0 -78 27z" />
    <glyph glyph-name="zero" unicode="0" horiz-adv-x="604" 
d="M165.5 28q-51.5 39 -74.5 123t-23 223q0 138 23 221.5t74 122.5t137 39q85 0 136 -39t74.5 -122.5t23.5 -221.5q0 -139 -23.5 -223t-74.5 -123t-136 -39t-136.5 39zM398.5 79.5q35.5 32.5 52 103.5t16.5 191q0 119 -16.5 189.5t-52 103t-96.5 32.5t-96.5 -32.5t-52 -103
t-16.5 -189.5q0 -120 16.5 -191t52 -103.5t96.5 -32.5t96.5 32.5z" />
    <glyph glyph-name="one" unicode="1" horiz-adv-x="385" 
d="M184 683l-155 -67l-20 51l176 77h62v-744h-63v683z" />
    <glyph glyph-name="two" unicode="2" horiz-adv-x="507" 
d="M44 51q130 144 212 240q61 72 90 133t29 124q0 151 -161 151q-73 0 -166 -29v59q85 28 169 28q113 0 170 -54t57 -150q0 -57 -15.5 -104t-47.5 -94.5t-90 -114.5q-41 -47 -139 -156q-24 -27 -23 -26h320v-58h-405v51z" />
    <glyph glyph-name="three" unicode="3" horiz-adv-x="525" 
d="M32 19v62q86 -33 171 -33q92 0 141 42t50 121q-1 79 -50 116.5t-150 37.5h-49v56h44q88 0 134.5 38t47.5 109q-1 65 -38.5 98.5t-110.5 33.5q-74 0 -170 -32v60q87 29 173 29q101 0 156.5 -48.5t56.5 -134.5q-1 -123 -117 -173v-2q70 -19 105.5 -68t36.5 -125
q-1 -103 -68 -160t-188 -57q-97 0 -175 30z" />
    <glyph glyph-name="four" unicode="4" horiz-adv-x="606" 
d="M407 183h-352v55l248 506h64v-11l-242 -492h282v248h66v-248h87v-58h-87v-183h-66v183z" />
    <glyph glyph-name="five" unicode="5" horiz-adv-x="553" 
d="M157 -3q-48 8 -80 21v59q89 -32 169 -32q86 0 131 44t45 129q0 169 -183 169q-64 0 -152 -22l22 379h333v-58h-276l-15 -257q50 12 102 12q112 0 174.5 -57t62.5 -167q0 -108 -62.5 -168t-178.5 -60q-44 0 -92 8z" />
    <glyph glyph-name="six" unicode="6" horiz-adv-x="588" 
d="M70 343q0 205 76.5 309.5t218.5 104.5q46 0 87 -10l1 -55q-46 10 -85 10q-102 0 -161 -76t-68 -221q96 48 180 48q98 0 152 -57.5t54 -166.5q0 -73 -27 -127t-76 -83.5t-115 -29.5q-237 0 -237 354zM417 94q42 49 42 138q0 83 -36.5 124t-110.5 41q-80 0 -174 -48
q1 -147 40.5 -225.5t128.5 -78.5q68 0 110 49z" />
    <glyph glyph-name="seven" unicode="7" horiz-adv-x="519" 
d="M411 686h-371v58h442v-50l-303 -694h-69z" />
    <glyph glyph-name="eight" unicode="8" horiz-adv-x="604" 
d="M174.5 14q-53.5 25 -81 69t-27.5 100q0 135 171 214q-61 33 -95.5 76t-34.5 108q0 79 52 127.5t147 48.5t148.5 -48t53.5 -123q0 -60 -36.5 -104t-109.5 -80q54 -27 91 -53.5t61 -66.5t24 -96q0 -89 -62 -143t-173 -54q-75 0 -128.5 25zM445 587q0 51 -36 83t-101 32
q-66 0 -102 -32.5t-36 -85.5q0 -55 35.5 -89t102.5 -67q137 60 137 159zM426 84.5q44 39.5 44 103.5q0 44 -19.5 74t-55 52.5t-103.5 55.5q-160 -64 -160 -182q0 -64 44.5 -103.5t125.5 -39.5q80 0 124 39.5z" />
    <glyph glyph-name="nine" unicode="9" horiz-adv-x="588" 
d="M126 4l-1 56q55 -16 108 -16q99 0 153.5 72t62.5 225q-96 -48 -180 -48q-98 0 -152 57.5t-54 163.5q0 113 59.5 178t161.5 65q119 0 176.5 -93.5t57.5 -271.5q0 -403 -284 -403q-52 0 -108 15zM450 397q-2 304 -169 304q-69 0 -110.5 -49t-41.5 -140q0 -163 146 -163
q81 0 175 48z" />
    <glyph glyph-name="zero.tf" horiz-adv-x="580" 
d="M153.5 28q-51.5 39 -74.5 123t-23 223q0 138 23 221.5t74 122.5t137 39q85 0 136 -39t74.5 -122.5t23.5 -221.5q0 -139 -23.5 -223t-74.5 -123t-136 -39t-136.5 39zM386.5 79.5q35.5 32.5 52 103.5t16.5 191q0 119 -16.5 189.5t-52 103t-96.5 32.5t-96.5 -32.5t-52 -103
t-16.5 -189.5q0 -120 16.5 -191t52 -103.5t96.5 -32.5t96.5 32.5z" />
    <glyph glyph-name="one.tf" horiz-adv-x="580" 
d="M269 683l-155 -67l-20 51l176 77h62v-744h-63v683z" />
    <glyph glyph-name="two.tf" horiz-adv-x="580" 
d="M82 51q130 144 212 240q61 72 90 133t29 124q0 151 -161 151q-73 0 -166 -29v59q85 28 169 28q113 0 170 -54t57 -150q0 -57 -15.5 -104t-47.5 -94.5t-90 -114.5q-41 -47 -139 -156q-24 -27 -23 -26h320v-58h-405v51z" />
    <glyph glyph-name="three.tf" horiz-adv-x="580" 
d="M68 19v62q86 -33 171 -33q92 0 141 42t50 121q-1 79 -50 116.5t-150 37.5h-49v56h44q88 0 134.5 38t47.5 109q-1 65 -38.5 98.5t-110.5 33.5q-74 0 -170 -32v60q87 29 173 29q101 0 156.5 -48.5t56.5 -134.5q-1 -123 -117 -173v-2q70 -19 105.5 -68t36.5 -125
q-1 -103 -68 -160t-188 -57q-97 0 -175 30z" />
    <glyph glyph-name="four.tf" horiz-adv-x="580" 
d="M397 183h-352v55l248 506h64v-11l-242 -492h282v248h66v-248h87v-58h-87v-183h-66v183z" />
    <glyph glyph-name="five.tf" horiz-adv-x="580" 
d="M178 -3q-48 8 -80 21v59q89 -32 169 -32q86 0 131 44t45 129q0 169 -183 169q-64 0 -152 -22l22 379h333v-58h-276l-15 -257q50 12 102 12q112 0 174.5 -57t62.5 -167q0 -108 -62.5 -168t-178.5 -60q-44 0 -92 8z" />
    <glyph glyph-name="six.tf" horiz-adv-x="580" 
d="M72 343q0 205 76.5 309.5t218.5 104.5q46 0 87 -10l1 -55q-46 10 -85 10q-102 0 -161 -76t-68 -221q96 48 180 48q98 0 152 -57.5t54 -166.5q0 -73 -27 -127t-76 -83.5t-115 -29.5q-237 0 -237 354zM419 94q42 49 42 138q0 83 -36.5 124t-110.5 41q-80 0 -174 -48
q1 -147 40.5 -225.5t128.5 -78.5q68 0 110 49z" />
    <glyph glyph-name="seven.tf" horiz-adv-x="580" 
d="M442 686h-371v58h442v-50l-303 -694h-69z" />
    <glyph glyph-name="eight.tf" horiz-adv-x="580" 
d="M162.5 14q-53.5 25 -81 69t-27.5 100q0 135 171 214q-61 33 -95.5 76t-34.5 108q0 79 52 127.5t147 48.5t148.5 -48t53.5 -123q0 -60 -36.5 -104t-109.5 -80q54 -27 91 -53.5t61 -66.5t24 -96q0 -89 -62 -143t-173 -54q-75 0 -128.5 25zM433 587q0 51 -36 83t-101 32
q-66 0 -102 -32.5t-36 -85.5q0 -55 35.5 -89t102.5 -67q137 60 137 159zM414 84.5q44 39.5 44 103.5q0 44 -19.5 74t-55 52.5t-103.5 55.5q-160 -64 -160 -182q0 -64 44.5 -103.5t125.5 -39.5q80 0 124 39.5z" />
    <glyph glyph-name="nine.tf" horiz-adv-x="580" 
d="M116 4l-1 56q55 -16 108 -16q99 0 153.5 72t62.5 225q-96 -48 -180 -48q-98 0 -152 57.5t-54 163.5q0 113 59.5 178t161.5 65q119 0 176.5 -93.5t57.5 -271.5q0 -403 -284 -403q-52 0 -108 15zM440 397q-2 304 -169 304q-69 0 -110.5 -49t-41.5 -140q0 -163 146 -163
q81 0 175 48z" />
    <glyph glyph-name="uni00B9" unicode="&#xb9;" horiz-adv-x="352" 
d="M165 708l-83 -45l-23 41l113 64h48v-396h-55v336z" />
    <glyph glyph-name="uni00B2" unicode="&#xb2;" horiz-adv-x="352" 
d="M60 414q96 76 142.5 135.5t46.5 111.5q0 68 -82 68q-49 0 -99 -20v47q51 18 103 18q65 0 100 -28t35 -82q0 -58 -43 -114.5t-139 -134.5h182v-43h-246v42z" />
    <glyph glyph-name="uni00B3" unicode="&#xb3;" horiz-adv-x="352" 
d="M56 380v44q56 -13 96 -13q49 0 72.5 18.5t23.5 56.5q0 39 -26.5 57t-86.5 18h-12v42h16q103 0 103 69q0 58 -82 58q-48 0 -98 -16v44q21 7 50.5 11.5t54.5 4.5q60 0 94.5 -27t34.5 -74q0 -66 -73 -89q41 -10 62 -35.5t21 -65.5q0 -56 -40.5 -86.5t-112.5 -30.5
q-52 0 -97 14z" />
    <glyph glyph-name="fraction" unicode="&#x2044;" horiz-adv-x="157" 
d="M-161 20l425 724h54v-20l-425 -724h-54v20z" />
    <glyph glyph-name="onehalf" unicode="&#xbd;" horiz-adv-x="814" 
d="M163 684l-83 -45l-23 41l113 64h48v-396h-55v336zM132 20l425 724h54v-20l-425 -724h-54v20zM490 42q96 76 142.5 135.5t46.5 111.5q0 68 -82 68q-49 0 -99 -20v47q51 18 103 18q65 0 100 -28t35 -82q0 -58 -43 -114.5t-139 -134.5h182v-43h-246v42z" />
    <glyph glyph-name="onequarter" unicode="&#xbc;" horiz-adv-x="814" 
d="M163 684l-83 -45l-23 41l113 64h48v-396h-55v336zM144 20l425 724h54v-20l-425 -724h-54v20zM644 93h-198v44l139 259h55v-6l-136 -251h140v113h52v-113h56v-46h-56v-93h-52v93z" />
    <glyph glyph-name="threequarters" unicode="&#xbe;" horiz-adv-x="814" 
d="M58 363v44q56 -13 96 -13q49 0 72.5 18.5t23.5 56.5q0 39 -26.5 57t-86.5 18h-12v42h16q103 0 103 69q0 58 -82 58q-48 0 -98 -16v44q21 7 50.5 11.5t54.5 4.5q60 0 94.5 -27t34.5 -74q0 -66 -73 -89q41 -10 62 -35.5t21 -65.5q0 -56 -40.5 -86.5t-112.5 -30.5
q-52 0 -97 14zM166 20l425 724h54v-20l-425 -724h-54v20zM645 93h-198v44l139 259h55v-6l-136 -251h140v113h52v-113h56v-46h-56v-93h-52v93z" />
    <glyph glyph-name="asterisk" unicode="*" horiz-adv-x="439" 
d="M91 536l101 109l-130 20l27 75l114 -68l-24 152h84l-28 -150l116 66l26 -75l-131 -20l104 -110l-62 -41l-68 127l-69 -127z" />
    <glyph glyph-name="backslash" unicode="\" horiz-adv-x="389" 
d="M52 748v9h61l224 -759v-9h-60z" />
    <glyph glyph-name="periodcentered" unicode="&#xb7;" horiz-adv-x="232" 
d="M75 357h82v-85h-82v85z" />
    <glyph glyph-name="bullet" unicode="&#x2022;" horiz-adv-x="454" 
d="M112 178q-43 44 -43 118t43 118t115 44t115 -44t43 -118t-43 -118t-115 -44t-115 44z" />
    <glyph glyph-name="asterisk.case" horiz-adv-x="439" 
d="M91 460l101 109l-130 20l27 75l114 -68l-24 152h84l-28 -150l116 66l26 -75l-131 -20l104 -110l-62 -41l-68 127l-69 -127z" />
    <glyph glyph-name="periodcentered.case" horiz-adv-x="232" 
d="M75 422h82v-85h-82v85z" />
    <glyph glyph-name="bullet.case" horiz-adv-x="454" 
d="M112 244q-43 44 -43 118t43 118t115 44t115 -44t43 -118t-43 -118t-115 -44t-115 44z" />
    <glyph glyph-name="exclamdown.case" horiz-adv-x="234" 
d="M158 655h-82v89h82v-89zM156 0h-78l12 552h54z" />
    <glyph glyph-name="questiondown.case" horiz-adv-x="451" 
d="M323 655h-82v89h82v-89zM317 462q0 -42 -11 -63.5t-50 -51.5l-70 -54q-38 -30 -56 -58.5t-18 -69.5q0 -59 36 -89.5t103 -30.5q81 0 169 40v-63q-83 -35 -175 -35q-93 0 -148 46.5t-55 128.5q0 53 24 93.5t74 79.5l71 55q27 21 34 35.5t7 42.5v61h65v-67z" />
    <glyph glyph-name="colon" unicode=":" horiz-adv-x="232" 
d="M75 507h82v-89h-82v89zM75 89h82v-89h-82v89z" />
    <glyph glyph-name="comma" unicode="," horiz-adv-x="235" 
d="M49 -148q31 32 47.5 67.5t17.5 80.5h-33v89h85v-48q0 -71 -22 -123t-71 -95z" />
    <glyph glyph-name="ellipsis" unicode="&#x2026;" horiz-adv-x="655" 
d="M75 89h82v-89h-82v89zM286 89h83v-89h-83v89zM498 89h82v-89h-82v89z" />
    <glyph glyph-name="exclam" unicode="!" horiz-adv-x="234" 
d="M78 744h78l-12 -552h-54zM76 89h82v-89h-82v89z" />
    <glyph glyph-name="exclamdown" unicode="&#xa1;" horiz-adv-x="234" 
d="M158 433h-82v89h82v-89zM156 -222h-78l12 552h54z" />
    <glyph glyph-name="numbersign" unicode="#" horiz-adv-x="580" 
d="M144 231h-131l9 57h131l24 150h-131l9 58h131l38 248h65l-37 -248h118l39 248h66q0 -1 -6.5 -35.5t-32.5 -212.5h132l-9 -58h-131l-24 -150h131l-9 -57h-132l-35 -231h-66l35 231h-118l-36 -231h-66zM339 288l24 150h-120l-24 -150h120z" />
    <glyph glyph-name="period" unicode="." horiz-adv-x="232" 
d="M75 89h82v-89h-82v89z" />
    <glyph glyph-name="question" unicode="?" horiz-adv-x="452" 
d="M135 282q0 42 11 63.5t50 51.5l70 54q38 30 56 58.5t18 69.5q0 59 -36 89.5t-103 30.5q-81 0 -169 -40v63q83 35 175 35q93 0 148 -46.5t55 -128.5q0 -53 -24 -93.5t-74 -79.5l-71 -55q-27 -21 -34 -35.5t-7 -42.5v-61h-65v67zM129 89h82v-89h-82v89z" />
    <glyph glyph-name="questiondown" unicode="&#xbf;" horiz-adv-x="451" 
d="M323 433h-82v89h82v-89zM317 240q0 -42 -11 -63.5t-50 -51.5l-70 -54q-38 -30 -56 -58.5t-18 -69.5q0 -59 36 -89.5t103 -30.5q81 0 169 40v-63q-83 -35 -175 -35q-93 0 -148 46.5t-55 128.5q0 53 24 93.5t74 79.5l71 55q27 21 34 35.5t7 42.5v61h65v-67z" />
    <glyph glyph-name="quotedbl" unicode="&#x22;" horiz-adv-x="349" 
d="M64 798h66l-8 -250h-50zM219 798h66l-8 -250h-50z" />
    <glyph glyph-name="quotesingle" unicode="'" horiz-adv-x="194" 
d="M64 798h66l-8 -250h-50z" />
    <glyph glyph-name="semicolon" unicode=";" horiz-adv-x="235" 
d="M83 507h82v-89h-82v89zM49 -148q31 32 47.5 67.5t17.5 80.5h-33v89h85v-48q0 -71 -22 -123t-71 -95z" />
    <glyph glyph-name="slash" unicode="/" horiz-adv-x="389" 
d="M52 -2l225 759h60v-9l-224 -759h-61v9z" />
    <glyph glyph-name="underscore" unicode="_" horiz-adv-x="514" 
d="M-13 -93h540l-7 -55h-533v55z" />
    <glyph glyph-name="braceleft" unicode="{" horiz-adv-x="352" 
d="M180.5 -113.5q-33.5 33.5 -33.5 107.5v178q0 49 -20.5 74t-60.5 33v60q40 8 60.5 33t20.5 74v177q0 74 33.5 107.5t103.5 33.5h40l12 -57h-42q-47 0 -64 -20t-17 -74v-145q0 -70 -19 -103t-70 -55v-2q35 -15 54 -33.5t27 -47.5t8 -77v-147q0 -53 17.5 -73.5t63.5 -20.5
h42l-12 -56h-40q-70 0 -103.5 33.5z" />
    <glyph glyph-name="braceright" unicode="}" horiz-adv-x="352" 
d="M16 -91h42q47 0 64 20t17 74v147q0 70 19 103t71 55v2q-52 22 -71 55t-19 103v145q0 54 -17 74t-64 20h-42l12 57h40q71 0 104 -33.5t33 -107.5v-177q0 -49 20.5 -74t60.5 -33v-60q-40 -8 -60.5 -33t-20.5 -74v-178q0 -74 -33 -107.5t-104 -33.5h-40z" />
    <glyph glyph-name="bracketleft" unicode="[" horiz-adv-x="338" 
d="M105 757h181l12 -56h-127v-800h127l-13 -57h-180v913z" />
    <glyph glyph-name="bracketright" unicode="]" horiz-adv-x="338" 
d="M40 -99h127v800h-127l13 56h180v-913h-182z" />
    <glyph glyph-name="braceleft.case" horiz-adv-x="352" 
d="M180.5 -48.5q-33.5 33.5 -33.5 107.5v178q0 49 -20.5 74t-60.5 33v60q40 8 60.5 33t20.5 74v177q0 74 33.5 107.5t103.5 33.5h40l12 -57h-42q-47 0 -64 -20t-17 -74v-145q0 -70 -19 -103t-70 -55v-2q35 -15 54 -33.5t27 -47.5t8 -77v-147q0 -53 17.5 -73.5t63.5 -20.5h42
l-12 -56h-40q-70 0 -103.5 33.5z" />
    <glyph glyph-name="braceright.case" horiz-adv-x="351" 
d="M15 -26h42q47 0 64 20t17 74v147q0 70 19 103t71 55v2q-52 22 -71 55t-19 103v145q0 54 -17 74t-64 20h-42l12 57h40q71 0 104 -33.5t33 -107.5v-177q0 -49 20.5 -74t60.5 -33v-60q-40 -8 -60.5 -33t-20.5 -74v-178q0 -74 -33 -107.5t-104 -33.5h-40z" />
    <glyph glyph-name="bracketleft.case" horiz-adv-x="338" 
d="M120 822h181l12 -56h-127v-800h127l-13 -57h-180v913z" />
    <glyph glyph-name="bracketright.case" horiz-adv-x="338" 
d="M25 -34h127v800h-127l13 56h180v-913h-182z" />
    <glyph glyph-name="parenleft.case" horiz-adv-x="354" 
d="M158.5 145.5q-46.5 112.5 -46.5 240.5q0 127 46.5 239.5t129.5 218.5l43 -32q-77 -109 -114 -208.5t-37 -217.5t37 -218t114 -209l-43 -31q-83 105 -129.5 217.5z" />
    <glyph glyph-name="parenright.case" horiz-adv-x="354" 
d="M23 -41q77 109 114 209t37 218t-37 217.5t-114 208.5l43 32q83 -107 129.5 -219t46.5 -239t-46.5 -239.5t-129.5 -218.5z" />
    <glyph glyph-name="parenleft" unicode="(" horiz-adv-x="354" 
d="M153.5 80.5q-46.5 112.5 -46.5 240.5q0 127 46.5 239.5t129.5 218.5l43 -32q-77 -109 -114 -208.5t-37 -217.5t37 -218t114 -209l-43 -31q-83 105 -129.5 217.5z" />
    <glyph glyph-name="parenright" unicode=")" horiz-adv-x="354" 
d="M28 -106q77 109 114 209t37 218t-37 217.5t-114 208.5l43 32q83 -107 129.5 -219t46.5 -239t-46.5 -239.5t-129.5 -218.5z" />
    <glyph glyph-name="emdash.case" horiz-adv-x="1084" 
d="M13 399h1058l-7 -55h-1051v55z" />
    <glyph glyph-name="endash.case" horiz-adv-x="544" 
d="M13 399h518l-7 -55h-511v55z" />
    <glyph glyph-name="hyphen.case" horiz-adv-x="301" 
d="M52 399h197l-7 -55h-190v55z" />
    <glyph glyph-name="uni00AD.case" horiz-adv-x="301" 
d="M52 399h197l-7 -55h-190v55z" />
    <glyph glyph-name="emdash" unicode="&#x2014;" horiz-adv-x="1084" 
d="M13 313h1058l-7 -55h-1051v55z" />
    <glyph glyph-name="endash" unicode="&#x2013;" horiz-adv-x="544" 
d="M13 313h518l-7 -55h-511v55z" />
    <glyph glyph-name="hyphen" unicode="-" horiz-adv-x="301" 
d="M52 313h197l-7 -55h-190v55z" />
    <glyph glyph-name="uni00AD" unicode="&#xad;" horiz-adv-x="301" 
d="M52 313h197l-7 -55h-190v55z" />
    <glyph glyph-name="guillemotleft.case" horiz-adv-x="516" 
d="M50 368v15l147 204l49 -28l-126 -184l127 -183l-49 -31zM267 368v15l147 204l49 -28l-126 -184l127 -183l-49 -31z" />
    <glyph glyph-name="guillemotright.case" horiz-adv-x="515" 
d="M52 192l126 183l-125 184l48 28l147 -204v-15l-148 -207zM269 192l126 183l-125 184l48 28l147 -204v-15l-148 -207z" />
    <glyph glyph-name="guilsinglleft.case" horiz-adv-x="299" 
d="M50 368v15l147 204l49 -28l-126 -184l127 -183l-49 -31z" />
    <glyph glyph-name="guilsinglright.case" horiz-adv-x="298" 
d="M52 192l126 183l-125 184l48 28l147 -204v-15l-148 -207z" />
    <glyph glyph-name="guillemotleft" unicode="&#xab;" horiz-adv-x="516" 
d="M47 238v15l147 204l49 -28l-126 -184l127 -183l-49 -31zM264 238v15l147 204l49 -28l-126 -184l127 -183l-49 -31z" />
    <glyph glyph-name="guillemotright" unicode="&#xbb;" horiz-adv-x="515" 
d="M55 62l126 183l-125 184l48 28l147 -204v-15l-148 -207zM272 62l126 183l-125 184l48 28l147 -204v-15l-148 -207z" />
    <glyph glyph-name="guilsinglleft" unicode="&#x2039;" horiz-adv-x="299" 
d="M47 238v15l147 204l49 -28l-126 -184l127 -183l-49 -31z" />
    <glyph glyph-name="guilsinglright" unicode="&#x203a;" horiz-adv-x="298" 
d="M55 62l126 183l-125 184l48 28l147 -204v-15l-148 -207z" />
    <glyph glyph-name="quotedblbase" unicode="&#x201e;" horiz-adv-x="394" 
d="M40 -159q30 32 46.5 67.5t17.5 80.5h-33v89h85v-48q0 -71 -22 -123t-71 -95zM213 -159q31 32 47.5 67t17.5 81h-33v89h85v-48q0 -71 -22 -123t-71 -95z" />
    <glyph glyph-name="quotedblleft" unicode="&#x201c;" horiz-adv-x="395" 
d="M64 563q0 71 22 123t71 95l24 -29q-30 -32 -47 -67.5t-18 -80.5h33v-89h-85v48zM238 563q0 71 22 123t71 95l24 -29q-30 -32 -47 -67.5t-18 -80.5h33v-89h-85v48z" />
    <glyph glyph-name="quotedblright" unicode="&#x201d;" horiz-adv-x="394" 
d="M40 537q30 32 46.5 67.5t17.5 80.5h-33v89h85v-48q0 -71 -22 -123t-71 -95zM213 537q31 32 47.5 67.5t17.5 80.5h-33v89h85v-48q0 -71 -22 -123t-71 -95z" />
    <glyph glyph-name="quoteleft" unicode="&#x2018;" horiz-adv-x="221" 
d="M64 563q0 71 22 123t71 95l24 -29q-30 -32 -47 -67.5t-18 -80.5h33v-89h-85v48z" />
    <glyph glyph-name="quoteright" unicode="&#x2019;" horiz-adv-x="220" 
d="M40 537q30 32 46.5 67.5t17.5 80.5h-33v89h85v-48q0 -71 -22 -123t-71 -95z" />
    <glyph glyph-name="quotesinglbase" unicode="&#x201a;" horiz-adv-x="220" 
d="M40 -159q30 32 46.5 67.5t17.5 80.5h-33v89h85v-48q0 -71 -22 -123t-71 -95z" />
    <glyph glyph-name="uni2003" unicode="&#x2003;" horiz-adv-x="1084" 
 />
    <glyph glyph-name="uni2002" unicode="&#x2002;" horiz-adv-x="544" 
 />
    <glyph glyph-name="uni200A" unicode="&#x200a;" horiz-adv-x="65" 
 />
    <glyph glyph-name="uni00A0" unicode="&#xa0;" horiz-adv-x="260" 
 />
    <glyph glyph-name="uni2009" unicode="&#x2009;" horiz-adv-x="217" 
 />
    <glyph glyph-name="cent" unicode="&#xa2;" horiz-adv-x="463" 
d="M414 10q-56 -20 -107 -21v-97h-62v100q-98 11 -141.5 76t-43.5 197q0 129 44 193t141 74v99h62v-97q51 -3 98 -20l8 -54q-61 20 -119 20q-91 0 -129.5 -49.5t-38.5 -165.5q0 -81 17.5 -129.5t55 -70.5t100.5 -22q36 0 64 5t59 17z" />
    <glyph glyph-name="currency" unicode="&#xa4;" horiz-adv-x="580" 
d="M45 171l85 82q-36 50 -36 121q0 69 36 120l-85 83l48 45l82 -83q46 33 116 33q69 0 114 -33l83 83l48 -45l-86 -83q37 -52 37 -120q0 -70 -37 -121l86 -82l-48 -46l-83 82q-48 -32 -114 -32t-116 32l-82 -82zM384.5 275.5q33.5 35.5 33.5 98.5t-33.5 98.5t-93.5 35.5
t-94 -35.5t-34 -98.5t34 -98.5t94 -35.5t93.5 35.5z" />
    <glyph glyph-name="dollar" unicode="$" horiz-adv-x="598" 
d="M474.5 54q-44.5 -52 -141.5 -62v-110h-65v107q-89 1 -169 30l-7 64q48 -19 90.5 -27t90.5 -8q92 0 134 36.5t42 117.5q0 58 -30.5 93t-97.5 55l-68 20q-85 26 -123 71.5t-38 120.5q0 84 44.5 132t131.5 59v111h65v-107q73 -2 144 -23l9 -59q-94 24 -160 24
q-165 0 -165 -130q0 -56 29.5 -88.5t97.5 -52.5l69 -21q87 -26 124.5 -73t37.5 -127q0 -101 -44.5 -153z" />
    <glyph glyph-name="Euro" unicode="&#x20ac;" horiz-adv-x="620" 
d="M213.5 56q-66.5 67 -83.5 206h-102v47h97q-2 35 -2 59q0 27 2 59h-79v50h84q19 147 91 213.5t196 66.5q69 0 143 -19l10 -61q-81 22 -150 22q-105 0 -156 -54.5t-65 -167.5h243l-12 -50h-236q-2 -32 -2 -59q0 -24 2 -59h218l-12 -47h-201q13 -116 63.5 -165t154.5 -49
q81 0 168 25l-10 -61q-34 -10 -77.5 -16.5t-85.5 -6.5q-132 0 -198.5 67z" />
    <glyph glyph-name="florin" unicode="&#x192;" horiz-adv-x="461" 
d="M-63 -192l-6 62q42 -11 81 -11q60 0 87 34.5t36 118.5l37 355h-84l7 54h84l12 113q7 67 20.5 106.5t36.5 64.5q48 52 140 52q46 0 87 -12l6 -61q-46 12 -83 12q-68 0 -98.5 -34.5t-39.5 -120.5l-13 -120h129v-54h-134l-39 -358q-13 -114 -56.5 -163.5t-122.5 -49.5
q-46 0 -87 12z" />
    <glyph glyph-name="sterling" unicode="&#xa3;" horiz-adv-x="552" 
d="M74 54q43 30 62.5 70.5t19.5 109.5v120h-82v54h82v122q0 115 61 173q25 24 64 39t89 15q63 0 122 -19v-54q-63 17 -118 17q-39 0 -65.5 -10.5t-45.5 -30.5q-19 -21 -28 -52.5t-9 -88.5v-111h185l-11 -54h-174v-121q0 -118 -74 -175h361l-20 -58h-419v54z" />
    <glyph glyph-name="cent.tf" horiz-adv-x="580" 
d="M473 10q-56 -20 -107 -21v-97h-62v100q-98 11 -141.5 76t-43.5 197q0 129 44 193t141 74v99h62v-97q51 -3 98 -20l8 -54q-61 20 -119 20q-91 0 -129.5 -49.5t-38.5 -165.5q0 -81 17.5 -129.5t55 -70.5t100.5 -22q36 0 64 5t59 17z" />
    <glyph glyph-name="dollar.tf" horiz-adv-x="580" 
d="M458.5 54q-44.5 -52 -141.5 -62v-110h-65v107q-89 1 -169 30l-7 64q48 -19 90.5 -27t90.5 -8q92 0 134 36.5t42 117.5q0 58 -30.5 93t-97.5 55l-68 20q-85 26 -123 71.5t-38 120.5q0 84 44.5 132t131.5 59v111h65v-107q73 -2 144 -23l9 -59q-94 24 -160 24
q-165 0 -165 -130q0 -56 29.5 -88.5t97.5 -52.5l69 -21q87 -26 124.5 -73t37.5 -127q0 -101 -44.5 -153z" />
    <glyph glyph-name="Euro.tf" horiz-adv-x="580" 
d="M203.5 56q-66.5 67 -83.5 206h-102v47h97q-2 35 -2 59q0 27 2 59h-79v50h84q19 147 91 213.5t196 66.5q69 0 143 -19l10 -61q-81 22 -150 22q-105 0 -156 -54.5t-65 -167.5h243l-12 -50h-236q-2 -32 -2 -59q0 -24 2 -59h218l-12 -47h-201q13 -116 63.5 -165t154.5 -49
q81 0 168 25l-10 -61q-34 -10 -77.5 -16.5t-85.5 -6.5q-132 0 -198.5 67z" />
    <glyph glyph-name="florin.tf" horiz-adv-x="580" 
d="M6 -192l-6 62q42 -11 81 -11q60 0 87 34.5t36 118.5l37 355h-84l7 54h84l12 113q7 67 20.5 106.5t36.5 64.5q48 52 140 52q46 0 87 -12l6 -61q-46 12 -83 12q-68 0 -98.5 -34.5t-39.5 -120.5l-13 -120h129v-54h-134l-39 -358q-13 -114 -56.5 -163.5t-122.5 -49.5
q-46 0 -87 12z" />
    <glyph glyph-name="sterling.tf" horiz-adv-x="580" 
d="M94 54q43 30 62.5 70.5t19.5 109.5v120h-82v54h82v122q0 115 61 173q25 24 64 39t89 15q63 0 122 -19v-54q-63 17 -118 17q-39 0 -65.5 -10.5t-45.5 -30.5q-19 -21 -28 -52.5t-9 -88.5v-111h185l-11 -54h-174v-121q0 -118 -74 -175h361l-20 -58h-419v54z" />
    <glyph glyph-name="yen.tf" horiz-adv-x="580" 
d="M261 154h-140v48h140v65h-140v47h120l-211 419v11h70l126 -263q34 -71 68 -158h5q34 92 65 159l121 262h65v-11l-202 -419h119v-47h-140v-65h140v-48h-140v-154h-66v154z" />
    <glyph glyph-name="yen" unicode="&#xa5;" horiz-adv-x="584" 
d="M263 154h-140v48h140v65h-140v47h120l-211 419v11h70l126 -263q34 -71 68 -158h5q34 92 65 159l121 262h65v-11l-202 -419h119v-47h-140v-65h140v-48h-140v-154h-66v154z" />
    <glyph glyph-name="dotmath" unicode="&#x22c5;" horiz-adv-x="232" 
d="M75 357h82v-85h-82v85z" />
    <glyph glyph-name="plus" unicode="+" horiz-adv-x="607" 
d="M272 254h-181v59h181v201h62v-201h181v-59h-181v-200h-62v200z" />
    <glyph glyph-name="minus" unicode="&#x2212;" horiz-adv-x="607" 
d="M91 313h424v-59h-424v59z" />
    <glyph glyph-name="multiply" unicode="&#xd7;" horiz-adv-x="619" 
d="M136 151l133 132l-133 133l41 41l132 -133l131 134l41 -41l-131 -134l133 -132l-41 -41l-133 133l-132 -133z" />
    <glyph glyph-name="divide" unicode="&#xf7;" horiz-adv-x="607" 
d="M255 523h96v-99h-96v99zM91 313h424v-59h-424v59zM255 149h96v-98h-96v98z" />
    <glyph glyph-name="equal" unicode="=" horiz-adv-x="610" 
d="M102 421h404v-59h-404v59zM102 205h404v-59h-404v59z" />
    <glyph glyph-name="notequal" unicode="&#x2260;" horiz-adv-x="610" 
d="M218 146h-115v59h137l58 157h-195v59h217l55 147h62l-55 -147h126v-59h-148l-59 -157h207v-59h-229l-42 -112h-61z" />
    <glyph glyph-name="greater" unicode="&#x3e;" horiz-adv-x="613" 
d="M120 110l311 179l-311 180l30 50l358 -208v-43l-358 -209z" />
    <glyph glyph-name="less" unicode="&#x3c;" horiz-adv-x="612" 
d="M105 268v43l358 208l31 -50l-312 -180l312 -179l-31 -51z" />
    <glyph glyph-name="greaterequal" unicode="&#x2265;" horiz-adv-x="611" 
d="M111 211l311 179l-311 179l31 51l358 -209v-43l-358 -208zM108 59h395v-59h-395v59z" />
    <glyph glyph-name="lessequal" unicode="&#x2264;" horiz-adv-x="611" 
d="M111 368v43l359 209l30 -51l-311 -179l311 -179l-30 -51zM108 59h395v-59h-395v59z" />
    <glyph glyph-name="plusminus" unicode="&#xb1;" horiz-adv-x="607" 
d="M272 362h-181v59h181v201h62v-201h181v-59h-181v-200h-62v200zM106 59h395v-59h-395v59z" />
    <glyph glyph-name="approxequal" unicode="&#x2248;" horiz-adv-x="610" 
d="M340.5 339.5q-22.5 9.5 -49.5 29.5l-13 10q-24 18 -38.5 25t-29.5 7q-23 0 -39 -14t-29 -43l-44 25q14 42 45 66.5t72 24.5q23 0 43 -8.5t44 -26.5l13 -9q28 -21 43 -29t33 -8q23 0 40.5 15t31.5 44l41 -25q-16 -44 -45.5 -68.5t-70.5 -24.5q-25 0 -47.5 9.5z
M339.5 127.5q-22.5 9.5 -48.5 29.5l-13 9q-25 18 -39 25.5t-29 7.5q-22 0 -38.5 -14.5t-29.5 -43.5l-44 25q14 42 45 66.5t72 24.5q23 0 43 -8.5t44 -26.5l13 -9q28 -21 43 -29t33 -8q43 0 72 59l41 -24q-16 -44 -45 -68.5t-71 -24.5q-26 0 -48.5 9.5z" />
    <glyph glyph-name="logicalnot" unicode="&#xac;" horiz-adv-x="610" 
d="M447 270h-338v59h400v-195h-62v136z" />
    <glyph glyph-name="asciitilde" unicode="~" horiz-adv-x="601" 
d="M356 251.5q-27 9.5 -66 30.5l-28 15q-30 15 -43.5 20.5t-28.5 5.5q-25 0 -42.5 -14.5t-34.5 -46.5l-41 25q14 42 45 67.5t79 25.5q23 0 45 -7.5t54 -23.5l30 -16q35 -19 53 -26.5t38 -7.5q25 0 41.5 15t31.5 46l41 -25q-29 -93 -117 -93q-30 0 -57 9.5z" />
    <glyph glyph-name="infinity" unicode="&#x221e;" horiz-adv-x="886" 
d="M550.5 210q-46.5 31 -110.5 104q-54 -70 -104.5 -102t-111.5 -32q-81 0 -128 48t-47 132q0 83 47.5 129.5t128.5 46.5q63 0 109.5 -31t109.5 -104q57 71 106.5 102.5t109.5 31.5q81 0 128 -48t47 -132q0 -83 -47.5 -129.5t-128.5 -46.5q-62 0 -108.5 31zM318.5 268
q43.5 30 88.5 91q-57 66 -95.5 92.5t-84.5 26.5q-54 0 -84 -30.5t-30 -86.5t29.5 -89.5t83.5 -33.5q49 0 92.5 30zM741.5 267.5q30.5 30.5 30.5 86.5t-30 89.5t-84 33.5q-49 0 -92.5 -30t-87.5 -91q56 -66 94.5 -92.5t84.5 -26.5q54 0 84.5 30.5z" />
    <glyph glyph-name="integral" unicode="&#x222b;" horiz-adv-x="621" 
d="M158 -148l-6 49q19 -4 51 -4q65 0 90 34t25 99q0 59 -9.5 119t-27.5 147q-19 92 -29.5 160t-10.5 137q0 86 42.5 135.5t126.5 49.5q23 0 53 -7l6 -48q-21 3 -50 3q-65 0 -90.5 -34t-25.5 -99q0 -59 9.5 -120.5t28.5 -157.5q20 -99 29.5 -161t9.5 -124q0 -85 -42.5 -134.5
t-126.5 -49.5q-27 0 -53 6z" />
    <glyph glyph-name="uni2126" unicode="&#x2126;" horiz-adv-x="750" 
d="M68 54h157q-149 113 -149 342q0 117 37.5 198t105 122t156.5 41t156.5 -41t105 -122t37.5 -198q0 -229 -149 -342h157l-8 -54h-233l-13 46q84 42 130.5 131t46.5 222q0 145 -58 222.5t-172 77.5t-172 -77.5t-58 -222.5q0 -133 46.5 -222t130.5 -131l-13 -46h-233z" />
    <glyph glyph-name="uni2206" unicode="&#x2206;" horiz-adv-x="651" 
d="M39 47l243 697h79l251 -699v-45h-573v47zM542 57l-218 619h-4l-211 -619h433z" />
    <glyph glyph-name="product" unicode="&#x220f;" horiz-adv-x="695" 
d="M148 686h-112v58h623v-58h-112v-863h-66v863h-268v-863h-65v863z" />
    <glyph glyph-name="summation" unicode="&#x2211;" horiz-adv-x="640" 
d="M60 -132l355 427l-359 383v66h541v-58h-466l349 -370v-40l-349 -416h466v-59h-537v67z" />
    <glyph glyph-name="radical" unicode="&#x221a;" horiz-adv-x="603" 
d="M127 470h-82v52h139l143 -462l227 705h62v-15l-245 -750h-90z" />
    <glyph glyph-name="partialdiff" unicode="&#x2202;" horiz-adv-x="588" 
d="M166 18.5q-49 29.5 -76 83.5t-27 127q0 109 54 166.5t152 57.5q84 0 180 -48q-9 145 -68 221t-161 76q-39 0 -85 -10l1 55q41 10 87 10q142 0 218.5 -104.5t76.5 -309.5q0 -354 -237 -354q-66 0 -115 29.5zM409.5 123.5q39.5 78.5 40.5 225.5q-94 48 -174 48
q-74 0 -110.5 -41t-36.5 -124q0 -89 42 -138t110 -49q89 0 128.5 78.5z" />
    <glyph glyph-name="uni00B5" unicode="&#xb5;" horiz-adv-x="573" 
d="M83 522h63v-319q0 -48 8.5 -77t26.5 -48q31 -34 106 -34q76 0 107 34q18 19 26.5 48t8.5 77v319h63v-316q0 -58 -11.5 -99t-37.5 -68q-47 -50 -156 -50q-94 0 -141 41v-249h-63v741z" />
    <glyph glyph-name="percent" unicode="%" horiz-adv-x="796" 
d="M82.5 396q-34.5 50 -34.5 156t34.5 155.5t107.5 49.5q74 0 108 -49.5t34 -155.5t-34.5 -156t-107.5 -50t-107.5 50zM161 17l417 727h57v-16l-417 -728h-57v17zM248 436.5q17 35.5 17 115.5q0 79 -17 114.5t-58 35.5q-39 0 -57 -36t-18 -114q0 -79 17.5 -115t57.5 -36
q41 0 58 35.5zM498.5 39q-34.5 50 -34.5 156t34.5 155.5t107.5 49.5q74 0 108 -49.5t34 -155.5t-34.5 -156t-107.5 -50t-107.5 50zM664 79.5q17 35.5 17 115.5q0 79 -17 114.5t-58 35.5q-39 0 -57 -36t-18 -114q0 -79 17.5 -115t57.5 -36q41 0 58 35.5z" />
    <glyph glyph-name="perthousand" unicode="&#x2030;" horiz-adv-x="1135" 
d="M82.5 396q-34.5 50 -34.5 156t34.5 155.5t107.5 49.5q74 0 108 -49.5t34 -155.5t-34.5 -156t-107.5 -50t-107.5 50zM161 17l417 727h57v-16l-417 -728h-57v17zM248 436.5q17 35.5 17 115.5q0 79 -17 114.5t-58 35.5q-39 0 -57 -36t-18 -114q0 -79 17.5 -115t57.5 -36
q41 0 58 35.5zM498.5 39q-34.5 50 -34.5 156t34.5 155.5t107.5 49.5q74 0 108 -49.5t34 -155.5t-34.5 -156t-107.5 -50t-107.5 50zM837.5 39q-34.5 50 -34.5 156t34.5 155.5t107.5 49.5q74 0 108 -49.5t34 -155.5t-34.5 -156t-107.5 -50t-107.5 50zM664 79.5
q17 35.5 17 115.5q0 79 -17 114.5t-58 35.5q-39 0 -57 -36t-18 -114q0 -79 17.5 -115t57.5 -36q41 0 58 35.5zM1003 79.5q17 35.5 17 115.5q0 79 -17 114.5t-58 35.5q-39 0 -57 -36t-18 -114q0 -79 17.5 -115t57.5 -36q41 0 58 35.5z" />
    <glyph glyph-name="arrowup" unicode="&#x2191;" horiz-adv-x="624" 
d="M286 517l-142 -145l-37 38l205 206l205 -206l-36 -38l-143 145v-433h-52v433z" />
    <glyph glyph-name="arrowright" unicode="&#x2192;" horiz-adv-x="685" 
d="M366 190l146 143h-433v51h433l-146 143l39 37l205 -205l-205 -206z" />
    <glyph glyph-name="arrowdown" unicode="&#x2193;" horiz-adv-x="624" 
d="M107 285l37 39l142 -146v434h52v-434l143 146l36 -39l-205 -205z" />
    <glyph glyph-name="arrowleft" unicode="&#x2190;" horiz-adv-x="685" 
d="M75 359l205 205l39 -37l-146 -143h434v-51h-434l146 -143l-39 -37z" />
    <glyph glyph-name="lozenge" unicode="&#x25ca;" horiz-adv-x="600" 
d="M60 372l204 372h72l204 -372l-204 -372h-72zM471 372l-171 309l-171 -309l171 -309z" />
    <glyph glyph-name="uniF8FF" unicode="&#xf8ff;" horiz-adv-x="605" 
d="M102 645.5q-9 9.5 -9 24.5q0 13 9.5 22.5t22.5 9.5q14 0 24 -9.5t10 -22.5q0 -15 -10 -24.5t-24 -9.5t-23 9.5zM173.5 645.5q-9.5 9.5 -9.5 24.5q0 13 10 22.5t23 9.5t22.5 -9.5t9.5 -22.5q0 -15 -9 -24.5t-23 -9.5t-23.5 9.5zM243.5 646q-10.5 10 -10.5 24
q0 13 10.5 22.5t23.5 9.5t22.5 -9.5t9.5 -22.5q0 -15 -9 -24.5t-23 -9.5q-13 0 -23.5 10zM315 645.5q-9 9.5 -9 24.5q0 13 9.5 22.5t22.5 9.5t23.5 -9.5t10.5 -22.5q0 -14 -10.5 -24t-23.5 -10q-14 0 -23 9.5zM385.5 645.5q-9.5 9.5 -9.5 24.5q0 13 9.5 22.5t23.5 9.5
q13 0 23 -9.5t10 -22.5q0 -15 -10 -24.5t-23 -9.5q-14 0 -23.5 9.5zM456 645.5q-10 9.5 -10 24.5q0 13 10 22.5t24 9.5q13 0 22.5 -9.5t9.5 -22.5q0 -15 -9 -24.5t-23 -9.5t-24 9.5zM102.5 575.5q-9.5 9.5 -9.5 22.5q0 14 9.5 23.5t22.5 9.5q14 0 24 -10t10 -23t-10 -22.5
t-24 -9.5q-13 0 -22.5 9.5zM102.5 504.5q-9.5 9.5 -9.5 23.5q0 13 9.5 22t22.5 9q14 0 24 -9t10 -22t-10 -23t-24 -10q-13 0 -22.5 9.5zM243.5 505q-10.5 10 -10.5 23t10.5 22t23.5 9t22.5 -9t9.5 -22q0 -14 -9.5 -23.5t-22.5 -9.5t-23.5 10zM315.5 504.5
q-9.5 9.5 -9.5 23.5q0 13 9.5 22t22.5 9t23.5 -9t10.5 -22t-10.5 -23t-23.5 -10t-22.5 9.5zM385.5 504.5q-9.5 9.5 -9.5 23.5q0 13 9.5 22t23.5 9q13 0 23 -9t10 -22t-10 -23t-23 -10q-14 0 -23.5 9.5zM455.5 504.5q-9.5 9.5 -9.5 23.5q0 13 9.5 22t24.5 9q12 0 22 -9
t10 -22t-10 -23t-22 -10q-15 0 -24.5 9.5zM102 434.5q-9 8.5 -9 22.5t9.5 23t22.5 9q14 0 24 -9.5t10 -22.5q0 -14 -10 -22.5t-24 -8.5t-23 8.5zM243.5 434.5q-10.5 8.5 -10.5 22.5q0 13 10.5 22.5t23.5 9.5q14 0 23 -9t9 -23t-9 -22.5t-23 -8.5q-13 0 -23.5 8.5zM102 362.5
q-9 9.5 -9 23.5t9.5 23.5t22.5 9.5q14 0 24 -10t10 -23q0 -14 -10 -23.5t-24 -9.5t-23 9.5zM243.5 362.5q-10.5 9.5 -10.5 23.5q0 13 10.5 23t23.5 10t22.5 -9.5t9.5 -23.5t-9 -23.5t-23 -9.5q-13 0 -23.5 9.5zM315 362.5q-9 9.5 -9 23.5t9.5 23.5t22.5 9.5t23.5 -10
t10.5 -23q0 -14 -10.5 -23.5t-23.5 -9.5q-14 0 -23 9.5zM385.5 362.5q-9.5 9.5 -9.5 23.5t9.5 23.5t23.5 9.5q13 0 23 -10t10 -23q0 -14 -10 -23.5t-23 -9.5q-14 0 -23.5 9.5zM456 362.5q-10 9.5 -10 23.5q0 13 10 23t24 10q13 0 22.5 -9.5t9.5 -23.5t-9 -23.5t-23 -9.5
t-24 9.5zM102.5 292.5q-9.5 9.5 -9.5 22.5q0 14 9.5 23.5t22.5 9.5q14 0 24 -10t10 -23t-10 -22.5t-24 -9.5q-13 0 -22.5 9.5zM456 292.5q-10 9.5 -10 22.5t10 23t24 10q13 0 22.5 -9.5t9.5 -23.5q0 -13 -9 -22.5t-23 -9.5t-24 9.5zM102.5 222.5q-9.5 9.5 -9.5 22.5t9.5 22
t22.5 9q14 0 24 -9t10 -22t-10 -22.5t-24 -9.5q-13 0 -22.5 9.5zM243.5 222.5q-10.5 9.5 -10.5 22.5t10.5 22t23.5 9t22.5 -9t9.5 -22t-9 -22.5t-23 -9.5q-13 0 -23.5 9.5zM315.5 222.5q-9.5 9.5 -9.5 22.5t9.5 22t22.5 9t23.5 -9t10.5 -22t-10.5 -22.5t-23.5 -9.5
t-22.5 9.5zM385.5 222q-9.5 9 -9.5 23q0 13 9.5 22t23.5 9q13 0 23 -9t10 -22t-10 -22.5t-23 -9.5q-14 0 -23.5 9zM456 222.5q-10 9.5 -10 22.5t10 22t24 9q13 0 22.5 -9t9.5 -22t-9 -22.5t-23 -9.5t-24 9.5zM102.5 150q-9.5 10 -9.5 24t9.5 23t22.5 9q14 0 24 -9.5
t10 -22.5t-10 -23.5t-24 -10.5q-13 0 -22.5 10zM102 79.5q-9 9.5 -9 23.5t9 23t23 9t24 -9t10 -23t-10 -23.5t-24 -9.5t-23 9.5zM243.5 79.5q-10.5 9.5 -10.5 23.5t10.5 23t23.5 9q14 0 23 -9t9 -23t-9 -23.5t-23 -9.5q-13 0 -23.5 9.5zM102.5 9.5q-9.5 9.5 -9.5 22.5
q0 14 9.5 24t22.5 10q14 0 24 -10t10 -24q0 -13 -10 -22.5t-24 -9.5q-13 0 -22.5 9.5zM173.5 9.5q-9.5 9.5 -9.5 22.5q0 14 10 24t23 10t22.5 -10t9.5 -24q0 -13 -9 -22.5t-23 -9.5t-23.5 9.5zM243.5 9.5q-10.5 9.5 -10.5 22.5t10.5 23.5t23.5 10.5t22.5 -10t9.5 -24
q0 -13 -9 -22.5t-23 -9.5q-13 0 -23.5 9.5z" />
    <glyph glyph-name="at" unicode="@" horiz-adv-x="840" 
d="M235 -101.5q-85 46.5 -130 133t-45 205.5q0 118 44.5 204.5t128 132.5t198.5 46q108 0 186.5 -40.5t120.5 -117t42 -180.5q0 -111 -42.5 -175t-118.5 -64q-30 0 -54 12.5t-38 35.5q-22 -23 -53 -35.5t-66 -12.5q-70 0 -109.5 51t-39.5 139q0 92 44 145t122 53q24 0 50 -8
t46 -22l9 19h34v-230q0 -47 16.5 -73t45.5 -26q45 0 70.5 48.5t25.5 133.5q0 137 -75.5 214t-209.5 77q-148 0 -230 -86t-82 -241q0 -157 83 -244.5t233 -87.5q98 0 202 31l-10 -53q-44 -15 -95 -23t-100 -8q-118 0 -203 46.5zM508 133v229q-37 19 -78 19q-55 0 -83 -37.5
t-28 -109.5q0 -142 94 -142q57 0 95 41z" />
    <glyph glyph-name="ampersand" unicode="&#x26;" horiz-adv-x="715" 
d="M112.5 43.5q-63.5 54.5 -63.5 148.5q0 147 172 219q-49 52 -71 93t-22 90q0 77 49.5 120t129.5 43t127 -43t47 -121q0 -69 -40 -114t-122 -79l212 -221q31 51 42 112.5t11 130.5v21l57 11v-32q0 -84 -15 -154.5t-55 -129.5l97 -101l-46 -42l-92 95q-51 -50 -116 -75.5
t-134 -25.5q-104 0 -167.5 54.5zM388 504.5q32 37.5 32 88.5q0 50 -29 79.5t-83 29.5q-53 0 -82.5 -28t-29.5 -79q0 -38 19 -72.5t67 -85.5q74 30 106 67.5zM397 67q54 22 95 63l-233 243q-139 -57 -139 -181q0 -70 43 -108.5t122 -38.5q58 0 112 22z" />
    <glyph glyph-name="paragraph" unicode="&#xb6;" horiz-adv-x="569" 
d="M239 328q-96 12 -149 63.5t-53 142.5q0 95 59 152q30 29 77 43.5t106 14.5h250v-65h-65v-821h-70v821h-84v-821h-71v470z" />
    <glyph glyph-name="section" unicode="&#xa7;" horiz-adv-x="483" 
d="M117 14l-7 54q64 -26 125 -26q52 0 80.5 21t28.5 63q0 33 -18.5 54.5t-60.5 34.5l-57 18q-69 22 -100.5 56t-31.5 87q0 38 16 70.5t45 56.5q-60 38 -60 113q0 65 47 103t119 38q73 0 123 -25l7 -54q-59 26 -124 26q-52 0 -80.5 -21t-28.5 -63q0 -33 18 -54t60 -35l58 -18
q69 -22 100 -55.5t31 -87.5q0 -38 -16 -71t-46 -56q61 -39 61 -112q0 -66 -47 -104t-119 -38q-69 0 -123 25zM336.5 306.5q10.5 25.5 10.5 53.5q0 38 -19 60t-70 38l-80 25q-21 -18 -31.5 -43.5t-10.5 -52.5q0 -38 19 -60t70 -39l80 -26q21 19 31.5 44.5z" />
    <glyph glyph-name="copyright" unicode="&#xa9;" horiz-adv-x="866" 
d="M236 35.5q-82 45.5 -125 132t-43 206.5t43 206t125 131.5t197 45.5t197 -45.5t125 -131.5t43 -206t-43 -206.5t-125 -132t-197 -45.5t-197 45.5zM656.5 131.5q79.5 86.5 79.5 242.5q0 155 -79.5 241.5t-223.5 86.5q-143 0 -222.5 -86.5t-79.5 -241.5q0 -156 79.5 -242.5
t222.5 -86.5q144 0 223.5 86.5zM283 375q0 195 162 195q43 0 86 -11l7 -48q-26 6 -46.5 9t-38.5 3q-63 0 -88.5 -32.5t-25.5 -113.5t25 -113.5t88 -32.5q20 0 39 3.5t50 11.5l-6 -47q-48 -13 -92 -13q-160 0 -160 189z" />
    <glyph glyph-name="registered" unicode="&#xae;" horiz-adv-x="866" 
d="M236 35.5q-82 45.5 -125 132t-43 206.5t43 206t125 131.5t197 45.5t197 -45.5t125 -131.5t43 -206t-43 -206.5t-125 -132t-197 -45.5t-197 45.5zM656.5 131.5q79.5 86.5 79.5 242.5q0 155 -79.5 241.5t-223.5 86.5q-143 0 -222.5 -86.5t-79.5 -241.5q0 -156 79.5 -242.5
t222.5 -86.5q144 0 223.5 86.5zM325 564h111q57 0 88.5 -28t31.5 -79q0 -40 -22.5 -68.5t-63.5 -39.5l94 -149v-10h-51l-95 155h-42v-155h-51v374zM436 393q32 0 50 16.5t18 46.5q0 28 -18 44t-50 16h-60v-123h60z" />
    <glyph glyph-name="trademark" unicode="&#x2122;" horiz-adv-x="671" 
d="M126 706h-81v46h216v-46h-81v-246h-54v246zM311 752h62l76 -210h4l65 210h64l31 -292h-51l-22 212l-61 -189h-61l-66 187l-16 -210h-48z" />
    <glyph glyph-name="degree" unicode="&#xb0;" horiz-adv-x="370" 
d="M93 576q-37 35 -37 94t37 93.5t92 34.5t92 -34.5t37 -93.5t-37 -94t-92 -35t-92 35zM237.5 611.5q18.5 20.5 18.5 58.5t-18.5 58t-52.5 20t-52.5 -20.5t-18.5 -57.5q0 -38 18.5 -58.5t52.5 -20.5t52.5 20.5z" />
    <glyph glyph-name="bar" unicode="|" horiz-adv-x="264" 
d="M99 757h66v-768h-66v768z" />
    <glyph glyph-name="brokenbar" unicode="&#xa6;" horiz-adv-x="264" 
d="M99 757h66v-281h-66v281zM99 270h66v-281h-66v281z" />
    <glyph glyph-name="dagger" unicode="&#x2020;" horiz-adv-x="544" 
d="M240 420h-180v56h179l-1 268h68l-2 -268h180v-56h-180l-4 -563h-56z" />
    <glyph glyph-name="uni2113" unicode="&#x2113;" horiz-adv-x="490" 
d="M179 28q-23 24 -34.5 58.5t-11.5 91.5v37l-73 -42l-17 41l90 56v295q0 101 41 149q38 43 106 43q64 0 99.5 -42t35.5 -120q0 -97 -52 -178.5t-169 -162.5v-61q0 -50 7.5 -79.5t22.5 -47.5q23 -24 66 -24q34 0 71 16t69 45l27 -34q-35 -36 -80 -58t-90 -22q-69 0 -108 39z
M318.5 442.5q37.5 63.5 37.5 140.5q0 119 -79 119q-46 0 -64.5 -33.5t-18.5 -105.5v-251q87 67 124.5 130.5z" />
    <glyph glyph-name="daggerdbl" unicode="&#x2021;" horiz-adv-x="545" 
d="M240 211h-152v56h151l-1 194h-176v56h175l-1 227h68l-2 -227h181v-56h-181l-1 -194h153v-56h-154l-2 -354h-56z" />
    <glyph glyph-name="estimated" unicode="&#x212e;" horiz-adv-x="948" 
d="M262 41q-98 51 -155.5 139t-57.5 192t57.5 192t155.5 139t213 51t212.5 -51t154.5 -139t57 -192v-9h-688q-5 0 -5 -6v-208q0 -12 10 -25q48 -51 116 -81t144 -30q81 0 152 33.5t120 91.5h63q-60 -68 -148 -108t-188 -40q-115 0 -213 51zM737 383q2 0 4 2t2 4v210
q0 14 -11 25q-49 50 -116 78.5t-140 28.5q-76 0 -143 -29.5t-116 -80.5q-11 -9 -11 -27v-205q0 -6 5 -6h526z" />
    <glyph glyph-name="uni2116" unicode="&#x2116;" horiz-adv-x="1093" 
d="M95 744h66l423 -649h3v649h61v-744h-73l-416 635h-2v-635h-62v744zM769 183.5q-38 43.5 -38 129.5t38 129t107 43t107 -43t38 -129t-38 -129.5t-107 -43.5t-107 43.5zM943 215q23 29 23 98t-23 98t-67 29t-67 -29t-23 -98t23 -98t67 -29t67 29zM746 50h265l-13 -50h-252
v50z" />
    <glyph glyph-name="asciicircum" unicode="^" horiz-adv-x="605" 
d="M302 675l-167 -268l-53 30l197 307h47l197 -307l-53 -31z" />
    <glyph glyph-name="at.case" horiz-adv-x="840" 
d="M244 35.5q-85 46.5 -130 133t-45 205.5q0 118 44.5 204.5t128 132.5t198.5 46q108 0 186.5 -40.5t120.5 -117t42 -180.5q0 -111 -42.5 -175t-118.5 -64q-30 0 -54 12.5t-38 35.5q-22 -23 -53 -35.5t-66 -12.5q-70 0 -109.5 51t-39.5 139q0 92 44 145t122 53q24 0 50 -8
t46 -22l9 19h34v-230q0 -47 16.5 -73t45.5 -26q45 0 70.5 48.5t25.5 133.5q0 137 -75.5 214t-209.5 77q-148 0 -230 -86t-82 -241q0 -157 83 -244.5t233 -87.5q98 0 202 31l-10 -53q-44 -15 -95 -23t-100 -8q-118 0 -203 46.5zM517 270v229q-37 19 -78 19q-55 0 -83 -37.5
t-28 -109.5q0 -142 94 -142q57 0 95 41z" />
    <glyph glyph-name="uni0308" unicode="&#x308;" 
d="M-324 719h75v-92h-75v92zM-112 719h76v-92h-76v92z" />
    <glyph glyph-name="uni0307" unicode="&#x307;" 
d="M-217 719h75v-92h-75v92z" />
    <glyph glyph-name="gravecomb" unicode="&#x300;" 
d="M-298 719l38 55l197 -134l-23 -40z" />
    <glyph glyph-name="acutecomb" unicode="&#x301;" 
d="M-298 639l198 135l38 -55l-213 -119z" />
    <glyph glyph-name="uni030B" unicode="&#x30b;" 
d="M-384 636l165 144l41 -49l-176 -131zM-182 636l165 144l41 -49l-176 -131z" />
    <glyph glyph-name="uni0302" unicode="&#x302;" 
d="M-333 635l133 150h41l133 -150l-39 -31l-115 119l-114 -119z" />
    <glyph glyph-name="uni030C" unicode="&#x30c;" 
d="M-333 765l39 31l114 -119l115 119l39 -31l-133 -150h-41z" />
    <glyph glyph-name="uni0306" unicode="&#x306;" 
d="M-271.5 648q-34.5 31 -42.5 83l49 10q19 -67 84 -67q66 0 85 67l49 -10q-8 -52 -43 -83t-91 -31t-90.5 31z" />
    <glyph glyph-name="uni030A" unicode="&#x30a;" 
d="M-251 622q-27 27 -27 67q0 41 27 68t71 27t71 -27t27 -68q0 -40 -27 -67t-71 -27t-71 27zM-144 650.5q14 15.5 14 38.5q0 25 -14 40t-36 15t-36 -15t-14 -40q0 -23 14 -38.5t36 -15.5t36 15.5z" />
    <glyph glyph-name="tildecomb" unicode="&#x303;" 
d="M-149 637.5q-19 8.5 -43 24.5q-21 13 -35.5 20t-28.5 7q-19 0 -32.5 -11.5t-28.5 -37.5l-32 21q19 45 41 66t56 21q21 0 40 -8.5t43 -24.5q21 -13 35.5 -20t28.5 -7q19 0 32.5 11.5t28.5 37.5l32 -21q-19 -43 -41.5 -65t-55.5 -22q-21 0 -40 8.5z" />
    <glyph glyph-name="uni0304" unicode="&#x304;" 
d="M-324 698h287l-10 -55h-277v55z" />
    <glyph glyph-name="uni0326" unicode="&#x326;" 
d="M-222 -254q31 46 32 108h-33v90h85v-49q0 -54 -12.5 -96.5t-39.5 -78.5z" />
    <glyph glyph-name="uni0327" unicode="&#x327;" 
d="M-269 -215l-4 39q37 -8 71 -8q33 0 49.5 11.5t16.5 37.5q0 23 -15.5 33.5t-50.5 10.5q-31 0 -61 -4l14 97h45l-9 -57q22 2 32 2q46 0 70.5 -20t24.5 -61q0 -44 -29 -68t-81 -24q-33 0 -73 11z" />
    <glyph glyph-name="uni0328" unicode="&#x328;" 
d="M-245.5 -195.5q-27.5 25.5 -27.5 68.5q0 42 27 76.5t70 56.5h32l2 -6q-37 -27 -55.5 -57.5t-18.5 -61.5q0 -60 63 -60q29 0 67 12l-6 -40q-16 -6 -38 -10t-40 -4q-48 0 -75.5 25.5z" />
    <glyph glyph-name="uni0308.case" 
d="M-324 923h75v-91h-75v91zM-111 923h75v-91h-75v91z" />
    <glyph glyph-name="uni0307.case" 
d="M-217 923h75v-91h-75v91z" />
    <glyph glyph-name="gravecomb.case" 
d="M-298 924l38 56l198 -134l-23 -40z" />
    <glyph glyph-name="acutecomb.case" 
d="M-298 845l198 135l38 -56l-213 -118z" />
    <glyph glyph-name="uni030B.case" 
d="M-385 841l166 144l41 -49l-176 -130zM-182 841l165 144l41 -49l-176 -130z" />
    <glyph glyph-name="uni0302.case" 
d="M-333 829l133 151h41l133 -151l-39 -31l-115 119l-114 -119z" />
    <glyph glyph-name="uni030C.case" 
d="M-333 956l39 31l114 -119l115 119l39 -31l-133 -150h-41z" />
    <glyph glyph-name="uni0306.case" 
d="M-271.5 859.5q-34.5 31.5 -42.5 83.5l49 10q9 -33 29.5 -50t54.5 -17q35 0 55.5 17t29.5 50l49 -10q-8 -52 -43 -83.5t-91 -31.5t-90.5 31.5z" />
    <glyph glyph-name="uni030A.case" 
d="M-251 827q-27 27 -27 67q0 41 27 68t71 27t71 -27t27 -68q0 -40 -27 -67t-71 -27t-71 27zM-144 855.5q14 15.5 14 38.5q0 25 -14 40t-36 15t-36 -15t-14 -40q0 -23 14 -38.5t36 -15.5t36 15.5z" />
    <glyph glyph-name="tildecomb.case" 
d="M-149 842.5q-19 8.5 -43 24.5q-21 13 -35.5 20t-28.5 7q-19 0 -32.5 -11t-28.5 -37l-32 20q19 45 41 66.5t56 21.5q22 0 41 -9t42 -25q21 -13 35.5 -20t28.5 -7q19 0 32.5 11.5t28.5 37.5l32 -21q-19 -43 -41.5 -65t-55.5 -22q-21 0 -40 8.5z" />
    <glyph glyph-name="uni0304.case" 
d="M-324 923h287l-10 -55h-277v55z" />
    <glyph glyph-name="acutecomb.loclPLK" 
d="M-255 604l88 184l61 -28l-109 -178z" />
    <glyph glyph-name="acutecomb.case.loclPLK" 
d="M-255 822l88 185l61 -29l-109 -178z" />
    <glyph glyph-name="acute" unicode="&#xb4;" horiz-adv-x="360" 
d="M62 639l198 135l38 -55l-213 -119z" />
    <glyph glyph-name="breve" unicode="&#x2d8;" horiz-adv-x="360" 
d="M88.5 648q-34.5 31 -42.5 83l49 10q19 -67 84 -67q66 0 85 67l49 -10q-8 -52 -43 -83t-91 -31t-90.5 31z" />
    <glyph glyph-name="caron" unicode="&#x2c7;" horiz-adv-x="360" 
d="M27 765l39 31l114 -119l115 119l39 -31l-133 -150h-41z" />
    <glyph glyph-name="acute.case" horiz-adv-x="360" 
d="M62 845l198 135l38 -56l-213 -118z" />
    <glyph glyph-name="breve.case" horiz-adv-x="360" 
d="M88.5 859.5q-34.5 31.5 -42.5 83.5l49 10q9 -33 29.5 -50t54.5 -17q35 0 55.5 17t29.5 50l49 -10q-8 -52 -43 -83.5t-91 -31.5t-90.5 31.5z" />
    <glyph glyph-name="caron.case" horiz-adv-x="360" 
d="M27 956l39 31l114 -119l115 119l39 -31l-133 -150h-41z" />
    <glyph glyph-name="circumflex.case" horiz-adv-x="360" 
d="M27 829l133 151h41l133 -151l-39 -31l-115 119l-114 -119z" />
    <glyph glyph-name="dieresis.case" horiz-adv-x="360" 
d="M36 923h75v-91h-75v91zM249 923h75v-91h-75v91z" />
    <glyph glyph-name="dotaccent.case" horiz-adv-x="360" 
d="M143 923h75v-91h-75v91z" />
    <glyph glyph-name="grave.case" horiz-adv-x="360" 
d="M62 924l38 56l198 -134l-23 -40z" />
    <glyph glyph-name="hungarumlaut.case" horiz-adv-x="360" 
d="M-25 841l166 144l41 -49l-176 -130zM178 841l165 144l41 -49l-176 -130z" />
    <glyph glyph-name="macron.case" horiz-adv-x="360" 
d="M36 923h287l-10 -55h-277v55z" />
    <glyph glyph-name="ring.case" horiz-adv-x="360" 
d="M109 827q-27 27 -27 67q0 41 27 68t71 27t71 -27t27 -68q0 -40 -27 -67t-71 -27t-71 27zM216 855.5q14 15.5 14 38.5q0 25 -14 40t-36 15t-36 -15t-14 -40q0 -23 14 -38.5t36 -15.5t36 15.5z" />
    <glyph glyph-name="tilde.case" horiz-adv-x="360" 
d="M211 842.5q-19 8.5 -43 24.5q-21 13 -35.5 20t-28.5 7q-19 0 -32.5 -11t-28.5 -37l-32 20q19 45 41 66.5t56 21.5q22 0 41 -9t42 -25q21 -13 35.5 -20t28.5 -7q19 0 32.5 11.5t28.5 37.5l32 -21q-19 -43 -41.5 -65t-55.5 -22q-21 0 -40 8.5z" />
    <glyph glyph-name="cedilla" unicode="&#xb8;" horiz-adv-x="360" 
d="M91 -215l-4 39q37 -8 71 -8q33 0 49.5 11.5t16.5 37.5q0 23 -15.5 33.5t-50.5 10.5q-31 0 -61 -4l14 97h45l-9 -57q22 2 32 2q46 0 70.5 -20t24.5 -61q0 -44 -29 -68t-81 -24q-33 0 -73 11z" />
    <glyph glyph-name="circumflex" unicode="&#x2c6;" horiz-adv-x="360" 
d="M27 635l133 150h41l133 -150l-39 -31l-115 119l-114 -119z" />
    <glyph glyph-name="dieresis" unicode="&#xa8;" horiz-adv-x="360" 
d="M36 719h75v-92h-75v92zM248 719h76v-92h-76v92z" />
    <glyph glyph-name="dotaccent" unicode="&#x2d9;" horiz-adv-x="360" 
d="M143 719h75v-92h-75v92z" />
    <glyph glyph-name="grave" unicode="`" horiz-adv-x="360" 
d="M62 719l38 55l197 -134l-23 -40z" />
    <glyph glyph-name="hungarumlaut" unicode="&#x2dd;" horiz-adv-x="360" 
d="M-24 636l165 144l41 -49l-176 -131zM178 636l165 144l41 -49l-176 -131z" />
    <glyph glyph-name="macron" unicode="&#xaf;" horiz-adv-x="360" 
d="M36 698h287l-10 -55h-277v55z" />
    <glyph glyph-name="ogonek" unicode="&#x2db;" horiz-adv-x="360" 
d="M114.5 -195.5q-27.5 25.5 -27.5 68.5q0 42 27 76.5t70 56.5h32l2 -6q-37 -27 -55.5 -57.5t-18.5 -61.5q0 -60 63 -60q29 0 67 12l-6 -40q-16 -6 -38 -10t-40 -4q-48 0 -75.5 25.5z" />
    <glyph glyph-name="ring" unicode="&#x2da;" horiz-adv-x="360" 
d="M109 622q-27 27 -27 67q0 41 27 68t71 27t71 -27t27 -68q0 -40 -27 -67t-71 -27t-71 27zM216 650.5q14 15.5 14 38.5q0 25 -14 40t-36 15t-36 -15t-14 -40q0 -23 14 -38.5t36 -15.5t36 15.5z" />
    <glyph glyph-name="tilde" unicode="&#x2dc;" horiz-adv-x="360" 
d="M211 637.5q-19 8.5 -43 24.5q-21 13 -35.5 20t-28.5 7q-19 0 -32.5 -11.5t-28.5 -37.5l-32 21q19 45 41 66t56 21q21 0 40 -8.5t43 -24.5q21 -13 35.5 -20t28.5 -7q19 0 32.5 11.5t28.5 37.5l32 -21q-19 -43 -41.5 -65t-55.5 -22q-21 0 -40 8.5z" />
  </font>
</defs>
</svg>
